STARTFONT 2.1
COMMENT
COMMENT Converted from OpenType font "font.ttf" by "otf2bdf 3.0".
COMMENT
FONT -FreeType-Century Gothic-Medium-R-Normal--44-320-100-100-P-221-ISO10646-1
SIZE 32 100 100
FONTBOUNDINGBOX 59 62 -8 -14
STARTPROPERTIES 19
FOUNDRY "FreeType"
FAMILY_NAME "Century Gothic"
WEIGHT_NAME "Medium"
SLANT "R"
SETWIDTH_NAME "Normal"
ADD_STYLE_NAME ""
PIXEL_SIZE 44
POINT_SIZE 320
RESOLUTION_X 100
RESOLUTION_Y 100
SPACING "P"
AVERAGE_WIDTH 221
CHARSET_REGISTRY "ISO10646"
CHARSET_ENCODING "1"
FONT_ASCENT 44
FONT_DESCENT 9
COPYRIGHT "Typeface © The Monotype Corporation plc. Data © The Monotype Corporation plc / Type Solutions Inc. 1990-91 All Rights Reserved"
_OTF_FONTFILE "font.ttf"
_OTF_PSNAME "CenturyGothic"
ENDPROPERTIES
CHARS 668
STARTCHAR 0020
ENCODING 32
SWIDTH 270 0
DWIDTH 12 0
BBX 0 0 0 0
BITMAP
ENDCHAR
STARTCHAR 0021
ENCODING 33
SWIDTH 292 0
DWIDTH 13 0
BBX 5 33 4 0
BITMAP
70
70
70
70
70
70
70
70
70
70
70
70
70
70
70
70
70
70
70
70
70
70
70
70
70
00
00
00
70
F8
F8
F8
70
ENDCHAR
STARTCHAR 0022
ENCODING 34
SWIDTH 315 0
DWIDTH 14 0
BBX 12 10 1 23
BITMAP
E070
E070
E070
E070
E070
E070
E070
E070
E070
C070
ENDCHAR
STARTCHAR 0023
ENCODING 35
SWIDTH 720 0
DWIDTH 32 0
BBX 24 33 4 0
BITMAP
007070
007070
007070
006060
00E0E0
00E0E0
00E0E0
00E0E0
00E0E0
7FFFFF
7FFFFF
7FFFFF
01C1C0
01C1C0
01C1C0
01C1C0
018180
038380
038380
038380
FFFFFE
FFFFFE
FFFFFE
030300
070700
070700
070700
070700
070700
060600
0E0E00
0E0E00
0E0E00
ENDCHAR
STARTCHAR 0024
ENCODING 36
SWIDTH 540 0
DWIDTH 24 0
BBX 21 43 1 -8
BITMAP
003800
003800
00FC00
07FF00
0FFFC0
1F3BE0
1C38E0
3C3840
383800
383800
383800
383800
3C3800
1E3800
0F3800
07F800
03F800
00FC00
003F00
003F80
003BC0
0039E0
0038F0
003870
003878
003838
003838
003838
003838
403878
F03870
F838F0
7E3BE0
3FFFC0
0FFF80
01FE00
003800
003800
003800
003800
003800
003800
003800
ENDCHAR
STARTCHAR 0025
ENCODING 37
SWIDTH 765 0
DWIDTH 34 0
BBX 32 36 1 -2
BITMAP
000000F0
07C007E0
1FFFFFC0
3FFFFFC0
787FFB80
701C0380
E00E0700
E00E0E00
E00E0E00
E00E1C00
E00E1C00
701C3800
783C7000
3FF87000
1FF0E000
07C0E000
0001C000
00038000
00038000
00070000
000E03E0
000E0FF8
001C1FFC
001C3C1E
0038380E
00707007
00707007
00E07007
00E07007
01C07007
0380380E
03803C1E
07001FFC
07000FF8
0E0003E0
1C000000
ENDCHAR
STARTCHAR 0026
ENCODING 38
SWIDTH 742 0
DWIDTH 33 0
BBX 28 34 4 -1
BITMAP
00F80000
03FE0000
07FF0000
078F0000
0F078000
0E038000
0E038000
0E038000
0E038000
07070000
070F0000
078F0000
039E0000
01FC0000
01F80000
01F00000
03F80000
07F80000
0F9C0000
1E0E0000
3C070000
78078100
7003C380
7001E780
E000FF00
E0007E00
E0007C00
E000FE00
F003EF00
7007C780
7C1F83C0
3FFE01E0
1FFC00F0
07E00000
ENDCHAR
STARTCHAR 0027
ENCODING 39
SWIDTH 202 0
DWIDTH 9 0
BBX 3 10 2 23
BITMAP
E0
E0
E0
E0
E0
E0
E0
E0
E0
E0
ENDCHAR
STARTCHAR 0028
ENCODING 40
SWIDTH 337 0
DWIDTH 15 0
BBX 7 41 5 -9
BITMAP
0E
1C
1C
1C
38
38
38
38
70
70
70
70
70
60
E0
E0
E0
E0
E0
E0
E0
E0
E0
E0
E0
E0
E0
E0
E0
E0
70
70
70
70
70
70
38
38
38
38
1C
ENDCHAR
STARTCHAR 0029
ENCODING 41
SWIDTH 360 0
DWIDTH 16 0
BBX 8 41 2 -9
BITMAP
70
38
38
38
1C
1C
1C
0E
0E
0E
0E
0E
0F
07
07
07
07
07
07
07
07
07
07
07
07
07
0E
0E
0E
0E
0E
0E
1C
1C
1C
38
38
38
70
70
E0
ENDCHAR
STARTCHAR 002A
ENCODING 42
SWIDTH 427 0
DWIDTH 19 0
BBX 15 16 2 17
BITMAP
0380
0380
0380
6384
F39E
793C
1F70
07C0
07C0
1FF0
793E
F19E
4384
0380
0380
0380
ENDCHAR
STARTCHAR 002B
ENCODING 43
SWIDTH 585 0
DWIDTH 26 0
BBX 21 21 2 5
BITMAP
007000
007000
007000
007000
007000
007000
007000
007000
007000
FFFFF8
FFFFF8
FFFFF8
007000
007000
007000
007000
007000
007000
007000
007000
007000
ENDCHAR
STARTCHAR 002C
ENCODING 44
SWIDTH 247 0
DWIDTH 11 0
BBX 6 10 2 -4
BITMAP
10
1C
3C
38
38
70
70
60
E0
40
ENDCHAR
STARTCHAR 002D
ENCODING 45
SWIDTH 337 0
DWIDTH 15 0
BBX 13 3 1 11
BITMAP
FFF8
FFF8
FFF8
ENDCHAR
STARTCHAR 002E
ENCODING 46
SWIDTH 270 0
DWIDTH 12 0
BBX 5 5 4 0
BITMAP
70
F8
F8
F8
70
ENDCHAR
STARTCHAR 002F
ENCODING 47
SWIDTH 427 0
DWIDTH 19 0
BBX 16 37 2 -4
BITMAP
0007
000E
000E
000E
001C
001C
001C
0038
0038
0038
0070
0070
00F0
00E0
00E0
01E0
01C0
01C0
03C0
0380
0380
0780
0700
0700
0F00
0E00
0E00
1C00
1C00
1C00
3800
3800
3800
7000
7000
7000
E000
ENDCHAR
STARTCHAR 0030
ENCODING 48
SWIDTH 540 0
DWIDTH 24 0
BBX 21 34 1 -1
BITMAP
01F800
07FE00
0FFF80
1F0780
1E03C0
3C01E0
3800E0
7000F0
700070
700070
E00070
E00038
E00038
E00038
E00038
E00038
E00038
E00038
E00038
E00038
E00038
E00038
E00038
E00070
700070
700070
7000F0
3800E0
3C01E0
1E03C0
1F0780
0FFF80
07FE00
01F800
ENDCHAR
STARTCHAR 0031
ENCODING 49
SWIDTH 540 0
DWIDTH 24 0
BBX 8 32 6 0
BITMAP
3F
7F
FF
07
07
07
07
07
07
07
07
07
07
07
07
07
07
07
07
07
07
07
07
07
07
07
07
07
07
07
07
07
ENDCHAR
STARTCHAR 0032
ENCODING 50
SWIDTH 540 0
DWIDTH 24 0
BBX 21 33 1 0
BITMAP
00FE00
03FF80
0FFFC0
1F03E0
1E01F0
3C00F0
380078
780038
700038
700038
000038
000038
000078
000070
0000F0
0000E0
0001E0
0003C0
000780
000F00
001E00
003C00
003800
007000
00F000
01E000
03C000
078000
0F0000
1E0000
3FFFF8
7FFFF8
FFFFF8
ENDCHAR
STARTCHAR 0033
ENCODING 51
SWIDTH 540 0
DWIDTH 24 0
BBX 21 34 1 -1
BITMAP
01F800
07FE00
0FFF00
1F0780
3C03C0
3801C0
7800E0
7000E0
0000E0
0000E0
0000E0
0001C0
0003C0
000F80
007F00
007F00
007F80
0007E0
0001E0
0000F0
000070
000078
000038
000038
000038
E00038
E00038
700070
7800F0
3C01E0
3E07C0
1FFF80
07FF00
01FC00
ENDCHAR
STARTCHAR 0034
ENCODING 52
SWIDTH 540 0
DWIDTH 24 0
BBX 21 33 1 0
BITMAP
000080
000180
000180
000380
000380
000780
000F80
000F80
001F80
003F80
003B80
007B80
00F380
00E380
01E380
01C380
038380
078380
070380
0F0380
1E0380
1C0380
3C0380
3FFFF8
7FFFF8
FFFFF8
000380
000380
000380
000380
000380
000380
000380
ENDCHAR
STARTCHAR 0035
ENCODING 53
SWIDTH 540 0
DWIDTH 24 0
BBX 20 33 2 -1
BITMAP
03FFE0
03FFE0
03FFE0
070000
070000
070000
070000
070000
0E0000
0E0000
0E0000
0FFC00
0FFF00
1FFF80
1E07C0
1003C0
0001E0
0000E0
000070
000070
000070
000070
000070
000070
E00070
E000E0
7000E0
7001E0
7803C0
3E0F80
1FFF00
0FFE00
03F800
ENDCHAR
STARTCHAR 0036
ENCODING 54
SWIDTH 540 0
DWIDTH 24 0
BBX 19 34 3 -1
BITMAP
000400
000E00
000E00
001C00
003C00
003800
007000
00F000
00E000
01C000
03C000
038000
070000
0F0000
0EF800
1FFE00
1FFF00
3E0F80
7807C0
7003C0
7001C0
E000E0
E000E0
E000E0
E000E0
E000E0
E000E0
7001C0
7003C0
780380
3E0F80
1FFF00
0FFC00
03F000
ENDCHAR
STARTCHAR 0037
ENCODING 55
SWIDTH 540 0
DWIDTH 24 0
BBX 19 33 3 -1
BITMAP
FFFFE0
FFFFC0
FFFFC0
000380
000380
000700
000700
000E00
000E00
001C00
001C00
003800
003800
007000
007000
00E000
00E000
01E000
01C000
03C000
038000
078000
070000
0F0000
0E0000
1E0000
1C0000
3C0000
380000
780000
700000
F00000
200000
ENDCHAR
STARTCHAR 0038
ENCODING 56
SWIDTH 540 0
DWIDTH 24 0
BBX 21 34 1 -1
BITMAP
00F800
03FE00
0FFF80
0F0780
1E03C0
1C01C0
3800E0
3800E0
3800E0
3800E0
3801E0
1C01C0
1E03C0
0F0780
07FF00
03FE00
07FF00
1F07C0
3C01E0
7800F0
700070
F00078
E00038
E00038
E00038
E00038
E00038
700070
7800F0
3C01E0
3E03E0
1FFFC0
0FFF00
01FC00
ENDCHAR
STARTCHAR 0039
ENCODING 57
SWIDTH 540 0
DWIDTH 24 0
BBX 19 34 2 -1
BITMAP
01F800
07FE00
1FFF00
3E0F80
380780
7803C0
7001C0
E000E0
E000E0
E000E0
E000E0
E000E0
E000E0
F001C0
7801C0
7803C0
3E0F80
1FFF80
0FFF00
03FE00
000E00
001C00
003800
003800
007000
00E000
00E000
01C000
038000
038000
070000
0E0000
0E0000
040000
ENDCHAR
STARTCHAR 003A
ENCODING 58
SWIDTH 270 0
DWIDTH 12 0
BBX 5 23 4 0
BITMAP
70
F8
F8
F8
70
00
00
00
00
00
00
00
00
00
00
00
00
00
70
F8
F8
F8
70
ENDCHAR
STARTCHAR 003B
ENCODING 59
SWIDTH 247 0
DWIDTH 11 0
BBX 6 27 2 -4
BITMAP
38
7C
7C
7C
38
00
00
00
00
00
00
00
00
00
00
00
00
10
1C
3C
38
38
70
70
60
E0
40
ENDCHAR
STARTCHAR 003C
ENCODING 60
SWIDTH 607 0
DWIDTH 27 0
BBX 23 23 2 4
BITMAP
000002
00000E
00007E
0001FC
0007F0
001FC0
00FE00
03F800
0FE000
7F8000
FC0000
F00000
FC0000
7F8000
0FE000
03F800
00FF00
003FC0
0007F0
0001FC
00007E
00000E
000002
ENDCHAR
STARTCHAR 003D
ENCODING 61
SWIDTH 607 0
DWIDTH 27 0
BBX 22 13 2 10
BITMAP
FFFFFC
FFFFFC
FFFFFC
000000
000000
000000
000000
000000
000000
000000
FFFFFC
FFFFFC
FFFFFC
ENDCHAR
STARTCHAR 003E
ENCODING 62
SWIDTH 607 0
DWIDTH 27 0
BBX 23 23 2 4
BITMAP
800000
E00000
FC0000
7F0000
1FC000
07F800
00FE00
003F80
000FE0
0003FC
00007E
00001E
00007E
0003FC
000FE0
003F80
01FE00
07F000
1FC000
7F0000
FC0000
E00000
800000
ENDCHAR
STARTCHAR 003F
ENCODING 63
SWIDTH 585 0
DWIDTH 26 0
BBX 18 33 4 0
BITMAP
03F800
0FFE00
3FFF00
3C0F80
780380
7003C0
E001C0
E001C0
E001C0
0003C0
000780
000F80
003F00
01FC00
07F000
0FC000
1F0000
3C0000
380000
380380
380380
3C0780
1E0F00
1FFE00
0FFC00
03F800
000000
000000
00E000
01F000
01F000
01F000
00E000
ENDCHAR
STARTCHAR 0040
ENCODING 64
SWIDTH 855 0
DWIDTH 38 0
BBX 32 33 3 0
BITMAP
0007F800
003FFF00
00F80780
03C001E0
07000070
0E000038
1C00001C
1800000C
30000006
30000006
6007C707
601FE703
E03FF703
C07C1F03
C0F00F03
C0E00703
C1C00703
C1C00703
C1C00E06
C1C00E06
E1C01E0C
61E01E0C
60F87E18
707FFE70
303FEFC0
180F8700
1C000018
0E000038
07000070
03C001E0
00F80780
003FFF00
0007F800
ENDCHAR
STARTCHAR 0041
ENCODING 65
SWIDTH 697 0
DWIDTH 31 0
BBX 29 32 1 0
BITMAP
00020000
00070000
00070000
000F8000
000F8000
000F8000
001DC000
001DC000
0038E000
0038E000
0078F000
00707000
00707000
00E03800
00E03800
01C01C00
01C01C00
03C01E00
03FFFE00
07FFFF00
07FFFF00
07000700
0E000380
0E000380
1C0001C0
1C0001C0
3C0001E0
380000E0
380000E0
70000070
70000070
E0000038
ENDCHAR
STARTCHAR 0042
ENCODING 66
SWIDTH 562 0
DWIDTH 25 0
BBX 18 32 4 0
BITMAP
FFC000
FFF000
FFF800
E07C00
E01C00
E00E00
E00E00
E00E00
E00E00
E00E00
E01C00
E03C00
E07800
FFF000
FFF000
FFFC00
E03F00
E00F00
E00780
E00380
E001C0
E001C0
E001C0
E001C0
E001C0
E003C0
E00380
E00780
E01F00
FFFE00
FFFC00
FFF000
ENDCHAR
STARTCHAR 0043
ENCODING 67
SWIDTH 810 0
DWIDTH 36 0
BBX 30 34 3 -1
BITMAP
000FF800
007FFF00
00FFFFC0
03F80FE0
07C001F8
0F80007C
1E000038
1C000010
3C000000
78000000
70000000
70000000
F0000000
E0000000
E0000000
E0000000
E0000000
E0000000
E0000000
E0000000
E0000000
70000000
70000000
70000000
78000000
3C000000
1C000010
1E00003C
0F80007C
07C001F8
03F80FE0
01FFFFC0
007FFF00
000FF800
ENDCHAR
STARTCHAR 0044
ENCODING 68
SWIDTH 742 0
DWIDTH 33 0
BBX 26 32 4 0
BITMAP
FFFC0000
FFFF8000
FFFFE000
E007F800
E000FC00
E0003C00
E0001E00
E0000F00
E0000700
E0000780
E0000380
E0000380
E00001C0
E00001C0
E00001C0
E00001C0
E00001C0
E00001C0
E00001C0
E00001C0
E00003C0
E0000380
E0000380
E0000780
E0000700
E0000F00
E0001E00
E0007C00
E003F800
FFFFF000
FFFFC000
FFFE0000
ENDCHAR
STARTCHAR 0045
ENCODING 69
SWIDTH 540 0
DWIDTH 24 0
BBX 18 32 4 0
BITMAP
FFFFC0
FFFFC0
FFFFC0
E00000
E00000
E00000
E00000
E00000
E00000
E00000
E00000
E00000
E00000
FFFFC0
FFFFC0
FFFFC0
E00000
E00000
E00000
E00000
E00000
E00000
E00000
E00000
E00000
E00000
E00000
E00000
E00000
FFFFC0
FFFFC0
FFFFC0
ENDCHAR
STARTCHAR 0046
ENCODING 70
SWIDTH 472 0
DWIDTH 21 0
BBX 15 32 4 0
BITMAP
FFFE
FFFE
FFFE
E000
E000
E000
E000
E000
E000
E000
E000
E000
E000
FFFE
FFFE
FFFE
E000
E000
E000
E000
E000
E000
E000
E000
E000
E000
E000
E000
E000
E000
E000
E000
ENDCHAR
STARTCHAR 0047
ENCODING 71
SWIDTH 855 0
DWIDTH 38 0
BBX 32 34 3 -1
BITMAP
000FF800
007FFF00
00FFFFC0
03F80FE0
07C001F8
0F8000FC
1E000038
1E000010
3C000000
38000000
70000000
70000000
70000000
E0000000
E0000000
E0000000
E0000000
E0000000
E0001FFF
E0001FFF
E0001FFF
70000007
70000007
7800000E
3800000E
3C00001E
1E00001C
1F00003C
0F800078
07E001F0
03F807E0
00FFFFC0
003FFF00
0007F800
ENDCHAR
STARTCHAR 0048
ENCODING 72
SWIDTH 675 0
DWIDTH 30 0
BBX 22 32 4 0
BITMAP
E0001C
E0001C
E0001C
E0001C
E0001C
E0001C
E0001C
E0001C
E0001C
E0001C
E0001C
E0001C
E0001C
E0001C
FFFFFC
FFFFFC
FFFFFC
E0001C
E0001C
E0001C
E0001C
E0001C
E0001C
E0001C
E0001C
E0001C
E0001C
E0001C
E0001C
E0001C
E0001C
E0001C
ENDCHAR
STARTCHAR 0049
ENCODING 73
SWIDTH 247 0
DWIDTH 11 0
BBX 3 32 4 0
BITMAP
E0
E0
E0
E0
E0
E0
E0
E0
E0
E0
E0
E0
E0
E0
E0
E0
E0
E0
E0
E0
E0
E0
E0
E0
E0
E0
E0
E0
E0
E0
E0
E0
ENDCHAR
STARTCHAR 004A
ENCODING 74
SWIDTH 472 0
DWIDTH 21 0
BBX 15 33 2 -1
BITMAP
000E
000E
000E
000E
000E
000E
000E
000E
000E
000E
000E
000E
000E
000E
000E
000E
000E
000E
000E
000E
000E
000E
000E
000E
000E
000E
000E
401E
701C
FC3C
7FF8
3FF0
07C0
ENDCHAR
STARTCHAR 004B
ENCODING 75
SWIDTH 585 0
DWIDTH 26 0
BBX 21 32 4 0
BITMAP
E000F0
E001E0
E007C0
E00F80
E01E00
E03C00
E07800
E0F000
E1E000
E3C000
EF8000
FF0000
FC0000
F80000
F80000
FC0000
FE0000
EF0000
E78000
E3C000
E1E000
E0F000
E07800
E03C00
E01E00
E00F00
E00780
E007C0
E003C0
E001E0
E000F0
E00078
ENDCHAR
STARTCHAR 004C
ENCODING 76
SWIDTH 450 0
DWIDTH 20 0
BBX 15 32 4 0
BITMAP
E000
E000
E000
E000
E000
E000
E000
E000
E000
E000
E000
E000
E000
E000
E000
E000
E000
E000
E000
E000
E000
E000
E000
E000
E000
E000
E000
E000
E000
FFFE
FFFE
FFFE
ENDCHAR
STARTCHAR 004D
ENCODING 77
SWIDTH 967 0
DWIDTH 43 0
BBX 37 32 3 0
BITMAP
0C00000180
0C00000180
0E00000380
0E00000380
0F00000780
0F00000780
0F80000FC0
1F80000FC0
1FC0001DC0
1DC0001DC0
1DE00039C0
1CE00039C0
1CF00071C0
1C700071E0
3C7800E1E0
383800E0E0
383C01C0E0
381C01C0E0
381E0380E0
380E0380F0
380F0700F0
78070700F0
70078E0070
70038E0070
7003DC0070
7001DC0070
7001F80078
7000F80078
F000F00078
E000700038
E000600038
E000200038
ENDCHAR
STARTCHAR 004E
ENCODING 78
SWIDTH 742 0
DWIDTH 33 0
BBX 25 32 4 0
BITMAP
80000380
C0000380
E0000380
F0000380
F8000380
F8000380
FC000380
FE000380
EF000380
E7800380
E3C00380
E1E00380
E0E00380
E0700380
E0780380
E03C0380
E01E0380
E00F0380
E0078380
E003C380
E001C380
E001E380
E000F380
E0007B80
E0003F80
E0001F80
E0000F80
E0000F80
E0000780
E0000380
E0000180
E0000080
ENDCHAR
STARTCHAR 004F
ENCODING 79
SWIDTH 855 0
DWIDTH 38 0
BBX 32 34 3 -1
BITMAP
000FF000
007FFE00
00FFFF00
03F81FC0
07C003E0
0F8001F0
1E000078
1C000038
3C00003C
3800001C
7000000E
7000000E
7000000E
E0000007
E0000007
E0000007
E0000007
E0000007
E0000007
E0000007
E0000007
F000000E
7000000E
7000000E
3800001C
3C00003C
1C000038
1E000078
0F0000F0
07C003E0
03F00FC0
01FFFF80
007FFE00
000FF000
ENDCHAR
STARTCHAR 0050
ENCODING 80
SWIDTH 585 0
DWIDTH 26 0
BBX 19 32 4 0
BITMAP
FFF800
FFFE00
FFFF80
E007C0
E003C0
E001E0
E000E0
E000E0
E000E0
E000E0
E000E0
E001E0
E003C0
E007C0
FFFF80
FFFE00
FFF800
E00000
E00000
E00000
E00000
E00000
E00000
E00000
E00000
E00000
E00000
E00000
E00000
E00000
E00000
E00000
ENDCHAR
STARTCHAR 0051
ENCODING 81
SWIDTH 855 0
DWIDTH 38 0
BBX 32 36 3 -3
BITMAP
000FF000
007FFE00
00FFFF00
03F81FC0
07C003E0
0F8001F0
1E000078
1C000038
3C00003C
3800001C
7000000E
7000000E
7000000E
E0000007
E0000007
E0000007
E0000007
E0000007
E0000007
E0000007
E000E007
F000700E
7000780E
70003C0E
78001E1C
38000E3C
1C000738
1E0007F8
0F0003F0
07C003E0
03F01FF0
01FFFF70
007FFC38
000FF03C
0000001E
0000000F
ENDCHAR
STARTCHAR 0052
ENCODING 82
SWIDTH 607 0
DWIDTH 27 0
BBX 20 32 4 0
BITMAP
FFFC00
FFFF00
FFFFC0
E007C0
E001E0
E000F0
E00070
E00070
E00070
E00070
E00070
E000E0
E001E0
E007C0
FFFF80
FFFF00
FFFC00
E38000
E3C000
E1E000
E0E000
E07000
E07800
E03C00
E01C00
E00E00
E00F00
E00780
E00380
E001C0
E001E0
E000F0
ENDCHAR
STARTCHAR 0053
ENCODING 83
SWIDTH 495 0
DWIDTH 22 0
BBX 18 34 1 -1
BITMAP
01F000
07FE00
0FFF00
1E0F80
1C07C0
380380
380100
380000
380000
380000
1C0000
1E0000
0F0000
078000
03E000
01F000
00F800
007C00
001E00
000F00
000780
000380
0003C0
0001C0
0001C0
0001C0
2001C0
F001C0
700380
780780
3E0F00
1FFE00
0FFC00
03F000
ENDCHAR
STARTCHAR 0054
ENCODING 84
SWIDTH 405 0
DWIDTH 18 0
BBX 17 32 0 0
BITMAP
FFFF80
FFFF80
FFFF80
01C000
01C000
01C000
01C000
01C000
01C000
01C000
01C000
01C000
01C000
01C000
01C000
01C000
01C000
01C000
01C000
01C000
01C000
01C000
01C000
01C000
01C000
01C000
01C000
01C000
01C000
01C000
01C000
01C000
ENDCHAR
STARTCHAR 0055
ENCODING 85
SWIDTH 652 0
DWIDTH 29 0
BBX 21 33 4 -1
BITMAP
E00038
E00038
E00038
E00038
E00038
E00038
E00038
E00038
E00038
E00038
E00038
E00038
E00038
E00038
E00038
E00038
E00038
E00038
E00038
E00038
E00038
E00038
E00038
E00038
E00038
F00070
700070
7800F0
3C01E0
3F07C0
1FFFC0
07FF00
01FC00
ENDCHAR
STARTCHAR 0056
ENCODING 86
SWIDTH 697 0
DWIDTH 31 0
BBX 29 32 1 0
BITMAP
E0000038
70000070
70000070
38000060
380000E0
3C0000E0
1C0001C0
1E0001C0
0E000380
0E000380
07000700
07000700
07800700
03800E00
03C00E00
01C01C00
01E01C00
00E03800
00F03800
00707000
00707000
0078F000
0038E000
003CE000
001DC000
001FC000
000F8000
000F8000
000F8000
00070000
00070000
00020000
ENDCHAR
STARTCHAR 0057
ENCODING 87
SWIDTH 922 0
DWIDTH 41 0
BBX 37 32 2 0
BITMAP
E000200038
F000300038
7000700070
7000700070
7000780070
7800F800F0
3800F800E0
3800FC00E0
3801DC00E0
1C01DE01C0
1C039E01C0
1C038E01C0
1C038F01C0
0E070F0380
0E07070380
0E07078380
0F0E038780
070E03C700
071C03C700
071C01C700
079C01EE00
03B801EE00
03B800EE00
03B800FE00
01F0007C00
01F0007C00
01F0007C00
01E0003C00
00E0003800
00E0003800
00C0001800
00C0001800
ENDCHAR
STARTCHAR 0058
ENCODING 88
SWIDTH 607 0
DWIDTH 27 0
BBX 22 32 2 0
BITMAP
E0001C
F0003C
700038
380070
3C00F0
1C00E0
1E01E0
0E01C0
070380
078780
038700
01CE00
01FE00
00FC00
00FC00
007800
007800
00FC00
00FC00
01FE00
01CE00
038700
078780
070380
0E01C0
1E01E0
1C00E0
3C00F0
380070
700038
F0003C
E0001C
ENDCHAR
STARTCHAR 0059
ENCODING 89
SWIDTH 562 0
DWIDTH 25 0
BBX 23 32 1 0
BITMAP
F0000E
70001C
78003C
380038
3C0070
1E00F0
0E00E0
0F01C0
0781C0
038380
03C780
01C700
01EE00
00FE00
007C00
007C00
003800
003800
003800
003800
003800
003800
003800
003800
003800
003800
003800
003800
003800
003800
003800
003800
ENDCHAR
STARTCHAR 005A
ENCODING 90
SWIDTH 472 0
DWIDTH 21 0
BBX 17 32 1 0
BITMAP
7FFF80
7FFF00
7FFF00
000600
000E00
000E00
001C00
001C00
001800
003800
003000
007000
006000
00E000
00E000
01C000
01C000
038000
038000
030000
070000
060000
0E0000
0C0000
1C0000
1C0000
380000
380000
300000
7FFF80
7FFF80
FFFF80
ENDCHAR
STARTCHAR 005B
ENCODING 91
SWIDTH 337 0
DWIDTH 15 0
BBX 7 41 6 -9
BITMAP
FE
FE
FE
E0
E0
E0
E0
E0
E0
E0
E0
E0
E0
E0
E0
E0
E0
E0
E0
E0
E0
E0
E0
E0
E0
E0
E0
E0
E0
E0
E0
E0
E0
E0
E0
E0
E0
E0
FE
FE
FE
ENDCHAR
STARTCHAR 005C
ENCODING 92
SWIDTH 607 0
DWIDTH 27 0
BBX 25 37 1 -4
BITMAP
F0000000
70000000
78000000
38000000
1C000000
1E000000
0E000000
0F000000
07000000
03800000
03C00000
01C00000
01E00000
00E00000
00F00000
00700000
00380000
003C0000
001C0000
001E0000
000E0000
00070000
00078000
00038000
0003C000
0001C000
0001E000
0000E000
00007000
00007800
00003800
00003C00
00001C00
00000E00
00000F00
00000700
00000780
ENDCHAR
STARTCHAR 005D
ENCODING 93
SWIDTH 337 0
DWIDTH 15 0
BBX 7 41 2 -9
BITMAP
FE
FE
FE
0E
0E
0E
0E
0E
0E
0E
0E
0E
0E
0E
0E
0E
0E
0E
0E
0E
0E
0E
0E
0E
0E
0E
0E
0E
0E
0E
0E
0E
0E
0E
0E
0E
0E
0E
FE
FE
FE
ENDCHAR
STARTCHAR 005E
ENCODING 94
SWIDTH 652 0
DWIDTH 29 0
BBX 24 24 2 8
BITMAP
001800
003C00
003C00
007E00
007E00
00FF00
00E700
00E700
01C380
01C380
0381C0
0381C0
0781E0
0700E0
0F00F0
0E0070
1E0078
1C0038
1C0038
38001C
38001C
70000E
70000E
E00007
ENDCHAR
STARTCHAR 005F
ENCODING 95
SWIDTH 495 0
DWIDTH 22 0
BBX 23 3 -1 -6
BITMAP
FFFFFE
FFFFFE
FFFFFE
ENDCHAR
STARTCHAR 0060
ENCODING 96
SWIDTH 382 0
DWIDTH 17 0
BBX 9 7 2 28
BITMAP
F800
7800
3C00
1E00
0E00
0700
0380
ENDCHAR
STARTCHAR 0061
ENCODING 97
SWIDTH 675 0
DWIDTH 30 0
BBX 24 23 2 0
BITMAP
00FF07
03FFC7
0FFFE7
1F81F7
3E007F
3C003F
78001F
70000F
F0000F
E00007
E00007
E00007
E00007
E00007
F0000F
70000F
78001F
3C001F
3E007F
1F81FF
0FFFF7
03FFC7
00FF07
ENDCHAR
STARTCHAR 0062
ENCODING 98
SWIDTH 675 0
DWIDTH 30 0
BBX 24 33 4 0
BITMAP
E00000
E00000
E00000
E00000
E00000
E00000
E00000
E00000
E00000
E00000
E07F00
E1FFC0
E7FFF0
EF81F8
FE007C
FC003C
F8001E
F0000E
F0000F
E00007
E00007
E00007
E00007
E00007
E0000F
F0000E
F8001E
FC003C
FE007C
EF81F8
E7FFF0
E3FFC0
E0FF00
ENDCHAR
STARTCHAR 0063
ENCODING 99
SWIDTH 630 0
DWIDTH 28 0
BBX 24 23 2 0
BITMAP
007F80
01FFF0
07FFF8
0FC07C
1E001E
3C000F
780004
700000
F00000
E00000
E00000
E00000
E00000
E00000
F00000
700000
780004
3C000F
3E001E
1F80FC
07FFF8
03FFF0
007F80
ENDCHAR
STARTCHAR 0064
ENCODING 100
SWIDTH 675 0
DWIDTH 30 0
BBX 24 33 2 0
BITMAP
000007
000007
000007
000007
000007
000007
000007
000007
000007
000007
00FE07
03FF87
0FFFE7
1F81F7
3E007F
3C003F
78001F
70000F
F0000F
E00007
E00007
E00007
E00007
E00007
F0000F
70000F
78001F
3C001F
3E007F
1F81FF
0FFFF7
03FFC7
00FF07
ENDCHAR
STARTCHAR 0065
ENCODING 101
SWIDTH 652 0
DWIDTH 29 0
BBX 25 23 2 0
BITMAP
007F0000
03FFE000
07FFF000
1F80FC00
1E003C00
3C000E00
78000700
70000700
F0000300
FFFFFF80
FFFFFF80
FFFFFF80
E0000000
E0000000
E0000000
70000000
70000400
38000F00
3E001E00
1F80FC00
0FFFF800
03FFE000
00FF8000
ENDCHAR
STARTCHAR 0066
ENCODING 102
SWIDTH 315 0
DWIDTH 14 0
BBX 11 33 2 0
BITMAP
07E0
0FE0
1FE0
1E20
1C00
1C00
1C00
1C00
1C00
1C00
FFE0
FFE0
FFE0
1C00
1C00
1C00
1C00
1C00
1C00
1C00
1C00
1C00
1C00
1C00
1C00
1C00
1C00
1C00
1C00
1C00
1C00
1C00
1C00
ENDCHAR
STARTCHAR 0067
ENCODING 103
SWIDTH 675 0
DWIDTH 30 0
BBX 24 32 2 -9
BITMAP
00FF07
03FFC7
07FFE7
1F81F7
3E007F
3C001F
78001F
70000F
F0000F
E00007
E00007
E00007
E00007
E00007
E00007
70000F
70000F
38001F
3E007F
1F81F7
0FFFE7
03FFC7
00FE07
000007
E0000E
70000E
78001E
3C003C
1F00F8
0FFFF0
07FFE0
00FF00
ENDCHAR
STARTCHAR 0068
ENCODING 104
SWIDTH 607 0
DWIDTH 27 0
BBX 19 33 4 0
BITMAP
E00000
E00000
E00000
E00000
E00000
E00000
E00000
E00000
E00000
E00000
E0FC00
E3FF00
E7FF80
EF0780
FC03C0
F801C0
F001E0
F000E0
F000E0
E000E0
E000E0
E000E0
E000E0
E000E0
E000E0
E000E0
E000E0
E000E0
E000E0
E000E0
E000E0
E000E0
E000E0
ENDCHAR
STARTCHAR 0069
ENCODING 105
SWIDTH 202 0
DWIDTH 9 0
BBX 5 33 2 0
BITMAP
70
F8
F8
F8
70
00
00
00
00
00
70
70
70
70
70
70
70
70
70
70
70
70
70
70
70
70
70
70
70
70
70
70
70
ENDCHAR
STARTCHAR 006A
ENCODING 106
SWIDTH 202 0
DWIDTH 9 0
BBX 8 42 -1 -9
BITMAP
0E
1F
1F
1F
0E
00
00
00
00
00
0E
0E
0E
0E
0E
0E
0E
0E
0E
0E
0E
0E
0E
0E
0E
0E
0E
0E
0E
0E
0E
0E
0E
0E
0E
0E
0E
0E
1E
FE
FC
78
ENDCHAR
STARTCHAR 006B
ENCODING 107
SWIDTH 495 0
DWIDTH 22 0
BBX 17 33 4 0
BITMAP
E00000
E00000
E00000
E00000
E00000
E00000
E00000
E00000
E00000
E00000
E00F00
E01E00
E03C00
E07800
E0F000
E1E000
E3C000
E78000
EF0000
FE0000
FC0000
FC0000
FE0000
EF0000
E78000
E3C000
E1E000
E0F000
E07800
E03C00
E01E00
E00F00
E00780
ENDCHAR
STARTCHAR 006C
ENCODING 108
SWIDTH 247 0
DWIDTH 11 0
BBX 3 33 4 0
BITMAP
E0
E0
E0
E0
E0
E0
E0
E0
E0
E0
E0
E0
E0
E0
E0
E0
E0
E0
E0
E0
E0
E0
E0
E0
E0
E0
E0
E0
E0
E0
E0
E0
E0
ENDCHAR
STARTCHAR 006D
ENCODING 109
SWIDTH 967 0
DWIDTH 43 0
BBX 35 23 4 0
BITMAP
E1FC00FC00
E7FF03FF00
EFFF87FF80
FF07CF07C0
FC03DC03C0
F801D801C0
F000F000E0
F000F000E0
F000F000E0
E000E000E0
E000E000E0
E000E000E0
E000E000E0
E000E000E0
E000E000E0
E000E000E0
E000E000E0
E000E000E0
E000E000E0
E000E000E0
E000E000E0
E000E000E0
E000E000E0
ENDCHAR
STARTCHAR 006E
ENCODING 110
SWIDTH 607 0
DWIDTH 27 0
BBX 19 23 4 0
BITMAP
E0FC00
E3FF00
EFFF80
FF0780
FC01C0
F800C0
F800E0
F000E0
F000E0
E000E0
E000E0
E000E0
E000E0
E000E0
E000E0
E000E0
E000E0
E000E0
E000E0
E000E0
E000E0
E000E0
E000E0
ENDCHAR
STARTCHAR 006F
ENCODING 111
SWIDTH 652 0
DWIDTH 29 0
BBX 25 23 2 0
BITMAP
007F0000
03FFE000
07FFF000
1F80FC00
1E003C00
3C001E00
78000F00
70000700
F0000780
E0000380
E0000380
E0000380
E0000380
E0000380
F0000780
70000700
78000F00
3C001E00
3E003E00
1F80FC00
07FFF000
03FFE000
007F0000
ENDCHAR
STARTCHAR 0070
ENCODING 112
SWIDTH 675 0
DWIDTH 30 0
BBX 24 32 4 -9
BITMAP
E0FF00
E3FFC0
E7FFE0
EF81F8
FE007C
FC003C
F8001E
F0000E
F0000F
E00007
E00007
E00007
E00007
E00007
E0000F
F0000E
F8001E
F8003C
FE007C
EF81F8
E7FFF0
E1FFC0
E07F00
E00000
E00000
E00000
E00000
E00000
E00000
E00000
E00000
E00000
ENDCHAR
STARTCHAR 0071
ENCODING 113
SWIDTH 675 0
DWIDTH 30 0
BBX 24 32 2 -9
BITMAP
00FF07
03FFC7
0FFFE7
1F81F7
3E007F
3C003F
78001F
70000F
F0000F
E00007
E00007
E00007
E00007
E00007
F0000F
70000F
78001F
3C001F
3E007F
1F81F7
0FFFE7
03FF87
00FE07
000007
000007
000007
000007
000007
000007
000007
000007
000007
ENDCHAR
STARTCHAR 0072
ENCODING 114
SWIDTH 292 0
DWIDTH 13 0
BBX 12 23 2 0
BITMAP
E1E0
E7F0
EFE0
FE00
F800
F800
F000
F000
E000
E000
E000
E000
E000
E000
E000
E000
E000
E000
E000
E000
E000
E000
E000
ENDCHAR
STARTCHAR 0073
ENCODING 115
SWIDTH 382 0
DWIDTH 17 0
BBX 14 23 1 0
BITMAP
07C0
1FE0
3FF8
7C7C
701C
7008
7000
7800
3C00
3E00
1F80
07E0
01F0
0078
003C
001C
001C
401C
603C
F878
7FF8
3FF0
0FC0
ENDCHAR
STARTCHAR 0074
ENCODING 116
SWIDTH 315 0
DWIDTH 14 0
BBX 11 33 2 0
BITMAP
0E00
0E00
0E00
0E00
0E00
0E00
0E00
0E00
0E00
0E00
FFE0
FFE0
FFE0
0E00
0E00
0E00
0E00
0E00
0E00
0E00
0E00
0E00
0E00
0E00
0E00
0E00
0E00
0E00
0E00
0E00
0E00
0E00
0E00
ENDCHAR
STARTCHAR 0075
ENCODING 117
SWIDTH 607 0
DWIDTH 27 0
BBX 19 23 4 0
BITMAP
E000E0
E000E0
E000E0
E000E0
E000E0
E000E0
E000E0
E000E0
E000E0
E000E0
E000E0
E000E0
E000E0
E000E0
E000E0
E000E0
7001C0
7001C0
7803C0
3E0F80
1FFF00
0FFE00
03F800
ENDCHAR
STARTCHAR 0076
ENCODING 118
SWIDTH 585 0
DWIDTH 26 0
BBX 23 23 1 0
BITMAP
E0000E
F0001C
70001C
780038
380038
3C0070
1C0070
1E00E0
0E00E0
0F01C0
0701C0
078380
038380
03C700
01C700
01EE00
00EE00
00FC00
007C00
007800
003800
003000
001000
ENDCHAR
STARTCHAR 0077
ENCODING 119
SWIDTH 855 0
DWIDTH 38 0
BBX 37 23 0 0
BITMAP
E000200038
F000700070
7000700070
7800F800E0
3800F800E0
3C00F801E0
1C01DC01C0
1C01DC01C0
1E038E0380
0E038E0380
0F07070700
0707070700
078F070E00
038E038E00
038E038E00
01DC01DC00
01DC01DC00
01F800F800
00F800F800
00F0007000
0070007000
0070006000
0020002000
ENDCHAR
STARTCHAR 0078
ENCODING 120
SWIDTH 472 0
DWIDTH 21 0
BBX 21 23 0 0
BITMAP
7800F0
3C01E0
1C01C0
0E0380
0F0780
070700
038E00
03DE00
01FC00
00F800
007000
00F800
00F800
01DC00
03DE00
078F00
070700
0E0380
1E03C0
1C01E0
3800E0
7800F0
F00078
ENDCHAR
STARTCHAR 0079
ENCODING 121
SWIDTH 517 0
DWIDTH 23 0
BBX 22 32 0 -9
BITMAP
E0001C
F00038
700038
780070
380070
3C00F0
1C00E0
1E01E0
1E01C0
0E01C0
0F0380
070380
078780
038700
03CF00
01CE00
01EE00
00FC00
00FC00
00F800
007800
007800
007000
007000
00E000
00E000
01C000
01C000
03C000
038000
078000
070000
ENDCHAR
STARTCHAR 007A
ENCODING 122
SWIDTH 427 0
DWIDTH 19 0
BBX 19 23 0 0
BITMAP
7FFFE0
7FFFC0
7FFF80
000780
000F00
000E00
001E00
003C00
003800
007800
00F000
00E000
01E000
03C000
038000
078000
0F0000
0E0000
1E0000
3C0000
3FFFE0
7FFFE0
FFFFE0
ENDCHAR
STARTCHAR 007B
ENCODING 123
SWIDTH 337 0
DWIDTH 15 0
BBX 11 41 2 -9
BITMAP
01E0
03E0
07E0
0700
0E00
0E00
0E00
0E00
0E00
0E00
0E00
0E00
0E00
0E00
0E00
0E00
0C00
1C00
3800
F000
E000
F000
3800
1C00
1C00
0E00
0E00
0E00
0E00
0E00
0E00
0E00
0E00
0E00
0E00
0E00
0E00
0700
07E0
03E0
01E0
ENDCHAR
STARTCHAR 007C
ENCODING 124
SWIDTH 675 0
DWIDTH 30 0
BBX 3 42 13 -9
BITMAP
E0
E0
E0
E0
E0
E0
E0
E0
E0
E0
E0
E0
E0
E0
E0
E0
E0
E0
E0
E0
E0
E0
E0
E0
E0
E0
E0
E0
E0
E0
E0
E0
E0
E0
E0
E0
E0
E0
E0
E0
E0
E0
ENDCHAR
STARTCHAR 007D
ENCODING 125
SWIDTH 292 0
DWIDTH 13 0
BBX 11 41 1 -9
BITMAP
F000
F800
FC00
1C00
0E00
0E00
0E00
0E00
0E00
0E00
0E00
0E00
0E00
0E00
0E00
0E00
0700
0700
0380
01E0
00E0
01E0
0380
0700
0600
0E00
0E00
0E00
0E00
0E00
0E00
0E00
0E00
0E00
0E00
0E00
0E00
1C00
FC00
F800
F000
ENDCHAR
STARTCHAR 007E
ENCODING 126
SWIDTH 607 0
DWIDTH 27 0
BBX 22 6 2 13
BITMAP
0F0004
3FE00C
7FFC3C
F0FFF8
C01FF0
8003C0
ENDCHAR
STARTCHAR 00A0
ENCODING 160
SWIDTH 270 0
DWIDTH 12 0
BBX 0 0 0 0
BITMAP
ENDCHAR
STARTCHAR 00A1
ENCODING 161
SWIDTH 292 0
DWIDTH 13 0
BBX 5 32 4 -9
BITMAP
70
F8
F8
F8
70
00
00
00
70
70
70
70
70
70
70
70
70
70
70
70
70
70
70
70
70
70
70
70
70
70
70
70
ENDCHAR
STARTCHAR 00A2
ENCODING 162
SWIDTH 540 0
DWIDTH 24 0
BBX 21 34 2 -6
BITMAP
000020
000038
000070
000070
0000E0
00FFE0
03FFC0
0FFFE0
1F03F8
3C07F0
380730
700F00
700E00
E01E00
E01C00
E03800
E03800
E07000
E07000
E0E000
71E000
79C000
3FC040
3F80E0
1F83F0
0FFFE0
0FFF80
0EFE00
1E0000
1C0000
380000
380000
700000
100000
ENDCHAR
STARTCHAR 00A3
ENCODING 163
SWIDTH 540 0
DWIDTH 24 0
BBX 22 34 1 -1
BITMAP
003E00
00FF80
01FFC0
03C1E0
0380E0
0700F0
070070
070070
070000
070000
070000
038000
038000
038000
038000
7FFF80
7FFF80
7FFF80
01C000
00E000
00E000
00E000
00E000
00E000
00E000
1EE000
7FE01C
7FE01C
E3E01C
E1F83C
E3FE38
FF9FF8
7F0FF0
3E03E0
ENDCHAR
STARTCHAR 00A4
ENCODING 164
SWIDTH 540 0
DWIDTH 24 0
BBX 22 22 1 1
BITMAP
40FC08
E3FF1C
FFFFFC
7F03F8
3C00F0
780070
700038
700038
E0001C
E0001C
E0001C
E0001C
E0001C
E0001C
700038
700038
380070
3C00F0
7F03F0
FFFFF8
E3FF1C
40FC08
ENDCHAR
STARTCHAR 00A5
ENCODING 165
SWIDTH 540 0
DWIDTH 24 0
BBX 21 32 1 0
BITMAP
F00078
700070
7800F0
3800E0
3C01E0
1C01C0
1E03C0
0E0380
070700
070700
038E00
038E00
01DC00
01FC00
00F800
00F800
7FFFF0
7FFFF0
7FFFF0
007000
007000
007000
7FFFF0
7FFFF0
7FFFF0
007000
007000
007000
007000
007000
007000
007000
ENDCHAR
STARTCHAR 00A6
ENCODING 166
SWIDTH 675 0
DWIDTH 30 0
BBX 3 42 13 -9
BITMAP
E0
E0
E0
E0
E0
E0
E0
E0
E0
E0
E0
E0
E0
E0
E0
E0
E0
C0
00
00
60
E0
E0
E0
E0
E0
E0
E0
E0
E0
E0
E0
E0
E0
E0
E0
E0
E0
E0
E0
E0
E0
ENDCHAR
STARTCHAR 00A7
ENCODING 167
SWIDTH 607 0
DWIDTH 27 0
BBX 19 42 2 -9
BITMAP
03F800
0FFE00
1FFF00
3E0F80
780380
7001C0
7001C0
700000
700000
380000
3C0000
1F0000
0F8000
0FE000
1FF800
7C7C00
701F00
E00780
E003C0
E001C0
E000E0
F000E0
7000E0
7C01E0
3E01C0
1F8780
07FF00
03FE00
00FC00
007E00
001E00
000F00
000700
000380
000380
000380
E00380
F00780
7C1F00
3FFE00
1FFC00
07F000
ENDCHAR
STARTCHAR 00A8
ENCODING 168
SWIDTH 360 0
DWIDTH 16 0
BBX 14 5 1 28
BITMAP
7038
F87C
F87C
F87C
7038
ENDCHAR
STARTCHAR 00A9
ENCODING 169
SWIDTH 742 0
DWIDTH 33 0
BBX 34 33 -1 0
BITMAP
0007F80000
003FFF0000
00FFFFC000
01F807E000
07E001F800
0F80007C00
1F00003E00
1E01F01E00
3C07FC0F00
381FFE0700
701E0F0380
703C070380
F038038380
E0700381C0
E0700001C0
E0700001C0
E0700001C0
E0700001C0
E0700001C0
E0700381C0
F0380383C0
703C070380
703E0F0380
381FFE0700
3C0FFC0F00
1E03F01E00
1F00003E00
0F80007C00
07E001F800
01F807E000
00FFFFC000
003FFF0000
0007F80000
ENDCHAR
STARTCHAR 00AA
ENCODING 170
SWIDTH 360 0
DWIDTH 16 0
BBX 13 15 1 17
BITMAP
0F38
3FF8
7FF8
78F8
F078
E038
E038
E038
E038
E038
F078
78F8
7FF8
3FF8
0F38
ENDCHAR
STARTCHAR 00AB
ENCODING 171
SWIDTH 427 0
DWIDTH 19 0
BBX 18 23 0 0
BITMAP
0701C0
0E0380
0E0380
1E0780
1C0700
1C0700
380E00
380E00
701C00
701C00
E03800
E03800
F03C00
701C00
781C00
380E00
380E00
3C0F00
1C0700
1E0780
0E0380
0F03C0
0701C0
ENDCHAR
STARTCHAR 00AC
ENCODING 172
SWIDTH 607 0
DWIDTH 27 0
BBX 22 12 2 10
BITMAP
FFFFFC
FFFFFC
FFFFFC
00001C
00001C
00001C
00001C
00001C
00001C
00001C
00001C
00001C
ENDCHAR
STARTCHAR 00AD
ENCODING 173
SWIDTH 337 0
DWIDTH 15 0
BBX 13 3 1 11
BITMAP
FFF8
FFF8
FFF8
ENDCHAR
STARTCHAR 00AE
ENCODING 174
SWIDTH 742 0
DWIDTH 33 0
BBX 34 33 -1 0
BITMAP
0007F80000
003FFF0000
00FFFFC000
01F807E000
07E001F800
0F80007C00
1F00003C00
1E00001E00
3C1FFC0F00
381FFE0700
701FFF0780
701C0F0380
F01C070380
E01C0701C0
E01C0701C0
E01C0E01C0
E01FFC01C0
E01FFE01C0
E01FFF01C0
E01C0F01C0
F01C0703C0
701C070380
701C070380
381C070700
3C1C078F00
1E00001E00
1F00003E00
0F80007C00
07E001F800
01F807E000
00FFFFC000
003FFF0000
0007F80000
ENDCHAR
STARTCHAR 00AF
ENCODING 175
SWIDTH 495 0
DWIDTH 22 0
BBX 24 2 -1 35
BITMAP
FFFFFF
FFFFFF
ENDCHAR
STARTCHAR 00B0
ENCODING 176
SWIDTH 405 0
DWIDTH 18 0
BBX 16 15 1 18
BITMAP
07E0
1FF8
3FFC
7C3E
700E
F00F
E007
E007
E007
F00F
700E
7C3E
3FFC
1FF8
07E0
ENDCHAR
STARTCHAR 00B1
ENCODING 177
SWIDTH 517 0
DWIDTH 23 0
BBX 21 28 1 1
BITMAP
007000
007000
007000
007000
007000
007000
007000
007000
007000
FFFFF8
FFFFF8
FFFFF8
007000
007000
007000
007000
007000
007000
007000
007000
007000
000000
000000
000000
000000
FFFFF8
FFFFF8
FFFFF8
ENDCHAR
STARTCHAR 00B2
ENCODING 178
SWIDTH 337 0
DWIDTH 15 0
BBX 13 16 1 16
BITMAP
0FC0
3FE0
7FF0
7878
F038
E038
E030
0070
01E0
03C0
0700
0E00
1C00
3FF8
7FF8
FFF8
ENDCHAR
STARTCHAR 00B3
ENCODING 179
SWIDTH 337 0
DWIDTH 15 0
BBX 13 16 1 16
BITMAP
0F80
3FC0
7FE0
78F0
F070
E070
00E0
07C0
07E0
0070
E038
F038
7878
7FF0
3FE0
0FC0
ENDCHAR
STARTCHAR 00B4
ENCODING 180
SWIDTH 382 0
DWIDTH 17 0
BBX 9 7 5 28
BITMAP
0F80
0F00
1E00
3C00
3800
7000
E000
ENDCHAR
STARTCHAR 00B5
ENCODING 181
SWIDTH 562 0
DWIDTH 25 0
BBX 17 32 4 -9
BITMAP
E00380
E00380
E00380
E00380
E00380
E00380
E00380
E00380
E00380
E00380
E00380
E00380
E00380
E00380
E00380
E00380
F00780
F00780
F80F80
FC1F80
FFFF80
EFFB80
E3F380
E00000
E00000
E00000
E00000
E00000
E00000
E00000
E00000
E00000
ENDCHAR
STARTCHAR 00B6
ENCODING 182
SWIDTH 585 0
DWIDTH 26 0
BBX 22 38 1 -5
BITMAP
03FFFC
0FFFFC
3FF070
3FF070
7FF070
7FF070
FFF070
FFF070
FFF070
FFF070
FFF070
FFF070
7FF070
7FF070
7FF070
3FF070
1FF070
07F070
007070
007070
007070
007070
007070
007070
007070
007070
007070
007070
007070
007070
007070
007070
007070
007070
007070
007070
007070
007070
ENDCHAR
STARTCHAR 00B7
ENCODING 183
SWIDTH 337 0
DWIDTH 15 0
BBX 5 5 11 14
BITMAP
70
F8
F8
F8
70
ENDCHAR
STARTCHAR 00B8
ENCODING 184
SWIDTH 337 0
DWIDTH 15 0
BBX 9 9 3 -9
BITMAP
0C00
0C00
0C00
0F00
1F80
0380
0380
FF00
7E00
ENDCHAR
STARTCHAR 00B9
ENCODING 185
SWIDTH 337 0
DWIDTH 15 0
BBX 7 16 3 16
BITMAP
3E
7E
FE
0E
0E
0E
0E
0E
0E
0E
0E
0E
0E
0E
0E
0E
ENDCHAR
STARTCHAR 00BA
ENCODING 186
SWIDTH 360 0
DWIDTH 16 0
BBX 14 15 1 17
BITMAP
0FC0
1FE0
3FF0
7878
7038
E01C
E01C
E01C
E01C
E01C
7038
7878
3FF0
1FE0
0FC0
ENDCHAR
STARTCHAR 00BB
ENCODING 187
SWIDTH 427 0
DWIDTH 19 0
BBX 18 23 0 0
BITMAP
E03800
F03C00
701C00
781E00
380E00
3C0F00
1C0700
1C0700
1E0780
0E0380
0F03C0
0701C0
0701C0
0E0380
0E0380
1C0700
1C0700
380E00
380E00
781E00
701C00
701C00
E03800
ENDCHAR
STARTCHAR 00BC
ENCODING 188
SWIDTH 832 0
DWIDTH 37 0
BBX 33 33 2 0
BITMAP
0000003800
3E00003000
7E00006000
FE0000E000
0E0000C000
0E0001C000
0E00038000
0E00030000
0E00070000
0E00060000
0E000E0000
0E001C0000
0E00180000
0E00380000
0E00700000
0E00600000
0E00E00000
0000C00000
0001C00200
0003800600
0003000E00
0007001E00
000E003E00
000C007E00
001C00EE00
001801CE00
0038038E00
007007FF80
00600FFF80
00E01FFF80
00C0000E00
0180000E00
0380000E00
ENDCHAR
STARTCHAR 00BD
ENCODING 189
SWIDTH 832 0
DWIDTH 37 0
BBX 32 33 2 0
BITMAP
000001C0
3E000180
7E000300
FE000700
0E000600
0E000E00
0E001C00
0E001800
0E003800
0E003000
0E007000
0E00E000
0E00C000
0E01C000
0E038000
0E030000
0E070000
000601F8
000E07FC
001C0FFE
00180F0F
00381E07
00701C07
00601C06
00E0000E
00C0003C
01C00078
038000E0
030001C0
07000380
060007FF
0C000FFF
1C001FFF
ENDCHAR
STARTCHAR 00BE
ENCODING 190
SWIDTH 832 0
DWIDTH 37 0
BBX 33 33 2 0
BITMAP
0000001C00
0F80001800
3FC0003000
7FE0007000
78F0006000
F07000E000
E07001C000
00E0018000
07C0038000
07E0030000
0070070000
E0380E0000
F0380C0000
78781C0000
7FF0380000
3FE0300000
0FC0700000
0000600000
0000E00200
0001C00600
0001800E00
0003801E00
0007003E00
0006007E00
000E00EE00
000C01CE00
001C038E00
003807FF80
00300FFF80
00701FFF80
0060000E00
00C0000E00
01C0000E00
ENDCHAR
STARTCHAR 00BF
ENCODING 191
SWIDTH 585 0
DWIDTH 26 0
BBX 19 32 4 -9
BITMAP
00E000
01F000
01F000
01F000
00E000
000000
000000
03F000
0FFC00
1FFF00
3C0F00
780780
700380
700380
000380
000F00
003F00
00FE00
07F800
1FC000
3F0000
780000
F00000
E000E0
E000E0
E000E0
F001C0
7003C0
7C0F80
3FFF00
1FFE00
07F800
ENDCHAR
STARTCHAR 00C0
ENCODING 192
SWIDTH 697 0
DWIDTH 31 0
BBX 29 43 1 0
BITMAP
00F80000
00780000
003C0000
001E0000
000E0000
00070000
00038000
00000000
00000000
00000000
00000000
00020000
00070000
00070000
000F8000
000F8000
000F8000
001DC000
001DC000
0038E000
0038E000
0078F000
00707000
00707000
00E03800
00E03800
01C01C00
01C01C00
03C01E00
03FFFE00
07FFFF00
07FFFF00
07000700
0E000380
0E000380
1C0001C0
1C0001C0
3C0001E0
380000E0
380000E0
70000070
70000070
E0000038
ENDCHAR
STARTCHAR 00C1
ENCODING 193
SWIDTH 697 0
DWIDTH 31 0
BBX 29 43 1 0
BITMAP
0000F800
0000F000
0001E000
0003C000
00038000
00070000
000E0000
00000000
00000000
00000000
00000000
00020000
00070000
00070000
000F8000
000F8000
000F8000
001DC000
001DC000
0038E000
0038E000
0078F000
00707000
00707000
00E03800
00E03800
01C01C00
01C01C00
03C01E00
03FFFE00
07FFFF00
07FFFF00
07000700
0E000380
0E000380
1C0001C0
1C0001C0
3C0001E0
380000E0
380000E0
70000070
70000070
E0000038
ENDCHAR
STARTCHAR 00C2
ENCODING 194
SWIDTH 697 0
DWIDTH 31 0
BBX 29 42 1 0
BITMAP
00070000
000F8000
001DC000
0038E000
00707800
00E03C00
00000000
00000000
00000000
00000000
00020000
00070000
00070000
000F8000
000F8000
000F8000
001DC000
001DC000
0038E000
0038E000
0078F000
00707000
00707000
00E03800
00E03800
01C01C00
01C01C00
03C01E00
03FFFE00
07FFFF00
07FFFF00
07000700
0E000380
0E000380
1C0001C0
1C0001C0
3C0001E0
380000E0
380000E0
70000070
70000070
E0000038
ENDCHAR
STARTCHAR 00C3
ENCODING 195
SWIDTH 697 0
DWIDTH 31 0
BBX 29 41 1 0
BITMAP
007C0000
00FF1800
01FFFC00
01C7F800
0081F000
00000000
00000000
00000000
00000000
00020000
00070000
00070000
000F8000
000F8000
000F8000
001DC000
001DC000
0038E000
0038E000
0078F000
00707000
00707000
00E03800
00E03800
01C01C00
01C01C00
03C01E00
03FFFE00
07FFFF00
07FFFF00
07000700
0E000380
0E000380
1C0001C0
1C0001C0
3C0001E0
380000E0
380000E0
70000070
70000070
E0000038
ENDCHAR
STARTCHAR 00C4
ENCODING 196
SWIDTH 697 0
DWIDTH 31 0
BBX 29 41 1 0
BITMAP
00E07000
01F0F800
01F0F800
01F0F800
00E07000
00000000
00000000
00000000
00000000
00020000
00070000
00070000
000F8000
000F8000
000F8000
001DC000
001DC000
0038E000
0038E000
0078F000
00707000
00707000
00E03800
00E03800
01C01C00
01C01C00
03C01E00
03FFFE00
07FFFF00
07FFFF00
07000700
0E000380
0E000380
1C0001C0
1C0001C0
3C0001E0
380000E0
380000E0
70000070
70000070
E0000038
ENDCHAR
STARTCHAR 00C5
ENCODING 197
SWIDTH 697 0
DWIDTH 31 0
BBX 29 45 1 0
BITMAP
000F0000
001FC000
0038E000
00306000
00306000
00306000
0038E000
001FC000
000F8000
00000000
00000000
00000000
00000000
00020000
00070000
00070000
000F8000
000F8000
000F8000
001DC000
001DC000
0038E000
0038E000
0078F000
00707000
00707000
00E03800
00E03800
01C01C00
01C01C00
03C01E00
03FFFE00
07FFFF00
07FFFF00
07000700
0E000380
0E000380
1C0001C0
1C0001C0
3C0001E0
380000E0
380000E0
70000070
70000070
E0000038
ENDCHAR
STARTCHAR 00C6
ENCODING 198
SWIDTH 990 0
DWIDTH 44 0
BBX 40 32 0 0
BITMAP
000007FFFF
00000FFFFF
00000FFFFF
00001F8000
00003B8000
00003B8000
0000738000
0000E38000
0000E38000
0001C38000
0003838000
0003838000
0007038000
000E03FFFF
000E03FFFF
001C03FFFF
0038038000
0038038000
007FFF8000
00FFFF8000
00FFFF8000
01C0038000
03C0038000
0380038000
0700038000
0F00038000
0E00038000
1C00038000
3C00038000
380003FFFF
700003FFFF
F00003FFFF
ENDCHAR
STARTCHAR 00C7
ENCODING 199
SWIDTH 810 0
DWIDTH 36 0
BBX 30 42 3 -9
BITMAP
000FF800
007FFF00
00FFFFC0
03F80FE0
07C001F8
0F80007C
1E000038
1C000010
3C000000
78000000
70000000
70000000
F0000000
E0000000
E0000000
E0000000
E0000000
E0000000
E0000000
E0000000
E0000000
70000000
70000000
70000000
78000000
3C000000
1C000010
1E00003C
0F80007C
07C001F8
03F80FE0
01FFFFC0
007FFF00
000FF800
00030000
00030000
0003C000
0007E000
0000E000
0000E000
003FC000
001F8000
ENDCHAR
STARTCHAR 00C8
ENCODING 200
SWIDTH 540 0
DWIDTH 24 0
BBX 18 43 4 0
BITMAP
1F0000
0F0000
078000
03C000
01C000
00E000
007000
000000
000000
000000
000000
FFFFC0
FFFFC0
FFFFC0
E00000
E00000
E00000
E00000
E00000
E00000
E00000
E00000
E00000
E00000
FFFFC0
FFFFC0
FFFFC0
E00000
E00000
E00000
E00000
E00000
E00000
E00000
E00000
E00000
E00000
E00000
E00000
E00000
FFFFC0
FFFFC0
FFFFC0
ENDCHAR
STARTCHAR 00C9
ENCODING 201
SWIDTH 540 0
DWIDTH 24 0
BBX 18 43 4 0
BITMAP
003E00
003C00
007800
00F000
00E000
01C000
038000
000000
000000
000000
000000
FFFFC0
FFFFC0
FFFFC0
E00000
E00000
E00000
E00000
E00000
E00000
E00000
E00000
E00000
E00000
FFFFC0
FFFFC0
FFFFC0
E00000
E00000
E00000
E00000
E00000
E00000
E00000
E00000
E00000
E00000
E00000
E00000
E00000
FFFFC0
FFFFC0
FFFFC0
ENDCHAR
STARTCHAR 00CA
ENCODING 202
SWIDTH 540 0
DWIDTH 24 0
BBX 18 42 4 0
BITMAP
00E000
01F000
03B800
071C00
0E0F00
1C0780
000000
000000
000000
000000
FFFFC0
FFFFC0
FFFFC0
E00000
E00000
E00000
E00000
E00000
E00000
E00000
E00000
E00000
E00000
FFFFC0
FFFFC0
FFFFC0
E00000
E00000
E00000
E00000
E00000
E00000
E00000
E00000
E00000
E00000
E00000
E00000
E00000
FFFFC0
FFFFC0
FFFFC0
ENDCHAR
STARTCHAR 00CB
ENCODING 203
SWIDTH 540 0
DWIDTH 24 0
BBX 18 41 4 0
BITMAP
1C0E00
3E1F00
3E1F00
3E1F00
1C0E00
000000
000000
000000
000000
FFFFC0
FFFFC0
FFFFC0
E00000
E00000
E00000
E00000
E00000
E00000
E00000
E00000
E00000
E00000
FFFFC0
FFFFC0
FFFFC0
E00000
E00000
E00000
E00000
E00000
E00000
E00000
E00000
E00000
E00000
E00000
E00000
E00000
FFFFC0
FFFFC0
FFFFC0
ENDCHAR
STARTCHAR 00CC
ENCODING 204
SWIDTH 247 0
DWIDTH 11 0
BBX 9 43 -2 0
BITMAP
F800
7800
3C00
1E00
0E00
0700
0380
0000
0000
0000
0000
0380
0380
0380
0380
0380
0380
0380
0380
0380
0380
0380
0380
0380
0380
0380
0380
0380
0380
0380
0380
0380
0380
0380
0380
0380
0380
0380
0380
0380
0380
0380
0380
ENDCHAR
STARTCHAR 00CD
ENCODING 205
SWIDTH 247 0
DWIDTH 11 0
BBX 9 43 3 0
BITMAP
0F80
0F00
1E00
3C00
3800
7000
E000
0000
0000
0000
0000
7000
7000
7000
7000
7000
7000
7000
7000
7000
7000
7000
7000
7000
7000
7000
7000
7000
7000
7000
7000
7000
7000
7000
7000
7000
7000
7000
7000
7000
7000
7000
7000
ENDCHAR
STARTCHAR 00CE
ENCODING 206
SWIDTH 247 0
DWIDTH 11 0
BBX 14 42 -1 0
BITMAP
0700
0F80
1DC0
38E0
7078
E03C
0000
0000
0000
0000
0700
0700
0700
0700
0700
0700
0700
0700
0700
0700
0700
0700
0700
0700
0700
0700
0700
0700
0700
0700
0700
0700
0700
0700
0700
0700
0700
0700
0700
0700
0700
0700
ENDCHAR
STARTCHAR 00CF
ENCODING 207
SWIDTH 247 0
DWIDTH 11 0
BBX 14 41 -1 0
BITMAP
7038
F87C
F87C
F87C
7038
0000
0000
0000
0000
0700
0700
0700
0700
0700
0700
0700
0700
0700
0700
0700
0700
0700
0700
0700
0700
0700
0700
0700
0700
0700
0700
0700
0700
0700
0700
0700
0700
0700
0700
0700
0700
ENDCHAR
STARTCHAR 00D0
ENCODING 208
SWIDTH 787 0
DWIDTH 35 0
BBX 31 32 1 0
BITMAP
0FFFE000
0FFFFC00
0FFFFF00
0E003FC0
0E0007E0
0E0001F0
0E0000F0
0E000078
0E000038
0E00003C
0E00001C
0E00001C
0E00000E
0E00000E
FFFE000E
FFFE000E
FFFE000E
0E00000E
0E00000E
0E00000E
0E00001E
0E00001C
0E00001C
0E00003C
0E000038
0E000078
0E0000F0
0E0003E0
0E001FC0
0FFFFF80
0FFFFE00
0FFFF000
ENDCHAR
STARTCHAR 00D1
ENCODING 209
SWIDTH 742 0
DWIDTH 33 0
BBX 25 41 4 0
BITMAP
01F00000
03FC6000
07FFF000
071FE000
0207C000
00000000
00000000
00000000
00000000
80000380
C0000380
E0000380
F0000380
F8000380
F8000380
FC000380
FE000380
EF000380
E7800380
E3C00380
E1E00380
E0E00380
E0700380
E0780380
E03C0380
E01E0380
E00F0380
E0078380
E003C380
E001C380
E001E380
E000F380
E0007B80
E0003F80
E0001F80
E0000F80
E0000F80
E0000780
E0000380
E0000180
E0000080
ENDCHAR
STARTCHAR 00D2
ENCODING 210
SWIDTH 855 0
DWIDTH 38 0
BBX 32 44 3 -1
BITMAP
003E0000
001E0000
000F0000
00078000
00038000
0001C000
0000E000
00000000
00000000
00000000
000FF000
007FFE00
00FFFF00
03F81FC0
07C003E0
0F8001F0
1E000078
1C000038
3C00003C
3800001C
7000000E
7000000E
7000000E
E0000007
E0000007
E0000007
E0000007
E0000007
E0000007
E0000007
E0000007
F000000E
7000000E
7000000E
3800001C
3C00003C
1C000038
1E000078
0F0000F0
07C003E0
03F00FC0
01FFFF80
007FFE00
000FF000
ENDCHAR
STARTCHAR 00D3
ENCODING 211
SWIDTH 855 0
DWIDTH 38 0
BBX 32 44 3 -1
BITMAP
00007C00
00007800
0000F000
0001E000
0001C000
00038000
00070000
00000000
00000000
00000000
000FF000
007FFE00
00FFFF00
03F81FC0
07C003E0
0F8001F0
1E000078
1C000038
3C00003C
3800001C
7000000E
7000000E
7000000E
E0000007
E0000007
E0000007
E0000007
E0000007
E0000007
E0000007
E0000007
F000000E
7000000E
7000000E
3800001C
3C00003C
1C000038
1E000078
0F0000F0
07C003E0
03F00FC0
01FFFF80
007FFE00
000FF000
ENDCHAR
STARTCHAR 00D4
ENCODING 212
SWIDTH 855 0
DWIDTH 38 0
BBX 32 43 3 -1
BITMAP
0001C000
0003E000
00077000
000E3800
001C1E00
00380F00
00000000
00000000
00000000
000FF000
007FFE00
00FFFF00
03F81FC0
07C003E0
0F8001F0
1E000078
1C000038
3C00003C
3800001C
7000000E
7000000E
7000000E
E0000007
E0000007
E0000007
E0000007
E0000007
E0000007
E0000007
E0000007
F000000E
7000000E
7000000E
3800001C
3C00003C
1C000038
1E000078
0F0000F0
07C003E0
03F00FC0
01FFFF80
007FFE00
000FF000
ENDCHAR
STARTCHAR 00D5
ENCODING 213
SWIDTH 855 0
DWIDTH 38 0
BBX 32 42 3 -1
BITMAP
001F0000
003FC600
007FFF00
0071FE00
00207C00
00000000
00000000
00000000
000FF000
007FFE00
00FFFF00
03F81FC0
07C003E0
0F8001F0
1E000078
1C000038
3C00003C
3800001C
7000000E
7000000E
7000000E
E0000007
E0000007
E0000007
E0000007
E0000007
E0000007
E0000007
E0000007
F000000E
7000000E
7000000E
3800001C
3C00003C
1C000038
1E000078
0F0000F0
07C003E0
03F00FC0
01FFFF80
007FFE00
000FF000
ENDCHAR
STARTCHAR 00D6
ENCODING 214
SWIDTH 855 0
DWIDTH 38 0
BBX 32 42 3 -1
BITMAP
00381C00
007C3E00
007C3E00
007C3E00
00381C00
00000000
00000000
00000000
000FF000
007FFE00
00FFFF00
03F81FC0
07C003E0
0F8001F0
1E000078
1C000038
3C00003C
3800001C
7000000E
7000000E
7000000E
E0000007
E0000007
E0000007
E0000007
E0000007
E0000007
E0000007
E0000007
F000000E
7000000E
7000000E
3800001C
3C00003C
1C000038
1E000078
0F0000F0
07C003E0
03F00FC0
01FFFF80
007FFE00
000FF000
ENDCHAR
STARTCHAR 00D7
ENCODING 215
SWIDTH 585 0
DWIDTH 26 0
BBX 18 17 4 7
BITMAP
C00180
E00380
F00700
780E00
1C1C00
0E3800
077000
03E000
01C000
03E000
077000
0E3800
1C1C00
380F00
700780
E003C0
C00180
ENDCHAR
STARTCHAR 00D8
ENCODING 216
SWIDTH 855 0
DWIDTH 38 0
BBX 32 36 3 -2
BITMAP
00000008
000FF00C
007FFC1E
01FFFF3C
03F01FF8
07C003F0
0F8001F0
1E0001F8
1C0003F8
3C0003BC
3800071C
70000E0E
70001E0E
70003C0F
E0003807
E0007007
E000E007
E001C007
E003C007
E0038007
E0070007
E00E0007
F01C000E
703C000E
7078000E
7870001C
38E0003C
1DC00038
1FC00078
0F8000F0
07C003E0
0FF80FC0
1EFFFF80
3C3FFE00
780FF000
30000000
ENDCHAR
STARTCHAR 00D9
ENCODING 217
SWIDTH 652 0
DWIDTH 29 0
BBX 21 44 4 -1
BITMAP
0F8000
078000
03C000
01E000
00E000
007000
003800
000000
000000
000000
000000
E00038
E00038
E00038
E00038
E00038
E00038
E00038
E00038
E00038
E00038
E00038
E00038
E00038
E00038
E00038
E00038
E00038
E00038
E00038
E00038
E00038
E00038
E00038
E00038
E00038
F00070
700070
7800F0
3C01E0
3F07C0
1FFFC0
07FF00
01FC00
ENDCHAR
STARTCHAR 00DA
ENCODING 218
SWIDTH 652 0
DWIDTH 29 0
BBX 21 44 4 -1
BITMAP
000F80
000F00
001E00
003C00
003800
007000
00E000
000000
000000
000000
000000
E00038
E00038
E00038
E00038
E00038
E00038
E00038
E00038
E00038
E00038
E00038
E00038
E00038
E00038
E00038
E00038
E00038
E00038
E00038
E00038
E00038
E00038
E00038
E00038
E00038
F00070
700070
7800F0
3C01E0
3F07C0
1FFFC0
07FF00
01FC00
ENDCHAR
STARTCHAR 00DB
ENCODING 219
SWIDTH 652 0
DWIDTH 29 0
BBX 21 43 4 -1
BITMAP
007000
00F800
01DC00
038E00
070780
0E03C0
000000
000000
000000
000000
E00038
E00038
E00038
E00038
E00038
E00038
E00038
E00038
E00038
E00038
E00038
E00038
E00038
E00038
E00038
E00038
E00038
E00038
E00038
E00038
E00038
E00038
E00038
E00038
E00038
F00070
700070
7800F0
3C01E0
3F07C0
1FFFC0
07FF00
01FC00
ENDCHAR
STARTCHAR 00DC
ENCODING 220
SWIDTH 652 0
DWIDTH 29 0
BBX 21 42 4 -1
BITMAP
070380
0F87C0
0F87C0
0F87C0
070380
000000
000000
000000
000000
E00038
E00038
E00038
E00038
E00038
E00038
E00038
E00038
E00038
E00038
E00038
E00038
E00038
E00038
E00038
E00038
E00038
E00038
E00038
E00038
E00038
E00038
E00038
E00038
E00038
F00070
700070
7800F0
3C01E0
3F07C0
1FFFC0
07FF00
01FC00
ENDCHAR
STARTCHAR 00DD
ENCODING 221
SWIDTH 562 0
DWIDTH 25 0
BBX 23 43 1 0
BITMAP
0007C0
000780
000F00
001E00
001C00
003800
007000
000000
000000
000000
000000
F0000E
70001C
78003C
380038
3C0070
1E00F0
0E00E0
0F01C0
0781C0
038380
03C780
01C700
01EE00
00FE00
007C00
007C00
003800
003800
003800
003800
003800
003800
003800
003800
003800
003800
003800
003800
003800
003800
003800
003800
ENDCHAR
STARTCHAR 00DE
ENCODING 222
SWIDTH 585 0
DWIDTH 26 0
BBX 19 32 4 0
BITMAP
E00000
E00000
E00000
E00000
E00000
E00000
E00000
FFF800
FFFE00
FFFF00
E00F80
E003C0
E001C0
E000E0
E000E0
E000E0
E000E0
E000E0
E000E0
E001C0
E003C0
E00780
FFFF80
FFFE00
FFF800
E00000
E00000
E00000
E00000
E00000
E00000
E00000
ENDCHAR
STARTCHAR 00DF
ENCODING 223
SWIDTH 540 0
DWIDTH 24 0
BBX 18 33 4 0
BITMAP
03F000
0FFC00
3FFE00
3E1F00
780700
700780
F00380
E00380
E00380
E00380
E00700
E00F00
E01E00
E1F800
E1C000
E1F800
E03E00
E00F00
E00780
E00380
E003C0
E001C0
E001C0
E001C0
E001C0
E001C0
E003C0
E00380
E00780
E41F00
E7FE00
E7FC00
E3F000
ENDCHAR
STARTCHAR 00E0
ENCODING 224
SWIDTH 675 0
DWIDTH 30 0
BBX 24 33 2 0
BITMAP
03E000
01E000
00F000
007800
003800
001C00
000E00
000000
000000
000000
00FF07
03FFC7
0FFFE7
1F81F7
3E007F
3C003F
78001F
70000F
F0000F
E00007
E00007
E00007
E00007
E00007
F0000F
70000F
78001F
3C001F
3E007F
1F81FF
0FFFF7
03FFC7
00FF07
ENDCHAR
STARTCHAR 00E1
ENCODING 225
SWIDTH 675 0
DWIDTH 30 0
BBX 24 33 2 0
BITMAP
0007C0
000780
000F00
001E00
001C00
003800
007000
000000
000000
000000
00FF07
03FFC7
0FFFE7
1F81F7
3E007F
3C003F
78001F
70000F
F0000F
E00007
E00007
E00007
E00007
E00007
F0000F
70000F
78001F
3C001F
3E007F
1F81FF
0FFFF7
03FFC7
00FF07
ENDCHAR
STARTCHAR 00E2
ENCODING 226
SWIDTH 675 0
DWIDTH 30 0
BBX 24 32 2 0
BITMAP
003800
007C00
00EE00
01C700
0383C0
0701E0
000000
000000
000000
00FF07
03FFC7
0FFFE7
1F81F7
3E007F
3C003F
78001F
70000F
F0000F
E00007
E00007
E00007
E00007
E00007
F0000F
70000F
78001F
3C001F
3E007F
1F81FF
0FFFF7
03FFC7
00FF07
ENDCHAR
STARTCHAR 00E3
ENCODING 227
SWIDTH 675 0
DWIDTH 30 0
BBX 24 31 2 0
BITMAP
03E000
07F8C0
0FFFE0
0E3FC0
040F80
000000
000000
000000
00FF07
03FFC7
0FFFE7
1F81F7
3E007F
3C003F
78001F
70000F
F0000F
E00007
E00007
E00007
E00007
E00007
F0000F
70000F
78001F
3C001F
3E007F
1F81FF
0FFFF7
03FFC7
00FF07
ENDCHAR
STARTCHAR 00E4
ENCODING 228
SWIDTH 675 0
DWIDTH 30 0
BBX 24 31 2 0
BITMAP
0381C0
07C3E0
07C3E0
07C3E0
0381C0
000000
000000
000000
00FF07
03FFC7
0FFFE7
1F81F7
3E007F
3C003F
78001F
70000F
F0000F
E00007
E00007
E00007
E00007
E00007
F0000F
70000F
78001F
3C001F
3E007F
1F81FF
0FFFF7
03FFC7
00FF07
ENDCHAR
STARTCHAR 00E5
ENCODING 229
SWIDTH 675 0
DWIDTH 30 0
BBX 24 35 2 0
BITMAP
003C00
007F00
00E380
00C180
00C180
00C180
00E380
007F00
003E00
000000
000000
000000
00FF07
03FFC7
0FFFE7
1F81F7
3E007F
3C003F
78001F
70000F
F0000F
E00007
E00007
E00007
E00007
E00007
F0000F
70000F
78001F
3C001F
3E007F
1F81FF
0FFFF7
03FFC7
00FF07
ENDCHAR
STARTCHAR 00E6
ENCODING 230
SWIDTH 1147 0
DWIDTH 51 0
BBX 45 23 4 0
BITMAP
00FF0707F800
03FFC71FFE00
0FFFE73FFF80
1F81F77C0FC0
3E007FF001E0
38001FC000E0
78001F800070
70000F800070
F0000F000038
E00007FFFFF8
E00007FFFFF8
E00007FFFFF8
E00007000000
E00007000000
E0000F000040
70000F800070
78001FC000E0
3C003FC001E0
3E007FF003C0
1F81F7FC0F80
0FFFE77FFF00
03FFC73FFE00
00FF0707F800
ENDCHAR
STARTCHAR 00E7
ENCODING 231
SWIDTH 630 0
DWIDTH 28 0
BBX 24 32 2 -9
BITMAP
007F80
01FFF0
07FFF8
0FC07C
1E001E
3C000F
780004
700000
F00000
E00000
E00000
E00000
E00000
E00000
F00000
700000
780004
3C000F
3E001E
1F80FC
07FFF8
03FFF0
007F80
001800
001800
001800
001E00
003F00
000700
000700
01FE00
00FC00
ENDCHAR
STARTCHAR 00E8
ENCODING 232
SWIDTH 652 0
DWIDTH 29 0
BBX 25 33 2 0
BITMAP
03E00000
01E00000
00F00000
00780000
00380000
001C0000
000E0000
00000000
00000000
00000000
007F0000
03FFE000
07FFF000
1F80FC00
1E003C00
3C000E00
78000700
70000700
F0000300
FFFFFF80
FFFFFF80
FFFFFF80
E0000000
E0000000
E0000000
70000000
70000400
38000F00
3E001E00
1F80FC00
0FFFF800
03FFE000
00FF8000
ENDCHAR
STARTCHAR 00E9
ENCODING 233
SWIDTH 652 0
DWIDTH 29 0
BBX 25 33 2 0
BITMAP
0003E000
0003C000
00078000
000F0000
000E0000
001C0000
00380000
00000000
00000000
00000000
007F0000
03FFE000
07FFF000
1F80FC00
1E003C00
3C000E00
78000700
70000700
F0000300
FFFFFF80
FFFFFF80
FFFFFF80
E0000000
E0000000
E0000000
70000000
70000400
38000F00
3E001E00
1F80FC00
0FFFF800
03FFE000
00FF8000
ENDCHAR
STARTCHAR 00EA
ENCODING 234
SWIDTH 652 0
DWIDTH 29 0
BBX 25 32 2 0
BITMAP
001C0000
003E0000
00770000
00E38000
01C1E000
0380F000
00000000
00000000
00000000
007F0000
03FFE000
07FFF000
1F80FC00
1E003C00
3C000E00
78000700
70000700
F0000300
FFFFFF80
FFFFFF80
FFFFFF80
E0000000
E0000000
E0000000
70000000
70000400
38000F00
3E001E00
1F80FC00
0FFFF800
03FFE000
00FF8000
ENDCHAR
STARTCHAR 00EB
ENCODING 235
SWIDTH 652 0
DWIDTH 29 0
BBX 25 31 2 0
BITMAP
01C0E000
03E1F000
03E1F000
03E1F000
01C0E000
00000000
00000000
00000000
007F0000
03FFE000
07FFF000
1F80FC00
1E003C00
3C000E00
78000700
70000700
F0000300
FFFFFF80
FFFFFF80
FFFFFF80
E0000000
E0000000
E0000000
70000000
70000400
38000F00
3E001E00
1F80FC00
0FFFF800
03FFE000
00FF8000
ENDCHAR
STARTCHAR 00EC
ENCODING 236
SWIDTH 247 0
DWIDTH 11 0
BBX 9 33 -2 0
BITMAP
F800
7800
3C00
1E00
0E00
0700
0380
0000
0000
0000
0380
0380
0380
0380
0380
0380
0380
0380
0380
0380
0380
0380
0380
0380
0380
0380
0380
0380
0380
0380
0380
0380
0380
ENDCHAR
STARTCHAR 00ED
ENCODING 237
SWIDTH 247 0
DWIDTH 11 0
BBX 9 33 2 0
BITMAP
0F80
0F00
1E00
3C00
3800
7000
E000
0000
0000
0000
3800
3800
3800
3800
3800
3800
3800
3800
3800
3800
3800
3800
3800
3800
3800
3800
3800
3800
3800
3800
3800
3800
3800
ENDCHAR
STARTCHAR 00EE
ENCODING 238
SWIDTH 247 0
DWIDTH 11 0
BBX 14 32 -2 0
BITMAP
0700
0F80
1DC0
38E0
7078
E03C
0000
0000
0000
0380
0380
0380
0380
0380
0380
0380
0380
0380
0380
0380
0380
0380
0380
0380
0380
0380
0380
0380
0380
0380
0380
0380
ENDCHAR
STARTCHAR 00EF
ENCODING 239
SWIDTH 247 0
DWIDTH 11 0
BBX 14 31 -2 0
BITMAP
7038
F87C
F87C
F87C
7038
0000
0000
0000
0380
0380
0380
0380
0380
0380
0380
0380
0380
0380
0380
0380
0380
0380
0380
0380
0380
0380
0380
0380
0380
0380
0380
ENDCHAR
STARTCHAR 00F0
ENCODING 240
SWIDTH 652 0
DWIDTH 29 0
BBX 25 33 2 0
BITMAP
00F08000
007B8000
003FC000
003F8000
00FF0000
01FF8000
01E3C000
0081E000
0000F000
0000F800
007E7C00
03FFFC00
07FFFE00
1F80FE00
3E003F00
3C000F00
78000F00
70000780
F0000780
E0000380
E0000380
E0000380
E0000380
E0000380
F0000700
70000700
78000F00
3C001E00
1E003C00
1F80F800
07FFF000
03FFE000
007F0000
ENDCHAR
STARTCHAR 00F1
ENCODING 241
SWIDTH 607 0
DWIDTH 27 0
BBX 19 31 4 0
BITMAP
0F8000
1FE300
3FFF80
38FF00
103E00
000000
000000
000000
E0FC00
E3FF00
EFFF80
FF0780
FC01C0
F800C0
F800E0
F000E0
F000E0
E000E0
E000E0
E000E0
E000E0
E000E0
E000E0
E000E0
E000E0
E000E0
E000E0
E000E0
E000E0
E000E0
E000E0
ENDCHAR
STARTCHAR 00F2
ENCODING 242
SWIDTH 652 0
DWIDTH 29 0
BBX 25 33 2 0
BITMAP
03E00000
01E00000
00F00000
00780000
00380000
001C0000
000E0000
00000000
00000000
00000000
007F0000
03FFE000
07FFF000
1F80FC00
1E003C00
3C001E00
78000F00
70000700
F0000780
E0000380
E0000380
E0000380
E0000380
E0000380
F0000780
70000700
78000F00
3C001E00
3E003E00
1F80FC00
07FFF000
03FFE000
007F0000
ENDCHAR
STARTCHAR 00F3
ENCODING 243
SWIDTH 652 0
DWIDTH 29 0
BBX 25 33 2 0
BITMAP
0003E000
0003C000
00078000
000F0000
000E0000
001C0000
00380000
00000000
00000000
00000000
007F0000
03FFE000
07FFF000
1F80FC00
1E003C00
3C001E00
78000F00
70000700
F0000780
E0000380
E0000380
E0000380
E0000380
E0000380
F0000780
70000700
78000F00
3C001E00
3E003E00
1F80FC00
07FFF000
03FFE000
007F0000
ENDCHAR
STARTCHAR 00F4
ENCODING 244
SWIDTH 652 0
DWIDTH 29 0
BBX 25 32 2 0
BITMAP
001C0000
003E0000
00770000
00E38000
01C1E000
0380F000
00000000
00000000
00000000
007F0000
03FFE000
07FFF000
1F80FC00
1E003C00
3C001E00
78000F00
70000700
F0000780
E0000380
E0000380
E0000380
E0000380
E0000380
F0000780
70000700
78000F00
3C001E00
3E003E00
1F80FC00
07FFF000
03FFE000
007F0000
ENDCHAR
STARTCHAR 00F5
ENCODING 245
SWIDTH 652 0
DWIDTH 29 0
BBX 25 31 2 0
BITMAP
01F00000
03FC6000
07FFF000
071FE000
0207C000
00000000
00000000
00000000
007F0000
03FFE000
07FFF000
1F80FC00
1E003C00
3C001E00
78000F00
70000700
F0000780
E0000380
E0000380
E0000380
E0000380
E0000380
F0000780
70000700
78000F00
3C001E00
3E003E00
1F80FC00
07FFF000
03FFE000
007F0000
ENDCHAR
STARTCHAR 00F6
ENCODING 246
SWIDTH 652 0
DWIDTH 29 0
BBX 25 31 2 0
BITMAP
01C0E000
03E1F000
03E1F000
03E1F000
01C0E000
00000000
00000000
00000000
007F0000
03FFE000
07FFF000
1F80FC00
1E003C00
3C001E00
78000F00
70000700
F0000780
E0000380
E0000380
E0000380
E0000380
E0000380
F0000780
70000700
78000F00
3C001E00
3E003E00
1F80FC00
07FFF000
03FFE000
007F0000
ENDCHAR
STARTCHAR 00F7
ENCODING 247
SWIDTH 540 0
DWIDTH 24 0
BBX 22 21 1 5
BITMAP
007800
007800
007800
007800
000000
000000
000000
000000
000000
FFFFFC
FFFFFC
FFFFFC
000000
000000
000000
000000
000000
007800
007800
007800
007800
ENDCHAR
STARTCHAR 00F8
ENCODING 248
SWIDTH 652 0
DWIDTH 29 0
BBX 25 24 2 -1
BITMAP
007F0300
03FFE780
07FFFF00
1F80FE00
3E003C00
3C007E00
7800FF00
7001E700
E003C700
E0038380
E0070380
E00E0380
E01C0380
E0380380
F0700380
70F00700
79E00F00
3FC01E00
1F803E00
0F80FC00
1FFFF000
3FFFE000
78FF0000
30000000
ENDCHAR
STARTCHAR 00F9
ENCODING 249
SWIDTH 607 0
DWIDTH 27 0
BBX 19 33 4 0
BITMAP
1F0000
0F0000
078000
03C000
01C000
00E000
007000
000000
000000
000000
E000E0
E000E0
E000E0
E000E0
E000E0
E000E0
E000E0
E000E0
E000E0
E000E0
E000E0
E000E0
E000E0
E000E0
E000E0
E000E0
7001C0
7001C0
7803C0
3E0F80
1FFF00
0FFE00
03F800
ENDCHAR
STARTCHAR 00FA
ENCODING 250
SWIDTH 607 0
DWIDTH 27 0
BBX 19 33 4 0
BITMAP
001F00
001E00
003C00
007800
007000
00E000
01C000
000000
000000
000000
E000E0
E000E0
E000E0
E000E0
E000E0
E000E0
E000E0
E000E0
E000E0
E000E0
E000E0
E000E0
E000E0
E000E0
E000E0
E000E0
7001C0
7001C0
7803C0
3E0F80
1FFF00
0FFE00
03F800
ENDCHAR
STARTCHAR 00FB
ENCODING 251
SWIDTH 607 0
DWIDTH 27 0
BBX 19 32 4 0
BITMAP
00E000
01F000
03B800
071C00
0E0F00
1C0780
000000
000000
000000
E000E0
E000E0
E000E0
E000E0
E000E0
E000E0
E000E0
E000E0
E000E0
E000E0
E000E0
E000E0
E000E0
E000E0
E000E0
E000E0
7001C0
7001C0
7803C0
3E0F80
1FFF00
0FFE00
03F800
ENDCHAR
STARTCHAR 00FC
ENCODING 252
SWIDTH 607 0
DWIDTH 27 0
BBX 19 31 4 0
BITMAP
0E0700
1F0F80
1F0F80
1F0F80
0E0700
000000
000000
000000
E000E0
E000E0
E000E0
E000E0
E000E0
E000E0
E000E0
E000E0
E000E0
E000E0
E000E0
E000E0
E000E0
E000E0
E000E0
E000E0
7001C0
7001C0
7803C0
3E0F80
1FFF00
0FFE00
03F800
ENDCHAR
STARTCHAR 00FD
ENCODING 253
SWIDTH 517 0
DWIDTH 23 0
BBX 22 42 0 -9
BITMAP
000F80
000F00
001E00
003C00
003800
007000
00E000
000000
000000
000000
E0001C
F00038
700038
780070
380070
3C00F0
1C00E0
1E01E0
1E01C0
0E01C0
0F0380
070380
078780
038700
03CF00
01CE00
01EE00
00FC00
00FC00
00F800
007800
007800
007000
007000
00E000
00E000
01C000
01C000
03C000
038000
078000
070000
ENDCHAR
STARTCHAR 00FE
ENCODING 254
SWIDTH 675 0
DWIDTH 30 0
BBX 24 42 4 -9
BITMAP
E00000
E00000
E00000
E00000
E00000
E00000
E00000
E00000
E00000
E00000
E07F00
E1FFC0
E7FFE0
EF81F8
FE007C
FC003C
F8001E
F0000E
F0000F
E00007
E00007
E00007
E00007
E00007
E0000F
F0000E
F8001E
F8003C
FE007C
EF81F8
E7FFF0
E1FFC0
E07F00
E00000
E00000
E00000
E00000
E00000
E00000
E00000
E00000
E00000
ENDCHAR
STARTCHAR 00FF
ENCODING 255
SWIDTH 517 0
DWIDTH 23 0
BBX 22 40 0 -9
BITMAP
070380
0F87C0
0F87C0
0F87C0
070380
000000
000000
000000
E0001C
F00038
700038
780070
380070
3C00F0
1C00E0
1E01E0
1E01C0
0E01C0
0F0380
070380
078780
038700
03CF00
01CE00
01EE00
00FC00
00FC00
00F800
007800
007800
007000
007000
00E000
00E000
01C000
01C000
03C000
038000
078000
070000
ENDCHAR
STARTCHAR 0100
ENCODING 256
SWIDTH 697 0
DWIDTH 31 0
BBX 29 38 1 0
BITMAP
01FFF800
01FFF800
01FFF800
00000000
00000000
00000000
00020000
00070000
00070000
000F8000
000F8000
000F8000
001DC000
001DC000
0038E000
0038E000
0078F000
00707000
00707000
00E03800
00E03800
01C01C00
01C01C00
03C01E00
03FFFE00
07FFFF00
07FFFF00
07000700
0E000380
0E000380
1C0001C0
1C0001C0
3C0001E0
380000E0
380000E0
70000070
70000070
E0000038
ENDCHAR
STARTCHAR 0101
ENCODING 257
SWIDTH 675 0
DWIDTH 30 0
BBX 24 29 2 0
BITMAP
03FFF0
03FFF0
03FFF0
000000
000000
000000
00FF07
03FFC7
0FFFE7
1F81F7
3E007F
3C003F
78001F
70000F
F0000F
E00007
E00007
E00007
E00007
E00007
F0000F
70000F
78001F
3C001F
3E007F
1F81FF
0FFFF7
03FFC7
00FF07
ENDCHAR
STARTCHAR 0102
ENCODING 258
SWIDTH 697 0
DWIDTH 31 0
BBX 29 42 1 0
BITMAP
01C01C00
01E03C00
00F07800
007FF000
003FE000
000FC000
00000000
00000000
00000000
00000000
00020000
00070000
00070000
000F8000
000F8000
000F8000
001DC000
001DC000
0038E000
0038E000
0078F000
00707000
00707000
00E03800
00E03800
01C01C00
01C01C00
03C01E00
03FFFE00
07FFFF00
07FFFF00
07000700
0E000380
0E000380
1C0001C0
1C0001C0
3C0001E0
380000E0
380000E0
70000070
70000070
E0000038
ENDCHAR
STARTCHAR 0103
ENCODING 259
SWIDTH 675 0
DWIDTH 30 0
BBX 24 32 2 0
BITMAP
0E00E0
0F01E0
0783C0
03FF80
01FF00
007E00
000000
000000
000000
00FF07
03FFC7
0FFFE7
1F81F7
3E007F
3C003F
78001F
70000F
F0000F
E00007
E00007
E00007
E00007
E00007
F0000F
70000F
78001F
3C001F
3E007F
1F81FF
0FFFF7
03FFC7
00FF07
ENDCHAR
STARTCHAR 0104
ENCODING 260
SWIDTH 697 0
DWIDTH 31 0
BBX 32 40 1 -8
BITMAP
00020000
00070000
00070000
000F8000
000F8000
000F8000
001DC000
001DC000
0038E000
0038E000
0078F000
00707000
00707000
00E03800
00E03800
01C01C00
01C01C00
03C01E00
03FFFE00
07FFFF00
07FFFF00
07000700
0E000380
0E000380
1C0001C0
1C0001C0
3C0001E0
380000E0
380000E0
70000070
70000070
E0000038
00000038
00000070
000000E0
000000E0
000000E0
000000F0
0000007F
0000001F
ENDCHAR
STARTCHAR 0105
ENCODING 261
SWIDTH 675 0
DWIDTH 30 0
BBX 26 31 2 -8
BITMAP
00FF0700
03FFC700
0FFFE700
1F81F700
3E007F00
3C003F00
78001F00
70000F00
F0000F00
E0000700
E0000700
E0000700
E0000700
E0000700
F0000F00
70000F00
78001F00
3C001F00
3E007F00
1F81FF00
0FFFF700
03FFC700
00FF0700
00000E00
00001C00
00003800
00003800
00003800
00003C00
00001FC0
000007C0
ENDCHAR
STARTCHAR 0106
ENCODING 262
SWIDTH 810 0
DWIDTH 36 0
BBX 30 44 3 -1
BITMAP
0000F800
0000F000
0001E000
0003C000
00038000
00070000
000E0000
00000000
00000000
00000000
000FF800
007FFF00
00FFFFC0
03F80FE0
07C001F8
0F80007C
1E000038
1C000010
3C000000
78000000
70000000
70000000
F0000000
E0000000
E0000000
E0000000
E0000000
E0000000
E0000000
E0000000
E0000000
70000000
70000000
70000000
78000000
3C000000
1C000010
1E00003C
0F80007C
07C001F8
03F80FE0
01FFFFC0
007FFF00
000FF800
ENDCHAR
STARTCHAR 0107
ENCODING 263
SWIDTH 630 0
DWIDTH 28 0
BBX 24 33 2 0
BITMAP
0007C0
000780
000F00
001E00
001C00
003800
007000
000000
000000
000000
007F80
01FFF0
07FFF8
0FC07C
1E001E
3C000F
780004
700000
F00000
E00000
E00000
E00000
E00000
E00000
F00000
700000
780004
3C000F
3E001E
1F80FC
07FFF8
03FFF0
007F80
ENDCHAR
STARTCHAR 0108
ENCODING 264
SWIDTH 810 0
DWIDTH 36 0
BBX 30 43 3 -1
BITMAP
0001C000
0003E000
00077000
000E3800
001C1E00
00380F00
00000000
00000000
00000000
000FF800
007FFF00
00FFFFC0
03F80FE0
07C001F8
0F80007C
1E000038
1C000010
3C000000
78000000
70000000
70000000
F0000000
E0000000
E0000000
E0000000
E0000000
E0000000
E0000000
E0000000
E0000000
70000000
70000000
70000000
78000000
3C000000
1C000010
1E00003C
0F80007C
07C001F8
03F80FE0
01FFFFC0
007FFF00
000FF800
ENDCHAR
STARTCHAR 0109
ENCODING 265
SWIDTH 630 0
DWIDTH 28 0
BBX 24 32 2 0
BITMAP
001C00
003E00
007700
00E380
01C1E0
0380F0
000000
000000
000000
007F80
01FFF0
07FFF8
0FC07C
1E001E
3C000F
780004
700000
F00000
E00000
E00000
E00000
E00000
E00000
F00000
700000
780004
3C000F
3E001E
1F80FC
07FFF8
03FFF0
007F80
ENDCHAR
STARTCHAR 010A
ENCODING 266
SWIDTH 810 0
DWIDTH 36 0
BBX 30 42 3 -1
BITMAP
00070000
000F8000
000F8000
000F8000
00070000
00000000
00000000
00000000
000FF800
007FFF00
00FFFFC0
03F80FE0
07C001F8
0F80007C
1E000038
1C000010
3C000000
78000000
70000000
70000000
F0000000
E0000000
E0000000
E0000000
E0000000
E0000000
E0000000
E0000000
E0000000
70000000
70000000
70000000
78000000
3C000000
1C000010
1E00003C
0F80007C
07C001F8
03F80FE0
01FFFFC0
007FFF00
000FF800
ENDCHAR
STARTCHAR 010B
ENCODING 267
SWIDTH 630 0
DWIDTH 28 0
BBX 24 31 2 0
BITMAP
003800
007C00
007C00
007C00
003800
000000
000000
000000
007F80
01FFF0
07FFF8
0FC07C
1E001E
3C000F
780004
700000
F00000
E00000
E00000
E00000
E00000
E00000
F00000
700000
780004
3C000F
3E001E
1F80FC
07FFF8
03FFF0
007F80
ENDCHAR
STARTCHAR 010C
ENCODING 268
SWIDTH 810 0
DWIDTH 36 0
BBX 30 43 3 -1
BITMAP
01E03800
00F07000
0039E000
001FC000
000F8000
00070000
00000000
00000000
00000000
000FF800
007FFF00
00FFFFC0
03F80FE0
07C001F8
0F80007C
1E000038
1C000010
3C000000
78000000
70000000
70000000
F0000000
E0000000
E0000000
E0000000
E0000000
E0000000
E0000000
E0000000
E0000000
70000000
70000000
70000000
78000000
3C000000
1C000010
1E00003C
0F80007C
07C001F8
03F80FE0
01FFFFC0
007FFF00
000FF800
ENDCHAR
STARTCHAR 010D
ENCODING 269
SWIDTH 630 0
DWIDTH 28 0
BBX 24 32 2 0
BITMAP
0F01C0
078380
01CF00
00FE00
007C00
003800
000000
000000
000000
007F80
01FFF0
07FFF8
0FC07C
1E001E
3C000F
780004
700000
F00000
E00000
E00000
E00000
E00000
E00000
F00000
700000
780004
3C000F
3E001E
1F80FC
07FFF8
03FFF0
007F80
ENDCHAR
STARTCHAR 010E
ENCODING 270
SWIDTH 742 0
DWIDTH 33 0
BBX 26 42 4 0
BITMAP
1E038000
0F070000
039E0000
01FC0000
00F80000
00700000
00000000
00000000
00000000
00000000
FFFC0000
FFFF8000
FFFFE000
E007F800
E000FC00
E0003C00
E0001E00
E0000F00
E0000700
E0000780
E0000380
E0000380
E00001C0
E00001C0
E00001C0
E00001C0
E00001C0
E00001C0
E00001C0
E00001C0
E00003C0
E0000380
E0000380
E0000780
E0000700
E0000F00
E0001E00
E0007C00
E003F800
FFFFF000
FFFFC000
FFFE0000
ENDCHAR
STARTCHAR 010F
ENCODING 271
SWIDTH 675 0
DWIDTH 30 0
BBX 29 33 2 0
BITMAP
00000738
00000738
00000738
00000738
00000738
00000718
00000718
00000710
00000730
00000710
00FF0700
03FFC700
0FFFE700
1F81FF00
3E007F00
3C003F00
78001F00
70000F00
F0000F00
E0000700
E0000700
E0000700
E0000700
E0000700
F0000700
70000F00
78001F00
3C001F00
3E007F00
1F81FF00
0FFFE700
03FFC700
00FE0700
ENDCHAR
STARTCHAR 0110
ENCODING 272
SWIDTH 787 0
DWIDTH 35 0
BBX 31 32 1 0
BITMAP
0FFFE000
0FFFFC00
0FFFFF00
0E003FC0
0E0007E0
0E0001F0
0E0000F0
0E000078
0E000038
0E00003C
0E00001C
0E00001C
0E00000E
0E00000E
FFFE000E
FFFE000E
FFFE000E
0E00000E
0E00000E
0E00000E
0E00001E
0E00001C
0E00001C
0E00003C
0E000038
0E000078
0E0000F0
0E0003E0
0E001FC0
0FFFFF80
0FFFFE00
0FFFF000
ENDCHAR
STARTCHAR 0111
ENCODING 273
SWIDTH 675 0
DWIDTH 30 0
BBX 27 33 2 0
BITMAP
00000700
00000700
00000700
00000700
00000700
0003FFE0
0003FFE0
0003FFE0
00000700
00000700
00FE0700
03FF8700
0FFFE700
1F81F700
3E007F00
3C003F00
78001F00
70000F00
F0000F00
E0000700
E0000700
E0000700
E0000700
E0000700
F0000F00
70000F00
78001F00
3C001F00
3E007F00
1F81FF00
0FFFF700
03FFC700
00FF0700
ENDCHAR
STARTCHAR 0112
ENCODING 274
SWIDTH 540 0
DWIDTH 24 0
BBX 18 38 4 0
BITMAP
3FFF00
3FFF00
3FFF00
000000
000000
000000
FFFFC0
FFFFC0
FFFFC0
E00000
E00000
E00000
E00000
E00000
E00000
E00000
E00000
E00000
E00000
FFFFC0
FFFFC0
FFFFC0
E00000
E00000
E00000
E00000
E00000
E00000
E00000
E00000
E00000
E00000
E00000
E00000
E00000
FFFFC0
FFFFC0
FFFFC0
ENDCHAR
STARTCHAR 0113
ENCODING 275
SWIDTH 652 0
DWIDTH 29 0
BBX 25 32 2 0
BITMAP
03FFF000
03FFF000
03FFF000
00000000
00000000
00000000
00000000
00000000
00000000
007F0000
03FFE000
07FFF000
1F80FC00
1E003C00
3C000E00
78000700
70000700
F0000300
FFFFFF80
FFFFFF80
FFFFFF80
E0000000
E0000000
E0000000
70000000
70000400
38000F00
3E001E00
1F80FC00
0FFFF800
03FFE000
00FF8000
ENDCHAR
STARTCHAR 0114
ENCODING 276
SWIDTH 540 0
DWIDTH 24 0
BBX 18 42 4 0
BITMAP
700700
780F00
3C1E00
1FFC00
0FF800
03F000
000000
000000
000000
000000
FFFFC0
FFFFC0
FFFFC0
E00000
E00000
E00000
E00000
E00000
E00000
E00000
E00000
E00000
E00000
FFFFC0
FFFFC0
FFFFC0
E00000
E00000
E00000
E00000
E00000
E00000
E00000
E00000
E00000
E00000
E00000
E00000
E00000
FFFFC0
FFFFC0
FFFFC0
ENDCHAR
STARTCHAR 0115
ENCODING 277
SWIDTH 652 0
DWIDTH 29 0
BBX 25 32 2 0
BITMAP
07007000
0780F000
03C1E000
01FFC000
00FF8000
003F0000
00000000
00000000
00000000
007F0000
03FFE000
07FFF000
1F80FC00
1E003C00
3C000E00
78000700
70000700
F0000300
FFFFFF80
FFFFFF80
FFFFFF80
E0000000
E0000000
E0000000
70000000
70000400
38000F00
3E001E00
1F80FC00
0FFFF800
03FFE000
00FF8000
ENDCHAR
STARTCHAR 0116
ENCODING 278
SWIDTH 540 0
DWIDTH 24 0
BBX 18 41 4 0
BITMAP
00E000
01F000
01F000
01F000
00E000
000000
000000
000000
000000
FFFFC0
FFFFC0
FFFFC0
E00000
E00000
E00000
E00000
E00000
E00000
E00000
E00000
E00000
E00000
FFFFC0
FFFFC0
FFFFC0
E00000
E00000
E00000
E00000
E00000
E00000
E00000
E00000
E00000
E00000
E00000
E00000
E00000
FFFFC0
FFFFC0
FFFFC0
ENDCHAR
STARTCHAR 0117
ENCODING 279
SWIDTH 652 0
DWIDTH 29 0
BBX 25 31 2 0
BITMAP
001C0000
003E0000
003E0000
003E0000
001C0000
00000000
00000000
00000000
007F0000
03FFE000
07FFF000
1F80FC00
1E003C00
3C000E00
78000700
70000700
F0000300
FFFFFF80
FFFFFF80
FFFFFF80
E0000000
E0000000
E0000000
70000000
70000400
38000F00
3E001E00
1F80FC00
0FFFF800
03FFE000
00FF8000
ENDCHAR
STARTCHAR 0118
ENCODING 280
SWIDTH 540 0
DWIDTH 24 0
BBX 18 40 4 -8
BITMAP
FFFFC0
FFFFC0
FFFFC0
E00000
E00000
E00000
E00000
E00000
E00000
E00000
E00000
E00000
E00000
FFFFC0
FFFFC0
FFFFC0
E00000
E00000
E00000
E00000
E00000
E00000
E00000
E00000
E00000
E00000
E00000
E00000
E00000
FFFFC0
FFFFC0
FFFFC0
000E00
001C00
003800
003800
003800
003C00
001FC0
0007C0
ENDCHAR
STARTCHAR 0119
ENCODING 281
SWIDTH 652 0
DWIDTH 29 0
BBX 25 31 2 -8
BITMAP
007F0000
03FFE000
07FFF000
1F80FC00
1E003C00
3C000E00
78000700
70000700
F0000300
FFFFFF80
FFFFFF80
FFFFFF80
E0000000
E0000000
E0000000
70000000
70000400
38000F00
3E001E00
1F80FC00
0FFFF800
03FFE000
00FF8000
000E0000
001C0000
00380000
00380000
00380000
003C0000
001FC000
0007C000
ENDCHAR
STARTCHAR 011A
ENCODING 282
SWIDTH 540 0
DWIDTH 24 0
BBX 18 42 4 0
BITMAP
3C0700
1E0E00
073C00
03F800
01F000
00E000
000000
000000
000000
000000
FFFFC0
FFFFC0
FFFFC0
E00000
E00000
E00000
E00000
E00000
E00000
E00000
E00000
E00000
E00000
FFFFC0
FFFFC0
FFFFC0
E00000
E00000
E00000
E00000
E00000
E00000
E00000
E00000
E00000
E00000
E00000
E00000
E00000
FFFFC0
FFFFC0
FFFFC0
ENDCHAR
STARTCHAR 011B
ENCODING 283
SWIDTH 652 0
DWIDTH 29 0
BBX 25 32 2 0
BITMAP
0780E000
03C1C000
00E78000
007F0000
003E0000
001C0000
00000000
00000000
00000000
007F0000
03FFE000
07FFF000
1F80FC00
1E003C00
3C000E00
78000700
70000700
F0000300
FFFFFF80
FFFFFF80
FFFFFF80
E0000000
E0000000
E0000000
70000000
70000400
38000F00
3E001E00
1F80FC00
0FFFF800
03FFE000
00FF8000
ENDCHAR
STARTCHAR 011C
ENCODING 284
SWIDTH 855 0
DWIDTH 38 0
BBX 32 43 3 -1
BITMAP
0001C000
0003E000
00077000
000E3800
001C1E00
00380F00
00000000
00000000
00000000
000FF800
007FFF00
00FFFFC0
03F80FE0
07C001F8
0F8000FC
1E000038
1E000010
3C000000
38000000
70000000
70000000
70000000
E0000000
E0000000
E0000000
E0000000
E0000000
E0001FFF
E0001FFF
E0001FFF
70000007
70000007
7800000E
3800000E
3C00001E
1E00001C
1F00003C
0F800078
07E001F0
03F807E0
00FFFFC0
003FFF00
0007F800
ENDCHAR
STARTCHAR 011D
ENCODING 285
SWIDTH 675 0
DWIDTH 30 0
BBX 24 41 2 -9
BITMAP
001C00
003E00
007700
00E380
01C1E0
0380F0
000000
000000
000000
00FF07
03FFC7
07FFE7
1F81F7
3E007F
3C001F
78001F
70000F
F0000F
E00007
E00007
E00007
E00007
E00007
E00007
70000F
70000F
38001F
3E007F
1F81F7
0FFFE7
03FFC7
00FE07
000007
E0000E
70000E
78001E
3C003C
1F00F8
0FFFF0
07FFE0
00FF00
ENDCHAR
STARTCHAR 011E
ENCODING 286
SWIDTH 855 0
DWIDTH 38 0
BBX 32 43 3 -1
BITMAP
00700700
00780F00
003C1E00
001FFC00
000FF800
0003F000
00000000
00000000
00000000
000FF800
007FFF00
00FFFFC0
03F80FE0
07C001F8
0F8000FC
1E000038
1E000010
3C000000
38000000
70000000
70000000
70000000
E0000000
E0000000
E0000000
E0000000
E0000000
E0001FFF
E0001FFF
E0001FFF
70000007
70000007
7800000E
3800000E
3C00001E
1E00001C
1F00003C
0F800078
07E001F0
03F807E0
00FFFFC0
003FFF00
0007F800
ENDCHAR
STARTCHAR 011F
ENCODING 287
SWIDTH 675 0
DWIDTH 30 0
BBX 24 41 2 -9
BITMAP
0E00E0
0F01E0
0783C0
03FF80
01FF00
007E00
000000
000000
000000
00FF07
03FFC7
07FFE7
1F81F7
3E007F
3C001F
78001F
70000F
F0000F
E00007
E00007
E00007
E00007
E00007
E00007
70000F
70000F
38001F
3E007F
1F81F7
0FFFE7
03FFC7
00FE07
000007
E0000E
70000E
78001E
3C003C
1F00F8
0FFFF0
07FFE0
00FF00
ENDCHAR
STARTCHAR 0120
ENCODING 288
SWIDTH 855 0
DWIDTH 38 0
BBX 32 42 3 -1
BITMAP
00038000
0007C000
0007C000
0007C000
00038000
00000000
00000000
00000000
000FF800
007FFF00
00FFFFC0
03F80FE0
07C001F8
0F8000FC
1E000038
1E000010
3C000000
38000000
70000000
70000000
70000000
E0000000
E0000000
E0000000
E0000000
E0000000
E0001FFF
E0001FFF
E0001FFF
70000007
70000007
7800000E
3800000E
3C00001E
1E00001C
1F00003C
0F800078
07E001F0
03F807E0
00FFFFC0
003FFF00
0007F800
ENDCHAR
STARTCHAR 0121
ENCODING 289
SWIDTH 675 0
DWIDTH 30 0
BBX 24 40 2 -9
BITMAP
003800
007C00
007C00
007C00
003800
000000
000000
000000
00FF07
03FFC7
07FFE7
1F81F7
3E007F
3C001F
78001F
70000F
F0000F
E00007
E00007
E00007
E00007
E00007
E00007
70000F
70000F
38001F
3E007F
1F81F7
0FFFE7
03FFC7
00FE07
000007
E0000E
70000E
78001E
3C003C
1F00F8
0FFFF0
07FFE0
00FF00
ENDCHAR
STARTCHAR 0122
ENCODING 290
SWIDTH 855 0
DWIDTH 38 0
BBX 32 42 3 -9
BITMAP
000FF800
007FFF00
00FFFFC0
03F80FE0
07C001F8
0F8000FC
1E000038
1E000010
3C000000
38000000
70000000
70000000
70000000
E0000000
E0000000
E0000000
E0000000
E0000000
E0001FFF
E0001FFF
E0001FFF
70000007
70000007
7800000E
3800000E
3C00001E
1E00001C
1F00003C
0F800078
07E001F0
03F807E0
00FFFFC0
003FFF00
000FF800
0000C000
0000C000
0000F000
0001F800
00003800
00003800
000FF000
0007E000
ENDCHAR
STARTCHAR 0123
ENCODING 291
SWIDTH 675 0
DWIDTH 30 0
BBX 24 47 2 -9
BITMAP
001000
001800
001000
003000
003000
003000
003800
003800
003800
003800
003800
003800
000000
000000
000000
00FF07
03FFC7
07FFE7
1F81F7
3E007F
3C001F
78001F
70000F
F0000F
E00007
E00007
E00007
E00007
E00007
E00007
70000F
70000F
38001F
3E007F
1F81F7
0FFFE7
03FFC7
00FE07
000007
E0000E
70000E
78001E
3C003C
1F00F8
0FFFF0
07FFE0
00FF00
ENDCHAR
STARTCHAR 0124
ENCODING 292
SWIDTH 675 0
DWIDTH 30 0
BBX 22 42 4 0
BITMAP
003800
007C00
00EE00
01C700
0383C0
0701E0
000000
000000
000000
000000
E0001C
E0001C
E0001C
E0001C
E0001C
E0001C
E0001C
E0001C
E0001C
E0001C
E0001C
E0001C
E0001C
E0001C
FFFFFC
FFFFFC
FFFFFC
E0001C
E0001C
E0001C
E0001C
E0001C
E0001C
E0001C
E0001C
E0001C
E0001C
E0001C
E0001C
E0001C
E0001C
E0001C
ENDCHAR
STARTCHAR 0125
ENCODING 293
SWIDTH 607 0
DWIDTH 27 0
BBX 19 42 4 0
BITMAP
00E000
01F000
03B800
071C00
0E0F00
1C0780
000000
000000
000000
E00000
E00000
E00000
E00000
E00000
E00000
E00000
E00000
E00000
E00000
E0FC00
E3FF00
E7FF80
EF0780
FC03C0
F801C0
F001E0
F000E0
F000E0
E000E0
E000E0
E000E0
E000E0
E000E0
E000E0
E000E0
E000E0
E000E0
E000E0
E000E0
E000E0
E000E0
E000E0
ENDCHAR
STARTCHAR 0126
ENCODING 294
SWIDTH 675 0
DWIDTH 30 0
BBX 28 32 1 0
BITMAP
1C000380
1C000380
1C000380
1C000380
1C000380
FFFFFFF0
FFFFFFF0
FFFFFFF0
1C000380
1C000380
1C000380
1C000380
1C000380
1C000380
1FFFFF80
1FFFFF80
1FFFFF80
1C000380
1C000380
1C000380
1C000380
1C000380
1C000380
1C000380
1C000380
1C000380
1C000380
1C000380
1C000380
1C000380
1C000380
1C000380
ENDCHAR
STARTCHAR 0127
ENCODING 295
SWIDTH 607 0
DWIDTH 27 0
BBX 22 33 1 0
BITMAP
1C0000
1C0000
1C0000
1C0000
FFFC00
FFFC00
FFFC00
1C0000
1C0000
1C0000
1C1F80
1C7FE0
1CFFF0
1DE0F8
1F8078
1F0038
1E003C
1E001C
1E001C
1C001C
1C001C
1C001C
1C001C
1C001C
1C001C
1C001C
1C001C
1C001C
1C001C
1C001C
1C001C
1C001C
1C001C
ENDCHAR
STARTCHAR 0128
ENCODING 296
SWIDTH 247 0
DWIDTH 11 0
BBX 15 41 -2 0
BITMAP
3E00
7F8C
FFFE
E3FC
40F8
0000
0000
0000
0000
0380
0380
0380
0380
0380
0380
0380
0380
0380
0380
0380
0380
0380
0380
0380
0380
0380
0380
0380
0380
0380
0380
0380
0380
0380
0380
0380
0380
0380
0380
0380
0380
ENDCHAR
STARTCHAR 0129
ENCODING 297
SWIDTH 247 0
DWIDTH 11 0
BBX 15 31 -2 0
BITMAP
3E00
7F8C
FFFE
E3FC
40F8
0000
0000
0000
0380
0380
0380
0380
0380
0380
0380
0380
0380
0380
0380
0380
0380
0380
0380
0380
0380
0380
0380
0380
0380
0380
0380
ENDCHAR
STARTCHAR 012A
ENCODING 298
SWIDTH 247 0
DWIDTH 11 0
BBX 14 38 -2 0
BITMAP
FFFC
FFFC
FFFC
0000
0000
0000
0380
0380
0380
0380
0380
0380
0380
0380
0380
0380
0380
0380
0380
0380
0380
0380
0380
0380
0380
0380
0380
0380
0380
0380
0380
0380
0380
0380
0380
0380
0380
0380
ENDCHAR
STARTCHAR 012B
ENCODING 299
SWIDTH 247 0
DWIDTH 11 0
BBX 14 32 -2 0
BITMAP
FFFC
FFFC
FFFC
0000
0000
0000
0000
0000
0000
0380
0380
0380
0380
0380
0380
0380
0380
0380
0380
0380
0380
0380
0380
0380
0380
0380
0380
0380
0380
0380
0380
0380
ENDCHAR
STARTCHAR 012C
ENCODING 300
SWIDTH 247 0
DWIDTH 11 0
BBX 15 42 -2 0
BITMAP
E00E
F01E
783C
3FF8
1FF0
07E0
0000
0000
0000
0000
0380
0380
0380
0380
0380
0380
0380
0380
0380
0380
0380
0380
0380
0380
0380
0380
0380
0380
0380
0380
0380
0380
0380
0380
0380
0380
0380
0380
0380
0380
0380
0380
ENDCHAR
STARTCHAR 012D
ENCODING 301
SWIDTH 247 0
DWIDTH 11 0
BBX 15 32 -3 0
BITMAP
E00E
F01E
783C
3FF8
1FF0
07E0
0000
0000
0000
01C0
01C0
01C0
01C0
01C0
01C0
01C0
01C0
01C0
01C0
01C0
01C0
01C0
01C0
01C0
01C0
01C0
01C0
01C0
01C0
01C0
01C0
01C0
ENDCHAR
STARTCHAR 012E
ENCODING 302
SWIDTH 247 0
DWIDTH 11 0
BBX 8 40 1 -8
BITMAP
1C
1C
1C
1C
1C
1C
1C
1C
1C
1C
1C
1C
1C
1C
1C
1C
1C
1C
1C
1C
1C
1C
1C
1C
1C
1C
1C
1C
1C
1C
1C
1C
38
70
E0
E0
E0
F0
7F
1F
ENDCHAR
STARTCHAR 012F
ENCODING 303
SWIDTH 202 0
DWIDTH 9 0
BBX 8 41 0 -8
BITMAP
1C
3E
3E
3E
1C
00
00
00
00
00
1C
1C
1C
1C
1C
1C
1C
1C
1C
1C
1C
1C
1C
1C
1C
1C
1C
1C
1C
1C
1C
1C
1C
38
70
E0
E0
E0
F0
7F
1F
ENDCHAR
STARTCHAR 0130
ENCODING 304
SWIDTH 247 0
DWIDTH 11 0
BBX 5 41 3 0
BITMAP
70
F8
F8
F8
70
00
00
00
00
70
70
70
70
70
70
70
70
70
70
70
70
70
70
70
70
70
70
70
70
70
70
70
70
70
70
70
70
70
70
70
70
ENDCHAR
STARTCHAR 0131
ENCODING 305
SWIDTH 247 0
DWIDTH 11 0
BBX 3 23 4 0
BITMAP
E0
E0
E0
E0
E0
E0
E0
E0
E0
E0
E0
E0
E0
E0
E0
E0
E0
E0
E0
E0
E0
E0
E0
ENDCHAR
STARTCHAR 0132
ENCODING 306
SWIDTH 697 0
DWIDTH 31 0
BBX 23 33 4 -1
BITMAP
E0000E
E0000E
E0000E
E0000E
E0000E
E0000E
E0000E
E0000E
E0000E
E0000E
E0000E
E0000E
E0000E
E0000E
E0000E
E0000E
E0000E
E0000E
E0000E
E0000E
E0000E
E0000E
E0000E
E0000E
E0000E
E0000E
E0000E
E0401E
E0701C
E0FC3C
E07FF8
E03FF0
0007C0
ENDCHAR
STARTCHAR 0133
ENCODING 307
SWIDTH 405 0
DWIDTH 18 0
BBX 14 42 2 -9
BITMAP
7038
F87C
F87C
F87C
7038
0000
0000
0000
0000
0000
7038
7038
7038
7038
7038
7038
7038
7038
7038
7038
7038
7038
7038
7038
7038
7038
7038
7038
7038
7038
7038
7038
7038
0038
0038
0038
0038
0038
0078
03F8
03F0
01E0
ENDCHAR
STARTCHAR 0134
ENCODING 308
SWIDTH 472 0
DWIDTH 21 0
BBX 19 43 2 -1
BITMAP
003800
007C00
00EE00
01C700
0383C0
0701E0
000000
000000
000000
000000
000E00
000E00
000E00
000E00
000E00
000E00
000E00
000E00
000E00
000E00
000E00
000E00
000E00
000E00
000E00
000E00
000E00
000E00
000E00
000E00
000E00
000E00
000E00
000E00
000E00
000E00
000E00
401E00
701C00
FC3C00
7FF800
3FF000
07C000
ENDCHAR
STARTCHAR 0135
ENCODING 309
SWIDTH 247 0
DWIDTH 11 0
BBX 14 43 -1 -9
BITMAP
0700
0F80
1DC0
38E0
7078
E03C
0000
0000
0000
0000
0000
0700
0700
0700
0700
0700
0700
0700
0700
0700
0700
0700
0700
0700
0700
0700
0700
0700
0700
0700
0700
0700
0700
0700
0700
0700
0700
0700
0700
0F00
7F00
7E00
3C00
ENDCHAR
STARTCHAR 0136
ENCODING 310
SWIDTH 585 0
DWIDTH 26 0
BBX 21 40 4 -8
BITMAP
E000F0
E001E0
E007C0
E00F80
E01E00
E03C00
E07800
E0F000
E1E000
E3C000
EF8000
FF0000
FC0000
F80000
F80000
FC0000
FE0000
EF0000
E78000
E3C000
E1E000
E0F000
E07800
E03C00
E01E00
E00F00
E00780
E007C0
E003C0
E001E0
E000F0
E00078
000000
000000
01E000
01F000
007000
007000
0FE000
0FC000
ENDCHAR
STARTCHAR 0137
ENCODING 311
SWIDTH 495 0
DWIDTH 22 0
BBX 17 41 4 -8
BITMAP
E00000
E00000
E00000
E00000
E00000
E00000
E00000
E00000
E00000
E00000
E00F00
E01E00
E03C00
E07800
E0F000
E1E000
E3C000
E78000
EF0000
FE0000
FC0000
FC0000
FE0000
EF0000
E78000
E3C000
E1E000
E0F000
E07800
E03C00
E01E00
E00F00
E00780
000000
000000
078000
07C000
01C000
01C000
3F8000
3F0000
ENDCHAR
STARTCHAR 0138
ENCODING 312
SWIDTH 495 0
DWIDTH 22 0
BBX 17 23 4 0
BITMAP
E00F00
E01E00
E03C00
E07800
E0F000
E1E000
E3C000
E78000
EF0000
FE0000
FC0000
FC0000
FE0000
EF0000
E78000
E3C000
E1E000
E0F000
E07800
E03C00
E01E00
E00F00
E00780
ENDCHAR
STARTCHAR 0139
ENCODING 313
SWIDTH 450 0
DWIDTH 20 0
BBX 15 43 4 0
BITMAP
01F0
01E0
03C0
0780
0700
0E00
1C00
0000
0000
0000
0000
E000
E000
E000
E000
E000
E000
E000
E000
E000
E000
E000
E000
E000
E000
E000
E000
E000
E000
E000
E000
E000
E000
E000
E000
E000
E000
E000
E000
E000
FFFE
FFFE
FFFE
ENDCHAR
STARTCHAR 013A
ENCODING 314
SWIDTH 247 0
DWIDTH 11 0
BBX 9 43 3 0
BITMAP
0F80
0F00
1E00
3C00
3800
7000
E000
0000
0000
0000
7000
7000
7000
7000
7000
7000
7000
7000
7000
7000
7000
7000
7000
7000
7000
7000
7000
7000
7000
7000
7000
7000
7000
7000
7000
7000
7000
7000
7000
7000
7000
7000
7000
ENDCHAR
STARTCHAR 013B
ENCODING 315
SWIDTH 450 0
DWIDTH 20 0
BBX 15 40 4 -8
BITMAP
E000
E000
E000
E000
E000
E000
E000
E000
E000
E000
E000
E000
E000
E000
E000
E000
E000
E000
E000
E000
E000
E000
E000
E000
E000
E000
E000
E000
E000
FFFE
FFFE
FFFE
0000
0000
0780
07C0
01C0
01C0
3F80
3F00
ENDCHAR
STARTCHAR 013C
ENCODING 316
SWIDTH 247 0
DWIDTH 11 0
BBX 8 41 -1 -8
BITMAP
07
07
07
07
07
07
07
07
07
07
07
07
07
07
07
07
07
07
07
07
07
07
07
07
07
07
07
07
07
07
07
07
07
00
00
1E
1F
07
07
FE
FC
ENDCHAR
STARTCHAR 013D
ENCODING 317
SWIDTH 450 0
DWIDTH 20 0
BBX 15 32 4 0
BITMAP
E380
E380
E380
E380
E380
E380
E180
E180
E180
E100
E300
E100
E000
E000
E000
E000
E000
E000
E000
E000
E000
E000
E000
E000
E000
E000
E000
E000
E000
FFFE
FFFE
FFFE
ENDCHAR
STARTCHAR 013E
ENCODING 318
SWIDTH 202 0
DWIDTH 9 0
BBX 8 33 3 0
BITMAP
E7
E7
E7
E7
E7
E3
E3
E3
E6
E2
E0
E0
E0
E0
E0
E0
E0
E0
E0
E0
E0
E0
E0
E0
E0
E0
E0
E0
E0
E0
E0
E0
E0
ENDCHAR
STARTCHAR 013F
ENCODING 319
SWIDTH 450 0
DWIDTH 20 0
BBX 15 32 4 0
BITMAP
E000
E000
E000
E000
E000
E000
E000
E000
E000
E000
E000
E000
E000
E0E0
E1F0
E1F0
E1F0
E0E0
E000
E000
E000
E000
E000
E000
E000
E000
E000
E000
E000
FFFE
FFFE
FFFE
ENDCHAR
STARTCHAR 0140
ENCODING 320
SWIDTH 270 0
DWIDTH 12 0
BBX 9 33 4 0
BITMAP
E000
E000
E000
E000
E000
E000
E000
E000
E000
E000
E000
E000
E000
E000
E700
EF80
EF80
EF80
E700
E000
E000
E000
E000
E000
E000
E000
E000
E000
E000
E000
E000
E000
E000
ENDCHAR
STARTCHAR 0141
ENCODING 321
SWIDTH 517 0
DWIDTH 23 0
BBX 20 32 2 0
BITMAP
0E0000
0E0000
0E0000
0E0000
0E0000
0E0000
0E0000
0E0000
0E0000
0E0400
0E0C00
0E3C00
0E7C00
0EF000
0FE000
0FC000
0F8000
1E0000
3E0000
7E0000
FE0000
EE0000
8E0000
0E0000
0E0000
0E0000
0E0000
0E0000
0E0000
0FFFF0
0FFFF0
0FFFF0
ENDCHAR
STARTCHAR 0142
ENCODING 322
SWIDTH 292 0
DWIDTH 13 0
BBX 11 33 1 0
BITMAP
0E00
0E00
0E00
0E00
0E00
0E00
0E00
0E00
0E00
0E00
0E20
0EE0
0FE0
0FE0
1F80
3E00
FE00
FE00
EE00
8E00
0E00
0E00
0E00
0E00
0E00
0E00
0E00
0E00
0E00
0E00
0E00
0E00
0E00
ENDCHAR
STARTCHAR 0143
ENCODING 323
SWIDTH 742 0
DWIDTH 33 0
BBX 25 43 4 0
BITMAP
0007C000
00078000
000F0000
001E0000
001C0000
00380000
00700000
00000000
00000000
00000000
00000000
80000380
C0000380
E0000380
F0000380
F8000380
F8000380
FC000380
FE000380
EF000380
E7800380
E3C00380
E1E00380
E0E00380
E0700380
E0780380
E03C0380
E01E0380
E00F0380
E0078380
E003C380
E001C380
E001E380
E000F380
E0007B80
E0003F80
E0001F80
E0000F80
E0000F80
E0000780
E0000380
E0000180
E0000080
ENDCHAR
STARTCHAR 0144
ENCODING 324
SWIDTH 607 0
DWIDTH 27 0
BBX 19 33 4 0
BITMAP
007C00
007800
00F000
01E000
01C000
038000
070000
000000
000000
000000
E0FC00
E3FF00
EFFF80
FF0780
FC01C0
F800C0
F800E0
F000E0
F000E0
E000E0
E000E0
E000E0
E000E0
E000E0
E000E0
E000E0
E000E0
E000E0
E000E0
E000E0
E000E0
E000E0
E000E0
ENDCHAR
STARTCHAR 0145
ENCODING 325
SWIDTH 742 0
DWIDTH 33 0
BBX 25 40 4 -8
BITMAP
80000380
C0000380
E0000380
F0000380
F8000380
F8000380
FC000380
FE000380
EF000380
E7800380
E3C00380
E1E00380
E0E00380
E0700380
E0780380
E03C0380
E01E0380
E00F0380
E0078380
E003C380
E001C380
E001E380
E000F380
E0007B80
E0003F80
E0001F80
E0000F80
E0000F80
E0000780
E0000380
E0000180
E0000080
00000000
00000000
003C0000
003E0000
000E0000
000E0000
01FC0000
01F80000
ENDCHAR
STARTCHAR 0146
ENCODING 326
SWIDTH 607 0
DWIDTH 27 0
BBX 19 31 4 -8
BITMAP
E0FC00
E3FF00
EFFF80
FF0780
FC01C0
F800C0
F800E0
F000E0
F000E0
E000E0
E000E0
E000E0
E000E0
E000E0
E000E0
E000E0
E000E0
E000E0
E000E0
E000E0
E000E0
E000E0
E000E0
000000
000000
01E000
01F000
007000
007000
0FE000
0FC000
ENDCHAR
STARTCHAR 0147
ENCODING 327
SWIDTH 742 0
DWIDTH 33 0
BBX 25 42 4 0
BITMAP
0780E000
03C1C000
00E78000
007F0000
003E0000
001C0000
00000000
00000000
00000000
00000000
80000380
C0000380
E0000380
F0000380
F8000380
F8000380
FC000380
FE000380
EF000380
E7800380
E3C00380
E1E00380
E0E00380
E0700380
E0780380
E03C0380
E01E0380
E00F0380
E0078380
E003C380
E001C380
E001E380
E000F380
E0007B80
E0003F80
E0001F80
E0000F80
E0000F80
E0000780
E0000380
E0000180
E0000080
ENDCHAR
STARTCHAR 0148
ENCODING 328
SWIDTH 607 0
DWIDTH 27 0
BBX 19 32 4 0
BITMAP
3C0700
1E0E00
073C00
03F800
01F000
00E000
000000
000000
000000
E0FC00
E3FF00
EFFF80
FF0780
FC01C0
F800C0
F800E0
F000E0
F000E0
E000E0
E000E0
E000E0
E000E0
E000E0
E000E0
E000E0
E000E0
E000E0
E000E0
E000E0
E000E0
E000E0
E000E0
ENDCHAR
STARTCHAR 0149
ENCODING 329
SWIDTH 607 0
DWIDTH 27 0
BBX 24 33 -1 0
BITMAP
E00000
E00000
E00000
E00000
E00000
E00000
600000
600000
600000
400000
C707E0
471FF8
077FFC
07F83C
07E00E
07C006
07C007
078007
078007
070007
070007
070007
070007
070007
070007
070007
070007
070007
070007
070007
070007
070007
070007
ENDCHAR
STARTCHAR 014A
ENCODING 330
SWIDTH 765 0
DWIDTH 34 0
BBX 27 33 4 0
BITMAP
007F8000
E1FFE000
E7FFF800
EFC0FC00
FE003E00
FC001F00
F8000F00
F0000780
E0000380
E00003C0
E00001C0
E00001C0
E00000E0
E00000E0
E00000E0
E00000E0
E00000E0
E00000E0
E00000E0
E00000E0
E00000E0
E00001E0
E00001C0
E00001C0
E00003C0
E0000380
E0000780
E0800F00
E1C01E00
E1F07E00
E0FFFC00
E03FF000
E00FC000
ENDCHAR
STARTCHAR 014B
ENCODING 331
SWIDTH 607 0
DWIDTH 27 0
BBX 19 32 4 -9
BITMAP
E0FC00
E3FF00
E7FF80
EF0780
FC03C0
F801C0
F001E0
F000E0
E000E0
E000E0
E000E0
E000E0
E000E0
E000E0
E000E0
E000E0
E000E0
E000E0
E000E0
E000E0
E000E0
E000E0
E000E0
0000E0
0000E0
0000E0
0000E0
0000E0
0001E0
000FE0
000FC0
000780
ENDCHAR
STARTCHAR 014C
ENCODING 332
SWIDTH 855 0
DWIDTH 38 0
BBX 32 39 3 -1
BITMAP
007FFE00
007FFE00
007FFE00
00000000
00000000
000FF000
007FFE00
00FFFF00
03F81FC0
07C003E0
0F8001F0
1E000078
1C000038
3C00003C
3800001C
7000000E
7000000E
7000000E
E0000007
E0000007
E0000007
E0000007
E0000007
E0000007
E0000007
E0000007
F000000E
7000000E
7000000E
3800001C
3C00003C
1C000038
1E000078
0F0000F0
07C003E0
03F00FC0
01FFFF80
007FFE00
000FF000
ENDCHAR
STARTCHAR 014D
ENCODING 333
SWIDTH 652 0
DWIDTH 29 0
BBX 25 32 2 0
BITMAP
03FFF000
03FFF000
03FFF000
00000000
00000000
00000000
00000000
00000000
00000000
007F0000
03FFE000
07FFF000
1F80FC00
1E003C00
3C001E00
78000F00
70000700
F0000780
E0000380
E0000380
E0000380
E0000380
E0000380
F0000780
70000700
78000F00
3C001E00
3E003E00
1F80FC00
07FFF000
03FFE000
007F0000
ENDCHAR
STARTCHAR 014E
ENCODING 334
SWIDTH 855 0
DWIDTH 38 0
BBX 32 43 3 -1
BITMAP
00700700
00780F00
003C1E00
001FFC00
000FF800
0003F000
00000000
00000000
00000000
000FF000
007FFE00
00FFFF00
03F81FC0
07C003E0
0F8001F0
1E000078
1C000038
3C00003C
3800001C
7000000E
7000000E
7000000E
E0000007
E0000007
E0000007
E0000007
E0000007
E0000007
E0000007
E0000007
F000000E
7000000E
7000000E
3800001C
3C00003C
1C000038
1E000078
0F0000F0
07C003E0
03F00FC0
01FFFF80
007FFE00
000FF000
ENDCHAR
STARTCHAR 014F
ENCODING 335
SWIDTH 652 0
DWIDTH 29 0
BBX 25 32 2 0
BITMAP
07007000
0780F000
03C1E000
01FFC000
00FF8000
003F0000
00000000
00000000
00000000
007F0000
03FFE000
07FFF000
1F80FC00
1E003C00
3C001E00
78000F00
70000700
F0000780
E0000380
E0000380
E0000380
E0000380
E0000380
F0000780
70000700
78000F00
3C001E00
3E003E00
1F80FC00
07FFF000
03FFE000
007F0000
ENDCHAR
STARTCHAR 0150
ENCODING 336
SWIDTH 855 0
DWIDTH 38 0
BBX 32 44 3 -1
BITMAP
0001F3E0
0001E3C0
0003C780
00078F00
00070E00
000E1C00
001C3800
00000000
00000000
00000000
000FF000
007FFE00
00FFFF00
03F81FC0
07C003E0
0F8001F0
1E000078
1C000038
3C00003C
3800001C
7000000E
7000000E
7000000E
E0000007
E0000007
E0000007
E0000007
E0000007
E0000007
E0000007
E0000007
F000000E
7000000E
7000000E
3800001C
3C00003C
1C000038
1E000078
0F0000F0
07C003E0
03F00FC0
01FFFF80
007FFE00
000FF000
ENDCHAR
STARTCHAR 0151
ENCODING 337
SWIDTH 652 0
DWIDTH 29 0
BBX 25 33 2 0
BITMAP
003E7C00
003C7800
0078F000
00F1E000
00E1C000
01C38000
03870000
00000000
00000000
00000000
007F0000
03FFE000
07FFF000
1F80FC00
1E003C00
3C001E00
78000F00
70000700
F0000780
E0000380
E0000380
E0000380
E0000380
E0000380
F0000780
70000700
78000F00
3C001E00
3E003E00
1F80FC00
07FFF000
03FFE000
007F0000
ENDCHAR
STARTCHAR 0152
ENCODING 338
SWIDTH 1192 0
DWIDTH 53 0
BBX 48 34 3 -1
BITMAP
0007F0000000
003FFE03FFFF
00FFFF83FFFF
01F80FC3FFFF
07C003F38000
0F8000FB8000
0F00007B8000
1E00003F8000
3C00001F8000
3800000F8000
7800000F8000
700000078000
700000078000
E00000038000
E0000003FFFF
E0000003FFFF
E0000003FFFF
E00000038000
E00000038000
E00000038000
E00000038000
700000078000
700000078000
7000000F8000
3800000F8000
3C00001F8000
1E00003F8000
1F00007F8000
0F8000FB8000
07C001F38000
03F80FE3FFFF
00FFFF83FFFF
007FFE03FFFF
000FF8000000
ENDCHAR
STARTCHAR 0153
ENCODING 339
SWIDTH 1125 0
DWIDTH 50 0
BBX 45 23 2 0
BITMAP
007E0007F800
03FFC01FFE00
07FFE03FFF80
1F81F07C0FC0
3E0078F001E0
3C003DC000E0
78001FC00070
70000F800070
F0000F000038
E00007FFFFF8
E00007FFFFF8
E00007FFFFF8
E00007000000
E00007000000
F0000F000040
70000F800070
78001F8000E0
3C001DC001E0
3E0079F003C0
1F81F8FC0F80
07FFE07FFF00
03FFC01FFE00
00FF0007F000
ENDCHAR
STARTCHAR 0154
ENCODING 340
SWIDTH 607 0
DWIDTH 27 0
BBX 20 43 4 0
BITMAP
003E00
003C00
007800
00F000
00E000
01C000
038000
000000
000000
000000
000000
FFFC00
FFFF00
FFFFC0
E007C0
E001E0
E000F0
E00070
E00070
E00070
E00070
E00070
E000E0
E001E0
E007C0
FFFF80
FFFF00
FFFC00
E38000
E3C000
E1E000
E0E000
E07000
E07800
E03C00
E01C00
E00E00
E00F00
E00780
E00380
E001C0
E001E0
E000F0
ENDCHAR
STARTCHAR 0155
ENCODING 341
SWIDTH 292 0
DWIDTH 13 0
BBX 12 33 2 0
BITMAP
07C0
0780
0F00
1E00
1C00
3800
7000
0000
0000
0000
E1E0
E7F0
EFE0
FE00
F800
F800
F000
F000
E000
E000
E000
E000
E000
E000
E000
E000
E000
E000
E000
E000
E000
E000
E000
ENDCHAR
STARTCHAR 0156
ENCODING 342
SWIDTH 607 0
DWIDTH 27 0
BBX 20 40 4 -8
BITMAP
FFFC00
FFFF00
FFFFC0
E007C0
E001E0
E000F0
E00070
E00070
E00070
E00070
E00070
E000E0
E001E0
E007C0
FFFF80
FFFF00
FFFC00
E38000
E3C000
E1E000
E0E000
E07000
E07800
E03C00
E01C00
E00E00
E00F00
E00780
E00380
E001C0
E001E0
E000F0
000000
000000
01E000
01F000
007000
007000
0FE000
0FC000
ENDCHAR
STARTCHAR 0157
ENCODING 343
SWIDTH 292 0
DWIDTH 13 0
BBX 13 31 1 -8
BITMAP
70F0
73F8
77F0
7F00
7C00
7C00
7800
7800
7000
7000
7000
7000
7000
7000
7000
7000
7000
7000
7000
7000
7000
7000
7000
0000
0000
1E00
1F00
0700
0700
FE00
FC00
ENDCHAR
STARTCHAR 0158
ENCODING 344
SWIDTH 607 0
DWIDTH 27 0
BBX 20 42 4 0
BITMAP
780E00
3C1C00
0E7800
07F000
03E000
01C000
000000
000000
000000
000000
FFFC00
FFFF00
FFFFC0
E007C0
E001E0
E000F0
E00070
E00070
E00070
E00070
E00070
E000E0
E001E0
E007C0
FFFF80
FFFF00
FFFC00
E38000
E3C000
E1E000
E0E000
E07000
E07800
E03C00
E01C00
E00E00
E00F00
E00780
E00380
E001C0
E001E0
E000F0
ENDCHAR
STARTCHAR 0159
ENCODING 345
SWIDTH 292 0
DWIDTH 13 0
BBX 15 34 -1 0
BITMAP
F01C
7838
1CF0
0FE0
07C0
0380
0000
0000
0000
0000
0000
1C3C
1CFE
1DFC
1FC0
1F00
1F00
1E00
1E00
1C00
1C00
1C00
1C00
1C00
1C00
1C00
1C00
1C00
1C00
1C00
1C00
1C00
1C00
1C00
ENDCHAR
STARTCHAR 015A
ENCODING 346
SWIDTH 495 0
DWIDTH 22 0
BBX 18 44 1 -1
BITMAP
001F00
001E00
003C00
007800
007000
00E000
01C000
000000
000000
000000
01F000
07FE00
0FFF00
1E0F80
1C07C0
380380
380100
380000
380000
380000
1C0000
1E0000
0F0000
078000
03E000
01F000
00F800
007C00
001E00
000F00
000780
000380
0003C0
0001C0
0001C0
0001C0
2001C0
F001C0
700380
780780
3E0F00
1FFE00
0FFC00
03F000
ENDCHAR
STARTCHAR 015B
ENCODING 347
SWIDTH 382 0
DWIDTH 17 0
BBX 14 33 1 0
BITMAP
03E0
03C0
0780
0F00
0E00
1C00
3800
0000
0000
0000
07C0
1FE0
3FF8
7C7C
701C
7008
7000
7800
3C00
3E00
1F80
07E0
01F0
0078
003C
001C
001C
401C
603C
F878
7FF8
3FF0
0FC0
ENDCHAR
STARTCHAR 015C
ENCODING 348
SWIDTH 495 0
DWIDTH 22 0
BBX 18 43 1 -1
BITMAP
007000
00F800
01DC00
038E00
070780
0E03C0
000000
000000
000000
01F000
07FE00
0FFF00
1E0F80
1C07C0
380380
380100
380000
380000
380000
1C0000
1E0000
0F0000
078000
03E000
01F000
00F800
007C00
001E00
000F00
000780
000380
0003C0
0001C0
0001C0
0001C0
2001C0
F001C0
700380
780780
3E0F00
1FFE00
0FFC00
03F000
ENDCHAR
STARTCHAR 015D
ENCODING 349
SWIDTH 382 0
DWIDTH 17 0
BBX 15 32 1 0
BITMAP
0380
07C0
0EE0
1C70
383C
701E
0000
0000
0000
07C0
1FE0
3FF8
7C7C
701C
7008
7000
7800
3C00
3E00
1F80
07E0
01F0
0078
003C
001C
001C
401C
603C
F878
7FF8
3FF0
0FC0
ENDCHAR
STARTCHAR 015E
ENCODING 350
SWIDTH 495 0
DWIDTH 22 0
BBX 18 42 1 -9
BITMAP
01F000
07FE00
0FFF00
1E0F80
1C07C0
380380
380100
380000
380000
380000
1C0000
1E0000
0F0000
078000
03E000
01F000
00F800
007C00
001E00
000F00
000780
000380
0003C0
0001C0
0001C0
0001C0
2001C0
F001C0
700380
780780
3E0F00
1FFE00
0FFC00
03F000
00C000
00C000
00F000
01F800
003800
003800
0FF000
07E000
ENDCHAR
STARTCHAR 015F
ENCODING 351
SWIDTH 382 0
DWIDTH 17 0
BBX 14 32 1 -9
BITMAP
07C0
1FE0
3FF8
7C7C
701C
7008
7000
7800
3C00
3E00
1F80
07E0
01F0
0078
003C
001C
001C
401C
603C
F878
7FF8
3FF0
0FC0
0300
0300
0300
03C0
07E0
00E0
00E0
3FC0
1F80
ENDCHAR
STARTCHAR 0160
ENCODING 352
SWIDTH 495 0
DWIDTH 22 0
BBX 18 43 1 -1
BITMAP
780E00
3C1C00
0E7800
07F000
03E000
01C000
000000
000000
000000
01F000
07FE00
0FFF00
1E0F80
1C07C0
380380
380100
380000
380000
380000
1C0000
1E0000
0F0000
078000
03E000
01F000
00F800
007C00
001E00
000F00
000780
000380
0003C0
0001C0
0001C0
0001C0
2001C0
F001C0
700380
780780
3E0F00
1FFE00
0FFC00
03F000
ENDCHAR
STARTCHAR 0161
ENCODING 353
SWIDTH 382 0
DWIDTH 17 0
BBX 14 32 1 0
BITMAP
F01C
7838
1CF0
0FE0
07C0
0380
0000
0000
0000
07C0
1FE0
3FF8
7C7C
701C
7008
7000
7800
3C00
3E00
1F80
07E0
01F0
0078
003C
001C
001C
401C
603C
F878
7FF8
3FF0
0FC0
ENDCHAR
STARTCHAR 0162
ENCODING 354
SWIDTH 405 0
DWIDTH 18 0
BBX 17 41 0 -9
BITMAP
FFFF80
FFFF80
FFFF80
01C000
01C000
01C000
01C000
01C000
01C000
01C000
01C000
01C000
01C000
01C000
01C000
01C000
01C000
01C000
01C000
01C000
01C000
01C000
01C000
01C000
01C000
01C000
01C000
01C000
01C000
01C000
01C000
01C000
000000
000000
000000
01C000
01C000
01C000
004000
00C000
00C000
ENDCHAR
STARTCHAR 0163
ENCODING 355
SWIDTH 315 0
DWIDTH 14 0
BBX 11 42 2 -9
BITMAP
0E00
0E00
0E00
0E00
0E00
0E00
0E00
0E00
0E00
0E00
FFE0
FFE0
FFE0
0E00
0E00
0E00
0E00
0E00
0E00
0E00
0E00
0E00
0E00
0E00
0E00
0E00
0E00
0E00
0E00
0E00
0E00
0E00
0E00
0000
0000
0000
0E00
0E00
0E00
0200
0600
0600
ENDCHAR
STARTCHAR 0164
ENCODING 356
SWIDTH 405 0
DWIDTH 18 0
BBX 17 42 0 0
BITMAP
780E00
3C1C00
0E7800
07F000
03E000
01C000
000000
000000
000000
000000
FFFF80
FFFF80
FFFF80
01C000
01C000
01C000
01C000
01C000
01C000
01C000
01C000
01C000
01C000
01C000
01C000
01C000
01C000
01C000
01C000
01C000
01C000
01C000
01C000
01C000
01C000
01C000
01C000
01C000
01C000
01C000
01C000
01C000
ENDCHAR
STARTCHAR 0165
ENCODING 357
SWIDTH 315 0
DWIDTH 14 0
BBX 12 33 2 0
BITMAP
0E70
0E70
0E70
0E70
0E30
0E30
0E20
0E60
0E00
0E00
FFE0
FFE0
FFE0
0E00
0E00
0E00
0E00
0E00
0E00
0E00
0E00
0E00
0E00
0E00
0E00
0E00
0E00
0E00
0E00
0E00
0E00
0E00
0E00
ENDCHAR
STARTCHAR 0166
ENCODING 358
SWIDTH 427 0
DWIDTH 19 0
BBX 17 32 1 0
BITMAP
FFFF80
FFFF80
FFFF80
01C000
01C000
01C000
01C000
01C000
01C000
01C000
01C000
01C000
01C000
01C000
01C000
7FFF00
7FFF00
7FFF00
01C000
01C000
01C000
01C000
01C000
01C000
01C000
01C000
01C000
01C000
01C000
01C000
01C000
01C000
ENDCHAR
STARTCHAR 0167
ENCODING 359
SWIDTH 337 0
DWIDTH 15 0
BBX 13 33 1 0
BITMAP
0700
0700
0700
0700
0700
0700
0700
0700
0700
0700
7FF0
7FF0
7FF0
0700
0700
0700
0700
0700
0700
0700
FFF8
FFF8
FFF8
0700
0700
0700
0700
0700
0700
0700
0700
0700
0700
ENDCHAR
STARTCHAR 0168
ENCODING 360
SWIDTH 652 0
DWIDTH 29 0
BBX 21 42 4 -1
BITMAP
07C000
0FF180
1FFFC0
1C7F80
081F00
000000
000000
000000
000000
E00038
E00038
E00038
E00038
E00038
E00038
E00038
E00038
E00038
E00038
E00038
E00038
E00038
E00038
E00038
E00038
E00038
E00038
E00038
E00038
E00038
E00038
E00038
E00038
E00038
F00070
700070
7800F0
3C01E0
3F07C0
1FFFC0
07FF00
01FC00
ENDCHAR
STARTCHAR 0169
ENCODING 361
SWIDTH 607 0
DWIDTH 27 0
BBX 19 31 4 0
BITMAP
0F8000
1FE300
3FFF80
38FF00
103E00
000000
000000
000000
E000E0
E000E0
E000E0
E000E0
E000E0
E000E0
E000E0
E000E0
E000E0
E000E0
E000E0
E000E0
E000E0
E000E0
E000E0
E000E0
7001C0
7001C0
7803C0
3E0F80
1FFF00
0FFE00
03F800
ENDCHAR
STARTCHAR 016A
ENCODING 362
SWIDTH 652 0
DWIDTH 29 0
BBX 21 39 4 -1
BITMAP
0FFFC0
0FFFC0
0FFFC0
000000
000000
000000
E00038
E00038
E00038
E00038
E00038
E00038
E00038
E00038
E00038
E00038
E00038
E00038
E00038
E00038
E00038
E00038
E00038
E00038
E00038
E00038
E00038
E00038
E00038
E00038
E00038
F00070
700070
7800F0
3C01E0
3F07C0
1FFFC0
07FF00
01FC00
ENDCHAR
STARTCHAR 016B
ENCODING 363
SWIDTH 607 0
DWIDTH 27 0
BBX 19 32 4 0
BITMAP
1FFF80
1FFF80
1FFF80
000000
000000
000000
000000
000000
000000
E000E0
E000E0
E000E0
E000E0
E000E0
E000E0
E000E0
E000E0
E000E0
E000E0
E000E0
E000E0
E000E0
E000E0
E000E0
E000E0
7001C0
7001C0
7803C0
3E0F80
1FFF00
0FFE00
03F800
ENDCHAR
STARTCHAR 016C
ENCODING 364
SWIDTH 652 0
DWIDTH 29 0
BBX 21 43 4 -1
BITMAP
1C01C0
1E03C0
0F0780
07FF00
03FE00
00FC00
000000
000000
000000
000000
E00038
E00038
E00038
E00038
E00038
E00038
E00038
E00038
E00038
E00038
E00038
E00038
E00038
E00038
E00038
E00038
E00038
E00038
E00038
E00038
E00038
E00038
E00038
E00038
E00038
F00070
700070
7800F0
3C01E0
3F07C0
1FFFC0
07FF00
01FC00
ENDCHAR
STARTCHAR 016D
ENCODING 365
SWIDTH 607 0
DWIDTH 27 0
BBX 19 32 4 0
BITMAP
380380
3C0780
1E0F00
0FFE00
07FC00
01F800
000000
000000
000000
E000E0
E000E0
E000E0
E000E0
E000E0
E000E0
E000E0
E000E0
E000E0
E000E0
E000E0
E000E0
E000E0
E000E0
E000E0
E000E0
7001C0
7001C0
7803C0
3E0F80
1FFF00
0FFE00
03F800
ENDCHAR
STARTCHAR 016E
ENCODING 366
SWIDTH 652 0
DWIDTH 29 0
BBX 21 46 4 -1
BITMAP
00F000
01FC00
038E00
030600
030600
030600
038E00
01FC00
00F800
000000
000000
000000
000000
E00038
E00038
E00038
E00038
E00038
E00038
E00038
E00038
E00038
E00038
E00038
E00038
E00038
E00038
E00038
E00038
E00038
E00038
E00038
E00038
E00038
E00038
E00038
E00038
E00038
F00070
700070
7800F0
3C01E0
3F07C0
1FFFC0
07FF00
01FC00
ENDCHAR
STARTCHAR 016F
ENCODING 367
SWIDTH 607 0
DWIDTH 27 0
BBX 19 35 4 0
BITMAP
01E000
03F800
071C00
060C00
060C00
060C00
071C00
03F800
01F000
000000
000000
000000
E000E0
E000E0
E000E0
E000E0
E000E0
E000E0
E000E0
E000E0
E000E0
E000E0
E000E0
E000E0
E000E0
E000E0
E000E0
E000E0
7001C0
7001C0
7803C0
3E0F80
1FFF00
0FFE00
03F800
ENDCHAR
STARTCHAR 0170
ENCODING 368
SWIDTH 652 0
DWIDTH 29 0
BBX 21 44 4 -1
BITMAP
00F9F0
00F1E0
01E3C0
03C780
038700
070E00
0E1C00
000000
000000
000000
000000
E00038
E00038
E00038
E00038
E00038
E00038
E00038
E00038
E00038
E00038
E00038
E00038
E00038
E00038
E00038
E00038
E00038
E00038
E00038
E00038
E00038
E00038
E00038
E00038
E00038
F00070
700070
7800F0
3C01E0
3F07C0
1FFFC0
07FF00
01FC00
ENDCHAR
STARTCHAR 0171
ENCODING 369
SWIDTH 607 0
DWIDTH 27 0
BBX 19 33 4 0
BITMAP
01F3E0
01E3C0
03C780
078F00
070E00
0E1C00
1C3800
000000
000000
000000
E000E0
E000E0
E000E0
E000E0
E000E0
E000E0
E000E0
E000E0
E000E0
E000E0
E000E0
E000E0
E000E0
E000E0
E000E0
E000E0
7001C0
7001C0
7803C0
3E0F80
1FFF00
0FFE00
03F800
ENDCHAR
STARTCHAR 0172
ENCODING 370
SWIDTH 652 0
DWIDTH 29 0
BBX 21 40 4 -8
BITMAP
E00038
E00038
E00038
E00038
E00038
E00038
E00038
E00038
E00038
E00038
E00038
E00038
E00038
E00038
E00038
E00038
E00038
E00038
E00038
E00038
E00038
E00038
E00038
E00038
E00038
F00070
700070
7800F0
3C01E0
3F07C0
1FFFC0
07FF00
01FC00
007000
00E000
00E000
00E000
00F000
007F00
001F00
ENDCHAR
STARTCHAR 0173
ENCODING 371
SWIDTH 607 0
DWIDTH 27 0
BBX 19 31 4 -8
BITMAP
E000E0
E000E0
E000E0
E000E0
E000E0
E000E0
E000E0
E000E0
E000E0
E000E0
E000E0
E000E0
E000E0
E000E0
E000E0
E000E0
7001C0
7001C0
7803C0
3E0F80
1FFF00
0FFE00
03F800
00E000
01C000
038000
038000
038000
03C000
01FC00
007C00
ENDCHAR
STARTCHAR 0174
ENCODING 372
SWIDTH 922 0
DWIDTH 41 0
BBX 37 42 2 0
BITMAP
0000700000
0000F80000
0001DC0000
00038E0000
0007078000
000E03C000
0000000000
0000000000
0000000000
0000000000
E000200038
F000300038
7000700070
7000700070
7000780070
7800F800F0
3800F800E0
3800FC00E0
3801DC00E0
1C01DE01C0
1C039E01C0
1C038E01C0
1C038F01C0
0E070F0380
0E07070380
0E07078380
0F0E038780
070E03C700
071C03C700
071C01C700
079C01EE00
03B801EE00
03B800EE00
03B800FE00
01F0007C00
01F0007C00
01F0007C00
01E0003C00
00E0003800
00E0003800
00C0001800
00C0001800
ENDCHAR
STARTCHAR 0175
ENCODING 373
SWIDTH 855 0
DWIDTH 38 0
BBX 37 32 0 0
BITMAP
0000700000
0000F80000
0001DC0000
00038E0000
0007078000
000E03C000
0000000000
0000000000
0000000000
E000200038
F000700070
7000700070
7800F800E0
3800F800E0
3C00F801E0
1C01DC01C0
1C01DC01C0
1E038E0380
0E038E0380
0F07070700
0707070700
078F070E00
038E038E00
038E038E00
01DC01DC00
01DC01DC00
01F800F800
00F800F800
00F0007000
0070007000
0070006000
0020002000
ENDCHAR
STARTCHAR 0176
ENCODING 374
SWIDTH 562 0
DWIDTH 25 0
BBX 23 42 1 0
BITMAP
003800
007C00
00EE00
01C700
0383C0
0701E0
000000
000000
000000
000000
F0000E
70001C
78003C
380038
3C0070
1E00F0
0E00E0
0F01C0
0781C0
038380
03C780
01C700
01EE00
00FE00
007C00
007C00
003800
003800
003800
003800
003800
003800
003800
003800
003800
003800
003800
003800
003800
003800
003800
003800
ENDCHAR
STARTCHAR 0177
ENCODING 375
SWIDTH 517 0
DWIDTH 23 0
BBX 22 41 0 -9
BITMAP
007000
00F800
01DC00
038E00
070780
0E03C0
000000
000000
000000
E0001C
F00038
700038
780070
380070
3C00F0
1C00E0
1E01E0
1E01C0
0E01C0
0F0380
070380
078780
038700
03CF00
01CE00
01EE00
00FC00
00FC00
00F800
007800
007800
007000
007000
00E000
00E000
01C000
01C000
03C000
038000
078000
070000
ENDCHAR
STARTCHAR 0178
ENCODING 376
SWIDTH 562 0
DWIDTH 25 0
BBX 23 41 1 0
BITMAP
070380
0F87C0
0F87C0
0F87C0
070380
000000
000000
000000
000000
F0000E
70001C
78003C
380038
3C0070
1E00F0
0E00E0
0F01C0
0781C0
038380
03C780
01C700
01EE00
00FE00
007C00
007C00
003800
003800
003800
003800
003800
003800
003800
003800
003800
003800
003800
003800
003800
003800
003800
003800
ENDCHAR
STARTCHAR 0179
ENCODING 377
SWIDTH 472 0
DWIDTH 21 0
BBX 17 43 1 0
BITMAP
007C00
007800
00F000
01E000
01C000
038000
070000
000000
000000
000000
000000
7FFF80
7FFF00
7FFF00
000600
000E00
000E00
001C00
001C00
001800
003800
003000
007000
006000
00E000
00E000
01C000
01C000
038000
038000
030000
070000
060000
0E0000
0C0000
1C0000
1C0000
380000
380000
300000
7FFF80
7FFF80
FFFF80
ENDCHAR
STARTCHAR 017A
ENCODING 378
SWIDTH 427 0
DWIDTH 19 0
BBX 19 33 0 0
BITMAP
003E00
003C00
007800
00F000
00E000
01C000
038000
000000
000000
000000
7FFFE0
7FFFC0
7FFF80
000780
000F00
000E00
001E00
003C00
003800
007800
00F000
00E000
01E000
03C000
038000
078000
0F0000
0E0000
1E0000
3C0000
3FFFE0
7FFFE0
FFFFE0
ENDCHAR
STARTCHAR 017B
ENCODING 379
SWIDTH 472 0
DWIDTH 21 0
BBX 17 41 1 0
BITMAP
038000
07C000
07C000
07C000
038000
000000
000000
000000
000000
7FFF80
7FFF00
7FFF00
000600
000E00
000E00
001C00
001C00
001800
003800
003000
007000
006000
00E000
00E000
01C000
01C000
038000
038000
030000
070000
060000
0E0000
0C0000
1C0000
1C0000
380000
380000
300000
7FFF80
7FFF80
FFFF80
ENDCHAR
STARTCHAR 017C
ENCODING 380
SWIDTH 427 0
DWIDTH 19 0
BBX 19 31 0 0
BITMAP
00E000
01F000
01F000
01F000
00E000
000000
000000
000000
7FFFE0
7FFFC0
7FFF80
000780
000F00
000E00
001E00
003C00
003800
007800
00F000
00E000
01E000
03C000
038000
078000
0F0000
0E0000
1E0000
3C0000
3FFFE0
7FFFE0
FFFFE0
ENDCHAR
STARTCHAR 017D
ENCODING 381
SWIDTH 472 0
DWIDTH 21 0
BBX 17 42 1 0
BITMAP
780E00
3C1C00
0E7800
07F000
03E000
01C000
000000
000000
000000
000000
7FFF80
7FFF00
7FFF00
000600
000E00
000E00
001C00
001C00
001800
003800
003000
007000
006000
00E000
00E000
01C000
01C000
038000
038000
030000
070000
060000
0E0000
0C0000
1C0000
1C0000
380000
380000
300000
7FFF80
7FFF80
FFFF80
ENDCHAR
STARTCHAR 017E
ENCODING 382
SWIDTH 427 0
DWIDTH 19 0
BBX 19 32 0 0
BITMAP
3C0700
1E0E00
073C00
03F800
01F000
00E000
000000
000000
000000
7FFFE0
7FFFC0
7FFF80
000780
000F00
000E00
001E00
003C00
003800
007800
00F000
00E000
01E000
03C000
038000
078000
0F0000
0E0000
1E0000
3C0000
3FFFE0
7FFFE0
FFFFE0
ENDCHAR
STARTCHAR 017F
ENCODING 383
SWIDTH 247 0
DWIDTH 11 0
BBX 8 33 4 0
BITMAP
3E
7F
FF
F1
E0
E0
E0
E0
E0
E0
E0
E0
E0
E0
E0
E0
E0
E0
E0
E0
E0
E0
E0
E0
E0
E0
E0
E0
E0
E0
E0
E0
E0
ENDCHAR
STARTCHAR 0192
ENCODING 402
SWIDTH 562 0
DWIDTH 25 0
BBX 20 42 1 -9
BITMAP
0003C0
0007F0
000FF0
000E30
000E00
001C00
001C00
001C00
001C00
001C00
003800
003800
003800
003800
03FFC0
03FFC0
03FFC0
007000
007000
007000
007000
007000
006000
00E000
00E000
00E000
00E000
00E000
00C000
01C000
01C000
01C000
01C000
01C000
03C000
038000
038000
078000
8F0000
FF0000
FE0000
780000
ENDCHAR
STARTCHAR 01FA
ENCODING 506
SWIDTH 697 0
DWIDTH 31 0
BBX 29 48 1 0
BITMAP
0001F000
0001E000
0003C000
00078000
00070000
000E0000
001C0000
00000000
000F0000
001FC000
0038E000
00306000
00306000
00306000
0038E000
001FC000
000F8000
00070000
00070000
000F8000
000F8000
000F8000
001DC000
001DC000
0038E000
0038E000
0078F000
00707000
00707000
00E03800
00E03800
01C01C00
01C01C00
03C01E00
03FFFE00
07FFFF00
07FFFF00
07000700
0E000380
0E000380
1C0001C0
1C0001C0
3C0001E0
380000E0
380000E0
70000070
70000070
E0000038
ENDCHAR
STARTCHAR 01FB
ENCODING 507
SWIDTH 675 0
DWIDTH 30 0
BBX 24 44 2 0
BITMAP
000F80
000F00
001E00
003C00
003800
007000
00E000
000000
000000
003C00
007F00
00E380
00C180
00C180
00C180
00E380
007F00
003E00
000000
000000
000000
00FF07
03FFC7
0FFFE7
1F81F7
3E007F
3C003F
78001F
70000F
F0000F
E00007
E00007
E00007
E00007
E00007
F0000F
70000F
78001F
3C001F
3E007F
1F81FF
0FFFF7
03FFC7
00FF07
ENDCHAR
STARTCHAR 01FC
ENCODING 508
SWIDTH 990 0
DWIDTH 44 0
BBX 40 43 0 0
BITMAP
0000000F80
0000000F00
0000001E00
0000003C00
0000003800
0000007000
000000E000
0000000000
0000000000
0000000000
0000000000
000007FFFF
00000FFFFF
00000FFFFF
00001F8000
00003B8000
00003B8000
0000738000
0000E38000
0000E38000
0001C38000
0003838000
0003838000
0007038000
000E03FFFF
000E03FFFF
001C03FFFF
0038038000
0038038000
007FFF8000
00FFFF8000
00FFFF8000
01C0038000
03C0038000
0380038000
0700038000
0F00038000
0E00038000
1C00038000
3C00038000
380003FFFF
700003FFFF
F00003FFFF
ENDCHAR
STARTCHAR 01FD
ENCODING 509
SWIDTH 1147 0
DWIDTH 51 0
BBX 45 33 4 0
BITMAP
000001F00000
000001E00000
000003C00000
000007800000
000007000000
00000E000000
00001C000000
000000000000
000000000000
000000000000
00FF0707F800
03FFC71FFE00
0FFFE73FFF80
1F81F77C0FC0
3E007FF001E0
38001FC000E0
78001F800070
70000F800070
F0000F000038
E00007FFFFF8
E00007FFFFF8
E00007FFFFF8
E00007000000
E00007000000
E0000F000040
70000F800070
78001FC000E0
3C003FC001E0
3E007FF003C0
1F81F7FC0F80
0FFFE77FFF00
03FFC73FFE00
00FF0707F800
ENDCHAR
STARTCHAR 01FE
ENCODING 510
SWIDTH 855 0
DWIDTH 38 0
BBX 32 45 3 -2
BITMAP
0000F800
0000F000
0001E000
0003C000
00038000
00070000
000E0000
00000000
00000000
00000008
000FF00C
007FFC1E
01FFFF3C
03F01FF8
07C003F0
0F8001F0
1E0001F8
1C0003F8
3C0003BC
3800071C
70000E0E
70001E0E
70003C0F
E0003807
E0007007
E000E007
E001C007
E003C007
E0038007
E0070007
E00E0007
F01C000E
703C000E
7078000E
7870001C
38E0003C
1DC00038
1FC00078
0F8000F0
07C003E0
0FF80FC0
1EFFFF80
3C3FFE00
780FF000
30000000
ENDCHAR
STARTCHAR 01FF
ENCODING 511
SWIDTH 652 0
DWIDTH 29 0
BBX 25 34 2 -1
BITMAP
0007C000
00078000
000F0000
001E0000
001C0000
00380000
00700000
00000000
00000000
00000000
007F0300
03FFE780
07FFFF00
1F80FE00
3E003C00
3C007E00
7800FF00
7001E700
E003C700
E0038380
E0070380
E00E0380
E01C0380
E0380380
F0700380
70F00700
79E00F00
3FC01E00
1F803E00
0F80FC00
1FFFF000
3FFFE000
78FF0000
30000000
ENDCHAR
STARTCHAR 02C6
ENCODING 710
SWIDTH 495 0
DWIDTH 22 0
BBX 14 6 4 28
BITMAP
0700
0F80
1DC0
38E0
7078
E03C
ENDCHAR
STARTCHAR 02C7
ENCODING 711
SWIDTH 495 0
DWIDTH 22 0
BBX 14 6 3 28
BITMAP
F01C
7838
1CF0
0FE0
07C0
0380
ENDCHAR
STARTCHAR 02C9
ENCODING 713
SWIDTH 472 0
DWIDTH 21 0
BBX 14 3 3 29
BITMAP
FFFC
FFFC
FFFC
ENDCHAR
STARTCHAR 02D8
ENCODING 728
SWIDTH 450 0
DWIDTH 20 0
BBX 15 6 2 28
BITMAP
E00E
F01E
783C
3FF8
1FF0
07E0
ENDCHAR
STARTCHAR 02D9
ENCODING 729
SWIDTH 225 0
DWIDTH 10 0
BBX 5 5 2 28
BITMAP
70
F8
F8
F8
70
ENDCHAR
STARTCHAR 02DA
ENCODING 730
SWIDTH 337 0
DWIDTH 15 0
BBX 9 9 3 27
BITMAP
3C00
7F00
E380
C180
C180
C180
E380
7F00
3E00
ENDCHAR
STARTCHAR 02DB
ENCODING 731
SWIDTH 292 0
DWIDTH 13 0
BBX 8 8 4 -8
BITMAP
38
70
E0
E0
E0
F0
7F
1F
ENDCHAR
STARTCHAR 02DC
ENCODING 732
SWIDTH 427 0
DWIDTH 19 0
BBX 15 5 2 28
BITMAP
3E00
7F8C
FFFE
E3FC
40F8
ENDCHAR
STARTCHAR 02DD
ENCODING 733
SWIDTH 540 0
DWIDTH 24 0
BBX 16 7 5 28
BITMAP
0F9F
0F1E
1E3C
3C78
3870
70E0
E1C0
ENDCHAR
STARTCHAR 037E
ENCODING 894
SWIDTH 247 0
DWIDTH 11 0
BBX 6 27 2 -4
BITMAP
38
7C
7C
7C
38
00
00
00
00
00
00
00
00
00
00
00
00
10
1C
3C
38
38
70
70
60
E0
40
ENDCHAR
STARTCHAR 0384
ENCODING 900
SWIDTH 382 0
DWIDTH 17 0
BBX 4 7 6 27
BITMAP
F0
F0
F0
F0
60
60
60
ENDCHAR
STARTCHAR 0385
ENCODING 901
SWIDTH 382 0
DWIDTH 17 0
BBX 16 7 0 27
BITMAP
03C0
03C0
63C6
F3CF
F18F
6186
0180
ENDCHAR
STARTCHAR 0386
ENCODING 902
SWIDTH 697 0
DWIDTH 31 0
BBX 29 33 1 0
BITMAP
0F000000
0F020000
0F070000
0F070000
060F8000
060F8000
060F8000
001DC000
001DC000
0038E000
0038E000
0078F000
00707000
00707000
00E03800
00E03800
01C01C00
01C01C00
03C01E00
03FFFE00
07FFFF00
07FFFF00
07000700
0E000380
0E000380
1C0001C0
1C0001C0
3C0001E0
380000E0
380000E0
70000070
70000070
E0000038
ENDCHAR
STARTCHAR 0387
ENCODING 903
SWIDTH 270 0
DWIDTH 12 0
BBX 5 5 4 18
BITMAP
70
F8
F8
F8
70
ENDCHAR
STARTCHAR 0388
ENCODING 904
SWIDTH 585 0
DWIDTH 26 0
BBX 27 33 -3 0
BITMAP
F0000000
F07FFFE0
F07FFFE0
F07FFFE0
60700000
60700000
60700000
00700000
00700000
00700000
00700000
00700000
00700000
00700000
007FFFE0
007FFFE0
007FFFE0
00700000
00700000
00700000
00700000
00700000
00700000
00700000
00700000
00700000
00700000
00700000
00700000
00700000
007FFFE0
007FFFE0
007FFFE0
ENDCHAR
STARTCHAR 0389
ENCODING 905
SWIDTH 720 0
DWIDTH 32 0
BBX 31 33 -3 0
BITMAP
F0000000
F070000E
F070000E
F070000E
6070000E
6070000E
6070000E
0070000E
0070000E
0070000E
0070000E
0070000E
0070000E
0070000E
0070000E
007FFFFE
007FFFFE
007FFFFE
0070000E
0070000E
0070000E
0070000E
0070000E
0070000E
0070000E
0070000E
0070000E
0070000E
0070000E
0070000E
0070000E
0070000E
0070000E
ENDCHAR
STARTCHAR 038A
ENCODING 906
SWIDTH 270 0
DWIDTH 12 0
BBX 11 33 -3 0
BITMAP
F000
F0E0
F0E0
F0E0
60E0
60E0
60E0
00E0
00E0
00E0
00E0
00E0
00E0
00E0
00E0
00E0
00E0
00E0
00E0
00E0
00E0
00E0
00E0
00E0
00E0
00E0
00E0
00E0
00E0
00E0
00E0
00E0
00E0
ENDCHAR
STARTCHAR 038C
ENCODING 908
SWIDTH 855 0
DWIDTH 38 0
BBX 38 34 -3 -1
BITMAP
F0003FC000
F001FFF800
F003FFFC00
F00FE07F00
601F000F80
603E0007C0
60780001E0
00700000E0
00F00000F0
00E0000070
01C0000038
01C0000038
01C0000038
038000001C
038000001C
038000001C
038000001C
038000001C
038000001C
038000001C
038000001C
03C0000038
01C0000038
01C0000038
00E0000070
00F00000F0
00700000E0
00780001E0
003C0003C0
001F000F80
000FC03F00
0007FFFE00
0001FFF800
00003FC000
ENDCHAR
STARTCHAR 038E
ENCODING 910
SWIDTH 630 0
DWIDTH 28 0
BBX 29 33 -3 0
BITMAP
F0000000
F3C00038
F1C00070
F1E000F0
60E000E0
60F001C0
607803C0
00380380
003C0700
001E0700
000E0E00
000F1E00
00071C00
0007B800
0003F800
0001F000
0001F000
0000E000
0000E000
0000E000
0000E000
0000E000
0000E000
0000E000
0000E000
0000E000
0000E000
0000E000
0000E000
0000E000
0000E000
0000E000
0000E000
ENDCHAR
STARTCHAR 038F
ENCODING 911
SWIDTH 832 0
DWIDTH 37 0
BBX 37 33 -3 0
BITMAP
F0007FC000
F003FFF800
F00FFFFE00
F01FC07F00
603E000F80
60780003C0
60F00001E0
00E00000E0
01E00000F0
01C0000070
01C0000070
0380000038
0380000038
0380000038
0380000038
0380000038
0380000038
0380000038
0380000038
01C0000070
01C0000070
01E00000F0
00E00000E0
00700001C0
0078000380
003C000780
000F001E00
0007803C00
0003C07800
0000E0E000
01FFE0FFF0
01FFE0FFF0
01FFE0FFF0
ENDCHAR
STARTCHAR 0390
ENCODING 912
SWIDTH 247 0
DWIDTH 11 0
BBX 16 34 -3 0
BITMAP
03C0
03C0
63C6
F3CF
F18F
6186
0180
0000
0000
0000
0000
01C0
01C0
01C0
01C0
01C0
01C0
01C0
01C0
01C0
01C0
01C0
01C0
01C0
01C0
01C0
01C0
01C0
01C0
01C0
01C0
01C0
01C0
01C0
ENDCHAR
STARTCHAR 0391
ENCODING 913
SWIDTH 697 0
DWIDTH 31 0
BBX 29 32 1 0
BITMAP
00020000
00070000
00070000
000F8000
000F8000
000F8000
001DC000
001DC000
0038E000
0038E000
0078F000
00707000
00707000
00E03800
00E03800
01C01C00
01C01C00
03C01E00
03FFFE00
07FFFF00
07FFFF00
07000700
0E000380
0E000380
1C0001C0
1C0001C0
3C0001E0
380000E0
380000E0
70000070
70000070
E0000038
ENDCHAR
STARTCHAR 0392
ENCODING 914
SWIDTH 562 0
DWIDTH 25 0
BBX 18 32 4 0
BITMAP
FFC000
FFF000
FFF800
E07C00
E01C00
E00E00
E00E00
E00E00
E00E00
E00E00
E01C00
E03C00
E07800
FFF000
FFF000
FFFC00
E03F00
E00F00
E00780
E00380
E001C0
E001C0
E001C0
E001C0
E001C0
E003C0
E00380
E00780
E01F00
FFFE00
FFFC00
FFF000
ENDCHAR
STARTCHAR 0393
ENCODING 915
SWIDTH 450 0
DWIDTH 20 0
BBX 15 32 4 0
BITMAP
FFFE
FFFE
FFFE
E000
E000
E000
E000
E000
E000
E000
E000
E000
E000
E000
E000
E000
E000
E000
E000
E000
E000
E000
E000
E000
E000
E000
E000
E000
E000
E000
E000
E000
ENDCHAR
STARTCHAR 0394
ENCODING 916
SWIDTH 742 0
DWIDTH 33 0
BBX 31 33 1 0
BITMAP
00010000
00018000
00038000
0003C000
0007C000
0007E000
000FE000
000EF000
001CF000
001C7800
00387800
00383800
00303C00
00701C00
00601E00
00E00E00
00C00F00
01C00700
01C00780
03800380
038003C0
070001C0
070001E0
0E0000E0
0E0000F0
1C000070
1C000078
38000078
3800003C
7000003C
7FFFFFFE
FFFFFFFE
FFFFFFFE
ENDCHAR
STARTCHAR 0395
ENCODING 917
SWIDTH 540 0
DWIDTH 24 0
BBX 18 32 4 0
BITMAP
FFFFC0
FFFFC0
FFFFC0
E00000
E00000
E00000
E00000
E00000
E00000
E00000
E00000
E00000
E00000
FFFFC0
FFFFC0
FFFFC0
E00000
E00000
E00000
E00000
E00000
E00000
E00000
E00000
E00000
E00000
E00000
E00000
E00000
FFFFC0
FFFFC0
FFFFC0
ENDCHAR
STARTCHAR 0396
ENCODING 918
SWIDTH 472 0
DWIDTH 21 0
BBX 17 32 1 0
BITMAP
7FFF80
7FFF00
7FFF00
000600
000E00
000E00
001C00
001C00
001800
003800
003000
007000
006000
00E000
00E000
01C000
01C000
038000
038000
030000
070000
060000
0E0000
0C0000
1C0000
1C0000
380000
380000
300000
7FFF80
7FFF80
FFFF80
ENDCHAR
STARTCHAR 0397
ENCODING 919
SWIDTH 675 0
DWIDTH 30 0
BBX 22 32 4 0
BITMAP
E0001C
E0001C
E0001C
E0001C
E0001C
E0001C
E0001C
E0001C
E0001C
E0001C
E0001C
E0001C
E0001C
E0001C
FFFFFC
FFFFFC
FFFFFC
E0001C
E0001C
E0001C
E0001C
E0001C
E0001C
E0001C
E0001C
E0001C
E0001C
E0001C
E0001C
E0001C
E0001C
E0001C
ENDCHAR
STARTCHAR 0398
ENCODING 920
SWIDTH 855 0
DWIDTH 38 0
BBX 32 34 3 -1
BITMAP
000FF000
007FFE00
01FFFF00
03F81FC0
07C003E0
0F8001F0
1E000078
1C000038
3C00003C
3800001C
7000000E
7000000E
7000000E
E0000007
E0000007
E0FFFF07
E0FFFF07
E0FFFF07
E0000007
E0000007
E0000007
F000000E
7000000E
7000000E
7800001C
3C00003C
1C000038
1E000078
0F0000F0
07C003E0
03F00FC0
01FFFF80
007FFE00
000FF000
ENDCHAR
STARTCHAR 0399
ENCODING 921
SWIDTH 247 0
DWIDTH 11 0
BBX 3 32 4 0
BITMAP
E0
E0
E0
E0
E0
E0
E0
E0
E0
E0
E0
E0
E0
E0
E0
E0
E0
E0
E0
E0
E0
E0
E0
E0
E0
E0
E0
E0
E0
E0
E0
E0
ENDCHAR
STARTCHAR 039A
ENCODING 922
SWIDTH 585 0
DWIDTH 26 0
BBX 21 32 4 0
BITMAP
E000F0
E001E0
E007C0
E00F80
E01E00
E03C00
E07800
E0F000
E1E000
E3C000
EF8000
FF0000
FC0000
F80000
F80000
FC0000
FE0000
EF0000
E78000
E3C000
E1E000
E0F000
E07800
E03C00
E01E00
E00F00
E00780
E007C0
E003C0
E001E0
E000F0
E00078
ENDCHAR
STARTCHAR 039B
ENCODING 923
SWIDTH 697 0
DWIDTH 31 0
BBX 29 32 1 0
BITMAP
00020000
00070000
00070000
000F8000
000F8000
000F8000
001FC000
001DC000
0039E000
0038E000
0078F000
00707000
00707000
00E07800
00E03800
01C03C00
01C01C00
03801E00
03800E00
07000F00
07000700
07000700
0E000380
0E000380
1C0003C0
1C0001C0
380001E0
380000E0
300000E0
70000070
70000070
E0000038
ENDCHAR
STARTCHAR 039C
ENCODING 924
SWIDTH 967 0
DWIDTH 43 0
BBX 37 32 3 0
BITMAP
0C00000180
0C00000180
0E00000380
0E00000380
0F00000780
0F00000780
0F80000FC0
1F80000FC0
1FC0001DC0
1DC0001DC0
1DE00039C0
1CE00039C0
1CF00071C0
1C700071E0
3C7800E1E0
383800E0E0
383C01C0E0
381C01C0E0
381E0380E0
380E0380F0
380F0700F0
78070700F0
70078E0070
70038E0070
7003DC0070
7001DC0070
7001F80078
7000F80078
F000F00078
E000700038
E000600038
E000200038
ENDCHAR
STARTCHAR 039D
ENCODING 925
SWIDTH 742 0
DWIDTH 33 0
BBX 25 32 4 0
BITMAP
80000380
C0000380
E0000380
F0000380
F8000380
F8000380
FC000380
FE000380
EF000380
E7800380
E3C00380
E1E00380
E0E00380
E0700380
E0780380
E03C0380
E01E0380
E00F0380
E0078380
E003C380
E001C380
E001E380
E000F380
E0007B80
E0003F80
E0001F80
E0000F80
E0000F80
E0000780
E0000380
E0000180
E0000080
ENDCHAR
STARTCHAR 039E
ENCODING 926
SWIDTH 517 0
DWIDTH 23 0
BBX 17 32 3 0
BITMAP
FFFF80
FFFF80
FFFF80
000000
000000
000000
000000
000000
000000
000000
000000
000000
000000
FFFF80
FFFF80
FFFF80
000000
000000
000000
000000
000000
000000
000000
000000
000000
000000
000000
000000
000000
FFFF80
FFFF80
FFFF80
ENDCHAR
STARTCHAR 039F
ENCODING 927
SWIDTH 855 0
DWIDTH 38 0
BBX 32 34 3 -1
BITMAP
000FF000
007FFE00
00FFFF00
03F81FC0
07C003E0
0F8001F0
1E000078
1C000038
3C00003C
3800001C
7000000E
7000000E
7000000E
E0000007
E0000007
E0000007
E0000007
E0000007
E0000007
E0000007
E0000007
F000000E
7000000E
7000000E
3800001C
3C00003C
1C000038
1E000078
0F0000F0
07C003E0
03F00FC0
01FFFF80
007FFE00
000FF000
ENDCHAR
STARTCHAR 03A0
ENCODING 928
SWIDTH 675 0
DWIDTH 30 0
BBX 22 32 4 0
BITMAP
FFFFFC
FFFFFC
FFFFFC
E0001C
E0001C
E0001C
E0001C
E0001C
E0001C
E0001C
E0001C
E0001C
E0001C
E0001C
E0001C
E0001C
E0001C
E0001C
E0001C
E0001C
E0001C
E0001C
E0001C
E0001C
E0001C
E0001C
E0001C
E0001C
E0001C
E0001C
E0001C
E0001C
ENDCHAR
STARTCHAR 03A1
ENCODING 929
SWIDTH 585 0
DWIDTH 26 0
BBX 19 32 4 0
BITMAP
FFF800
FFFE00
FFFF80
E007C0
E003C0
E001E0
E000E0
E000E0
E000E0
E000E0
E000E0
E001E0
E003C0
E007C0
FFFF80
FFFE00
FFF800
E00000
E00000
E00000
E00000
E00000
E00000
E00000
E00000
E00000
E00000
E00000
E00000
E00000
E00000
E00000
ENDCHAR
STARTCHAR 03A3
ENCODING 931
SWIDTH 495 0
DWIDTH 22 0
BBX 19 32 1 0
BITMAP
FFFFE0
7FFFE0
7FFFE0
380000
1C0000
1E0000
0E0000
0F0000
070000
038000
03C000
01C000
01E000
00E000
007000
007800
003800
007000
00E000
00E000
01C000
018000
038000
070000
070000
0E0000
1C0000
1C0000
380000
7FFFE0
7FFFE0
FFFFE0
ENDCHAR
STARTCHAR 03A4
ENCODING 932
SWIDTH 405 0
DWIDTH 18 0
BBX 17 32 0 0
BITMAP
FFFF80
FFFF80
FFFF80
01C000
01C000
01C000
01C000
01C000
01C000
01C000
01C000
01C000
01C000
01C000
01C000
01C000
01C000
01C000
01C000
01C000
01C000
01C000
01C000
01C000
01C000
01C000
01C000
01C000
01C000
01C000
01C000
01C000
ENDCHAR
STARTCHAR 03A5
ENCODING 933
SWIDTH 562 0
DWIDTH 25 0
BBX 23 32 1 0
BITMAP
F0000E
70001C
78003C
380038
3C0070
1E00F0
0E00E0
0F01C0
0781C0
038380
03C780
01C700
01EE00
00FE00
007C00
007C00
003800
003800
003800
003800
003800
003800
003800
003800
003800
003800
003800
003800
003800
003800
003800
003800
ENDCHAR
STARTCHAR 03A6
ENCODING 934
SWIDTH 855 0
DWIDTH 38 0
BBX 32 32 3 0
BITMAP
00038000
00038000
00038000
001FF800
00FFFF00
03FFFFC0
0FE38FE0
1F0381F8
3C038078
3803803C
7003801E
7003800E
E003800F
E0038007
E0038007
E0038007
E0038007
E0038007
E0038007
F003800F
7003800E
7803801E
3803801C
3C038078
1F0381F8
0FE387E0
03FFFFC0
01FFFF00
001FF800
00038000
00038000
00038000
ENDCHAR
STARTCHAR 03A7
ENCODING 935
SWIDTH 607 0
DWIDTH 27 0
BBX 22 32 2 0
BITMAP
E0001C
F0003C
700038
380070
3C00F0
1C00E0
1E01E0
0E01C0
070380
078780
038700
01CE00
01FE00
00FC00
00FC00
007800
007800
00FC00
00FC00
01FE00
01CE00
038700
078780
070380
0E01C0
1E01E0
1C00E0
3C00F0
380070
700038
F0003C
E0001C
ENDCHAR
STARTCHAR 03A8
ENCODING 936
SWIDTH 787 0
DWIDTH 35 0
BBX 29 32 3 0
BITMAP
E0070038
E0070038
E0070038
E0070038
E0070038
E0070038
E0070038
E0070038
E0070038
E0070038
E0070038
E0070038
E0070038
E0070038
E0070038
F0070078
70070070
780700F0
3C0701E0
3E0703E0
1FC71FC0
0FFFFF80
03FFFE00
007FF000
00070000
00070000
00070000
00070000
00070000
00070000
00070000
00070000
ENDCHAR
STARTCHAR 03A9
ENCODING 937
SWIDTH 832 0
DWIDTH 37 0
BBX 31 33 3 0
BITMAP
001FF000
00FFFE00
03FFFF80
07F01FC0
0F8003E0
1E0000F0
3C000078
38000038
7800003C
7000001C
7000001C
E000000E
E000000E
E000000E
E000000E
E000000E
E000000E
E000000E
E000000E
7000001C
7000001C
7800003C
38000038
1C000070
1E0000E0
0F0001E0
03C00780
01E00F00
00F01E00
00383800
7FF83FFC
7FF83FFC
7FF83FFC
ENDCHAR
STARTCHAR 03AA
ENCODING 938
SWIDTH 247 0
DWIDTH 11 0
BBX 14 41 -1 0
BITMAP
7038
F87C
F87C
F87C
7038
0000
0000
0000
0000
0700
0700
0700
0700
0700
0700
0700
0700
0700
0700
0700
0700
0700
0700
0700
0700
0700
0700
0700
0700
0700
0700
0700
0700
0700
0700
0700
0700
0700
0700
0700
0700
ENDCHAR
STARTCHAR 03AB
ENCODING 939
SWIDTH 562 0
DWIDTH 25 0
BBX 23 41 1 0
BITMAP
070380
0F87C0
0F87C0
0F87C0
070380
000000
000000
000000
000000
F0000E
70001C
78003C
380038
3C0070
1E00F0
0E00E0
0F01C0
0781C0
038380
03C780
01C700
01EE00
00FE00
007C00
007C00
003800
003800
003800
003800
003800
003800
003800
003800
003800
003800
003800
003800
003800
003800
003800
003800
ENDCHAR
STARTCHAR 03AC
ENCODING 940
SWIDTH 675 0
DWIDTH 30 0
BBX 24 34 2 0
BITMAP
003C00
003C00
003C00
003C00
001800
001800
001800
000000
000000
000000
000000
00FF07
03FFC7
0FFFE7
1F81F7
3E007F
3C003F
78001F
70000F
F0000F
E00007
E00007
E00007
E00007
E00007
F0000F
70000F
78001F
3C001F
3E007F
1F81FF
0FFFF7
03FFC7
00FF07
ENDCHAR
STARTCHAR 03AD
ENCODING 941
SWIDTH 427 0
DWIDTH 19 0
BBX 16 34 2 0
BITMAP
03C0
03C0
03C0
03C0
0180
0180
0180
0000
0000
0000
0000
07E0
1FFC
3FFE
7C1E
7004
7000
7000
7000
3C00
0FC0
1FC0
3FC0
7800
F000
E000
E000
E000
E000
F006
781F
3FFF
1FFC
07F0
ENDCHAR
STARTCHAR 03AE
ENCODING 942
SWIDTH 607 0
DWIDTH 27 0
BBX 19 43 4 -9
BITMAP
00F000
00F000
00F000
00F000
006000
006000
006000
000000
000000
000000
000000
E0FC00
E3FF00
E7FF80
EF0780
FC03C0
F801C0
F001E0
F000E0
F000E0
E000E0
E000E0
E000E0
E000E0
E000E0
E000E0
E000E0
E000E0
E000E0
E000E0
E000E0
E000E0
E000E0
E000E0
0000E0
0000E0
0000E0
0000E0
0000E0
0000E0
0000E0
0000E0
0000E0
ENDCHAR
STARTCHAR 03AF
ENCODING 943
SWIDTH 247 0
DWIDTH 11 0
BBX 4 34 3 0
BITMAP
F0
F0
F0
F0
60
60
60
00
00
00
00
70
70
70
70
70
70
70
70
70
70
70
70
70
70
70
70
70
70
70
70
70
70
70
ENDCHAR
STARTCHAR 03B0
ENCODING 944
SWIDTH 585 0
DWIDTH 26 0
BBX 20 35 4 -1
BITMAP
00F000
00F000
18F180
3CF3C0
3C63C0
186180
006000
000000
000000
000000
000000
E00600
E00700
E00F80
E007C0
E003C0
E001E0
E000E0
E000E0
E000F0
E00070
E00070
E00070
E00070
E00070
E00070
E00070
E000E0
7000E0
7001E0
7803C0
3E0780
1FFF80
0FFE00
03F800
ENDCHAR
STARTCHAR 03B1
ENCODING 945
SWIDTH 675 0
DWIDTH 30 0
BBX 24 23 2 0
BITMAP
00FF07
03FFC7
0FFFE7
1F81F7
3E007F
3C003F
78001F
70000F
F0000F
E00007
E00007
E00007
E00007
E00007
F0000F
70000F
78001F
3C001F
3E007F
1F81FF
0FFFF7
03FFC7
00FF07
ENDCHAR
STARTCHAR 03B2
ENCODING 946
SWIDTH 585 0
DWIDTH 26 0
BBX 20 42 4 -9
BITMAP
07F000
1FFC00
3FFE00
7C1E00
700F00
F00700
E00700
E00700
E00700
E00E00
E01E00
E07C00
E3F000
E3FE00
E3FF00
E00FC0
E003C0
E001E0
E000E0
E000F0
E00070
E00070
E00070
E00070
E00070
F000F0
F000E0
F801E0
FC03C0
FE07C0
EFFF80
E7FE00
E1F800
E00000
E00000
E00000
E00000
E00000
E00000
E00000
E00000
E00000
ENDCHAR
STARTCHAR 03B3
ENCODING 947
SWIDTH 540 0
DWIDTH 24 0
BBX 23 32 0 -9
BITMAP
E0000E
F0001C
70001C
780038
380038
3C0070
1C0070
1E00E0
0E00E0
0F01C0
0781C0
078380
03C380
01C700
01E700
00EE00
00FE00
007C00
007C00
003800
003800
003800
003800
003800
003800
003800
003800
003800
003800
003800
003800
003800
ENDCHAR
STARTCHAR 03B4
ENCODING 948
SWIDTH 562 0
DWIDTH 25 0
BBX 21 33 2 0
BITMAP
007F00
01FFC0
03FFC0
07C080
0F0000
0E0000
0E0000
0E0000
0E0000
070000
078000
03E000
01FC00
03FF00
0FFF80
1F07C0
3C01E0
7800F0
700070
F00078
E00038
E00038
E00038
E00038
E00038
F00078
700070
7800F0
3C01E0
1F07C0
0FFF80
07FF00
01FC00
ENDCHAR
STARTCHAR 03B5
ENCODING 949
SWIDTH 427 0
DWIDTH 19 0
BBX 16 23 2 0
BITMAP
07E0
1FFC
3FFE
7C1E
7004
7000
7000
7000
3C00
0FC0
1FC0
3FC0
7800
F000
E000
E000
E000
E000
F006
781F
3FFF
1FFC
07F0
ENDCHAR
STARTCHAR 03B6
ENCODING 950
SWIDTH 450 0
DWIDTH 20 0
BBX 17 42 2 -9
BITMAP
3FFF00
3FFF00
3FFF00
000E00
001C00
007800
00F000
01E000
03C000
038000
070000
0E0000
1E0000
1C0000
380000
780000
700000
700000
E00000
E00000
E00000
E00000
E00000
E00000
E00000
F00000
700000
780000
3C0000
3F8000
0FF800
07FE00
00FF00
000F80
000380
000380
000380
000380
000F00
01FF00
03FE00
03F800
ENDCHAR
STARTCHAR 03B7
ENCODING 951
SWIDTH 607 0
DWIDTH 27 0
BBX 19 32 4 -9
BITMAP
E0FC00
E3FF00
E7FF80
EF0780
FC03C0
F801C0
F001E0
F000E0
F000E0
E000E0
E000E0
E000E0
E000E0
E000E0
E000E0
E000E0
E000E0
E000E0
E000E0
E000E0
E000E0
E000E0
E000E0
0000E0
0000E0
0000E0
0000E0
0000E0
0000E0
0000E0
0000E0
0000E0
ENDCHAR
STARTCHAR 03B8
ENCODING 952
SWIDTH 652 0
DWIDTH 29 0
BBX 25 33 2 0
BITMAP
007F0000
01FFC000
07FFF000
0F80F800
1F007C00
1C001C00
3C001E00
38000E00
70000700
70000700
70000700
E0000780
E0000380
E0000380
E0000380
FFFFFF80
FFFFFF80
FFFFFF80
E0000380
E0000380
E0000380
E0000380
70000700
70000700
70000700
38000E00
38000E00
1C001C00
1E003C00
0F80F800
07FFF000
03FFE000
007F0000
ENDCHAR
STARTCHAR 03B9
ENCODING 953
SWIDTH 247 0
DWIDTH 11 0
BBX 3 23 4 0
BITMAP
E0
E0
E0
E0
E0
E0
E0
E0
E0
E0
E0
E0
E0
E0
E0
E0
E0
E0
E0
E0
E0
E0
E0
ENDCHAR
STARTCHAR 03BA
ENCODING 954
SWIDTH 495 0
DWIDTH 22 0
BBX 17 23 4 0
BITMAP
E00F00
E01E00
E03C00
E07800
E0F000
E1E000
E3C000
E78000
EF0000
FE0000
FC0000
FC0000
FE0000
EF0000
E78000
E3C000
E1E000
E0F000
E07800
E03C00
E01E00
E00F00
E00780
ENDCHAR
STARTCHAR 03BB
ENCODING 955
SWIDTH 540 0
DWIDTH 24 0
BBX 22 33 1 0
BITMAP
070000
078000
038000
03C000
01C000
01C000
00E000
00E000
00F000
007000
007800
007800
007C00
00FC00
00FC00
01FE00
01CE00
01CF00
038700
038780
078780
0703C0
0F03C0
0E01C0
0E01E0
1C00E0
1C00F0
380070
380078
780078
70003C
F0003C
E0001C
ENDCHAR
STARTCHAR 03BC
ENCODING 956
SWIDTH 607 0
DWIDTH 27 0
BBX 19 32 4 -9
BITMAP
E000E0
E000E0
E000E0
E000E0
E000E0
E000E0
E000E0
E000E0
E000E0
E000E0
E000E0
E000E0
E000E0
E000E0
E001E0
E001E0
F001E0
F003E0
F807E0
FC1EE0
FFFCE0
EFF8E0
E7E0E0
E00000
E00000
E00000
E00000
E00000
E00000
E00000
E00000
E00000
ENDCHAR
STARTCHAR 03BD
ENCODING 957
SWIDTH 585 0
DWIDTH 26 0
BBX 23 23 1 0
BITMAP
E0000E
F0001C
70001C
780038
380038
3C0070
1C0070
1E00E0
0E00E0
0F01C0
0701C0
078380
038380
03C700
01C700
01EE00
00EE00
00FC00
007C00
007800
003800
003000
001000
ENDCHAR
STARTCHAR 03BE
ENCODING 958
SWIDTH 450 0
DWIDTH 20 0
BBX 17 42 2 -9
BITMAP
01FF00
07FF80
0FFF00
1F0100
1C0000
3C0000
380000
380000
380000
380000
1C0000
0E0000
078000
03FE00
03FE00
0FFE00
1F0000
3C0000
700000
700000
E00000
E00000
E00000
E00000
E00000
E00000
F00000
780000
7C0000
3F0000
1FF000
07FE00
00FF00
000F80
000380
000380
000380
000780
000F00
03FF00
03FE00
07F000
ENDCHAR
STARTCHAR 03BF
ENCODING 959
SWIDTH 652 0
DWIDTH 29 0
BBX 25 23 2 0
BITMAP
007F0000
03FFE000
07FFF000
1F80FC00
1E003C00
3C001E00
78000F00
70000700
F0000780
E0000380
E0000380
E0000380
E0000380
E0000380
F0000780
70000700
78000F00
3C001E00
3E003E00
1F80FC00
07FFF000
03FFE000
007F0000
ENDCHAR
STARTCHAR 03C0
ENCODING 960
SWIDTH 675 0
DWIDTH 30 0
BBX 28 23 1 0
BITMAP
FFFFFFF0
FFFFFFF0
FFFFFFF0
07000E00
07000E00
07000E00
07000E00
07000E00
07000E00
07000E00
07000E00
07000E00
07000E00
07000E00
07000E00
07000E00
07000E00
07000E00
07000E00
07000E00
07000E00
07000E00
07000E00
ENDCHAR
STARTCHAR 03C1
ENCODING 961
SWIDTH 652 0
DWIDTH 29 0
BBX 23 32 4 -9
BITMAP
00FE00
07FF80
0FFFE0
1F83F0
3E00F8
780078
78003C
70001C
E0001E
E0000E
E0000E
E0000E
E0000E
E0000E
F0001E
F0001C
F8003C
FC0038
FE0078
EF81F0
E7FFE0
E3FF80
E07E00
E00000
E00000
E00000
E00000
E00000
E00000
E00000
E00000
E00000
ENDCHAR
STARTCHAR 03C2
ENCODING 962
SWIDTH 562 0
DWIDTH 25 0
BBX 22 32 2 -9
BITMAP
00FF00
03FFC0
0FFFE0
1F81F8
3E0078
38003C
780018
700000
F00000
E00000
E00000
E00000
E00000
E00000
E00000
700000
780000
7C0000
3F0000
1FE000
07FF00
01FFC0
001FE0
0001F0
000070
000070
000070
000070
0001E0
003FE0
007FC0
007F00
ENDCHAR
STARTCHAR 03C3
ENCODING 963
SWIDTH 720 0
DWIDTH 32 0
BBX 29 23 2 0
BITMAP
007FFFF8
03FFFFF8
07FFFFF8
1F80F800
1E003C00
3C001E00
78000F00
70000700
F0000780
E0000380
E0000380
E0000380
E0000380
E0000380
F0000780
70000700
78000F00
3C001E00
3E003E00
1F80FC00
07FFF000
03FFE000
007F0000
ENDCHAR
STARTCHAR 03C4
ENCODING 964
SWIDTH 405 0
DWIDTH 18 0
BBX 16 23 1 0
BITMAP
FFFF
FFFF
FFFF
0380
0380
0380
0380
0380
0380
0380
0380
0380
0380
0380
0380
0380
0380
0380
0380
0380
0380
0380
0380
ENDCHAR
STARTCHAR 03C5
ENCODING 965
SWIDTH 585 0
DWIDTH 26 0
BBX 20 24 4 -1
BITMAP
E00600
E00700
E00F80
E007C0
E003C0
E001E0
E000E0
E000E0
E000F0
E00070
E00070
E00070
E00070
E00070
E00070
E00070
E000E0
7000E0
7001E0
7803C0
3E0780
1FFF80
0FFE00
03F800
ENDCHAR
STARTCHAR 03C6
ENCODING 966
SWIDTH 765 0
DWIDTH 34 0
BBX 30 32 2 -9
BITMAP
0007F000
01C7FE00
07C7FF80
0FC70FC0
1F0701E0
3C0700F0
78070078
70070038
F007003C
E007001C
E007001C
E007001C
E007001C
E007001C
E007001C
70070038
70070078
380700F0
3E0701E0
1FC70FC0
07FFFF80
03FFFE00
003FF000
00070000
00070000
00070000
00070000
00070000
00070000
00070000
00070000
00070000
ENDCHAR
STARTCHAR 03C7
ENCODING 967
SWIDTH 472 0
DWIDTH 21 0
BBX 21 32 0 -9
BITMAP
700070
3800E0
3800E0
1C01C0
1C01C0
0E0380
0F0380
070700
078700
038E00
03DE00
01DC00
01FC00
00F800
007000
007000
00F800
00F800
01DC00
03DE00
038E00
078F00
070700
0E0780
0E0380
1C03C0
1C01C0
3800E0
3800E0
700070
700070
E00038
ENDCHAR
STARTCHAR 03C8
ENCODING 968
SWIDTH 720 0
DWIDTH 32 0
BBX 24 32 4 -9
BITMAP
E03807
E03807
E03807
E03807
E03807
E03807
E03807
E03807
E03807
E03807
E03807
E03807
E03807
E03807
E03807
F0380F
70380E
78381E
3C383C
3F38FC
1FFFF0
07FFE0
01FF00
003800
003800
003800
003800
003800
003800
003800
003800
003800
ENDCHAR
STARTCHAR 03C9
ENCODING 969
SWIDTH 855 0
DWIDTH 38 0
BBX 34 23 2 0
BITMAP
00380F0000
01F80FE000
07F80FF000
0FC001FC00
1F00003E00
3C00000F00
7800000700
7000000780
7000000380
E0000001C0
E001C001C0
E001C001C0
E001C001C0
E001C001C0
E001C001C0
E001C001C0
7003E00380
7003E00380
7807700780
3E0F781F00
1FFE3FFE00
0FFC1FFC00
03F807E000
ENDCHAR
STARTCHAR 03CA
ENCODING 970
SWIDTH 247 0
DWIDTH 11 0
BBX 14 31 -2 0
BITMAP
7038
F87C
F87C
F87C
7038
0000
0000
0000
0380
0380
0380
0380
0380
0380
0380
0380
0380
0380
0380
0380
0380
0380
0380
0380
0380
0380
0380
0380
0380
0380
0380
ENDCHAR
STARTCHAR 03CB
ENCODING 971
SWIDTH 585 0
DWIDTH 26 0
BBX 20 34 4 -1
BITMAP
0E0700
1F0F80
1F0F80
1F0F80
0E0700
000000
000000
000000
000000
000000
E00600
E00700
E00F80
E007C0
E003C0
E001E0
E000E0
E000E0
E000F0
E00070
E00070
E00070
E00070
E00070
E00070
E00070
E000E0
7000E0
7001E0
7803C0
3E0780
1FFF80
0FFE00
03F800
ENDCHAR
STARTCHAR 03CC
ENCODING 972
SWIDTH 652 0
DWIDTH 29 0
BBX 25 34 2 0
BITMAP
001E0000
001E0000
001E0000
001E0000
000C0000
000C0000
000C0000
00000000
00000000
00000000
00000000
007F0000
03FFE000
07FFF000
1F80FC00
1E003C00
3C001E00
78000F00
70000700
F0000780
E0000380
E0000380
E0000380
E0000380
E0000380
F0000780
70000700
78000F00
3C001E00
3E003E00
1F80FC00
07FFF000
03FFE000
007F0000
ENDCHAR
STARTCHAR 03CD
ENCODING 973
SWIDTH 585 0
DWIDTH 26 0
BBX 20 35 4 -1
BITMAP
00F000
00F000
00F000
00F000
006000
006000
006000
000000
000000
000000
000000
E00600
E00700
E00F80
E007C0
E003C0
E001E0
E000E0
E000E0
E000F0
E00070
E00070
E00070
E00070
E00070
E00070
E00070
E000E0
7000E0
7001E0
7803C0
3E0780
1FFF80
0FFE00
03F800
ENDCHAR
STARTCHAR 03CE
ENCODING 974
SWIDTH 855 0
DWIDTH 38 0
BBX 34 34 2 0
BITMAP
0003C00000
0003C00000
0003C00000
0003C00000
0001800000
0001800000
0001800000
0000000000
0000000000
0000000000
0000000000
00380F0000
01F80FE000
07F80FF000
0FC001FC00
1F00003E00
3C00000F00
7800000700
7000000780
7000000380
E0000001C0
E001C001C0
E001C001C0
E001C001C0
E001C001C0
E001C001C0
E001C001C0
7003E00380
7003E00380
7807700780
3E0F781F00
1FFE3FFE00
0FFC1FFC00
03F807E000
ENDCHAR
STARTCHAR 0401
ENCODING 1025
SWIDTH 540 0
DWIDTH 24 0
BBX 18 41 4 0
BITMAP
1C0E00
3E1F00
3E1F00
3E1F00
1C0E00
000000
000000
000000
000000
FFFFC0
FFFFC0
FFFFC0
E00000
E00000
E00000
E00000
E00000
E00000
E00000
E00000
E00000
E00000
FFFFC0
FFFFC0
FFFFC0
E00000
E00000
E00000
E00000
E00000
E00000
E00000
E00000
E00000
E00000
E00000
E00000
E00000
FFFFC0
FFFFC0
FFFFC0
ENDCHAR
STARTCHAR 0402
ENCODING 1026
SWIDTH 675 0
DWIDTH 30 0
BBX 26 33 1 -1
BITMAP
FFFF8000
FFFF8000
FFFF8000
01C00000
01C00000
01C00000
01C00000
01C00000
01C00000
01C00000
01C00000
01C00000
01C00000
01C00000
01FFE000
01FFFC00
01FFFE00
01C01F00
01C00780
01C00380
01C001C0
01C001C0
01C001C0
01C001C0
01C001C0
01C001C0
01C001C0
01C003C0
01C00380
01C30F80
01C7FF00
01C7FE00
0001F800
ENDCHAR
STARTCHAR 0403
ENCODING 1027
SWIDTH 450 0
DWIDTH 20 0
BBX 16 43 4 0
BITMAP
001F
001E
003C
0078
0070
00E0
01C0
0000
0000
0000
0000
FFFE
FFFE
FFFE
E000
E000
E000
E000
E000
E000
E000
E000
E000
E000
E000
E000
E000
E000
E000
E000
E000
E000
E000
E000
E000
E000
E000
E000
E000
E000
E000
E000
E000
ENDCHAR
STARTCHAR 0404
ENCODING 1028
SWIDTH 810 0
DWIDTH 36 0
BBX 30 34 3 -1
BITMAP
000FF800
007FFF00
00FFFFC0
03F80FE0
07C001F0
0F800078
1E00003C
1C000018
38000000
78000000
70000000
70000000
F0000000
E0000000
E0000000
FFFFC000
FFFFC000
FFFFC000
E0000000
E0000000
E0000000
F0000000
70000000
70000000
38000000
3C000000
1C000018
1E00003C
0F80007C
07C001F8
03F807F0
01FFFFC0
007FFF00
000FF800
ENDCHAR
STARTCHAR 0405
ENCODING 1029
SWIDTH 495 0
DWIDTH 22 0
BBX 18 34 1 -1
BITMAP
01F000
07FE00
0FFF00
1E0F80
1C07C0
380380
380100
380000
380000
380000
1C0000
1E0000
0F0000
078000
03E000
01F000
00F800
007C00
001E00
000F00
000780
000380
0003C0
0001C0
0001C0
0001C0
2001C0
F001C0
700380
780780
3E0F00
1FFE00
0FFC00
03F000
ENDCHAR
STARTCHAR 0406
ENCODING 1030
SWIDTH 247 0
DWIDTH 11 0
BBX 3 32 4 0
BITMAP
E0
E0
E0
E0
E0
E0
E0
E0
E0
E0
E0
E0
E0
E0
E0
E0
E0
E0
E0
E0
E0
E0
E0
E0
E0
E0
E0
E0
E0
E0
E0
E0
ENDCHAR
STARTCHAR 0407
ENCODING 1031
SWIDTH 247 0
DWIDTH 11 0
BBX 14 41 -1 0
BITMAP
7038
F87C
F87C
F87C
7038
0000
0000
0000
0000
0700
0700
0700
0700
0700
0700
0700
0700
0700
0700
0700
0700
0700
0700
0700
0700
0700
0700
0700
0700
0700
0700
0700
0700
0700
0700
0700
0700
0700
0700
0700
0700
ENDCHAR
STARTCHAR 0408
ENCODING 1032
SWIDTH 472 0
DWIDTH 21 0
BBX 15 33 2 -1
BITMAP
000E
000E
000E
000E
000E
000E
000E
000E
000E
000E
000E
000E
000E
000E
000E
000E
000E
000E
000E
000E
000E
000E
000E
000E
000E
000E
000E
401E
701C
FC3C
7FF8
3FF0
07C0
ENDCHAR
STARTCHAR 0409
ENCODING 1033
SWIDTH 1057 0
DWIDTH 47 0
BBX 43 32 1 0
BITMAP
000100000000
000300000000
000380000000
000780000000
0007C0000000
000FC0000000
000FE0000000
001CE0000000
001CE0000000
003870000000
003870000000
003038000000
007038000000
00703C000000
00E01FFFF000
00E01FFFFE00
01C00FFFFF00
01C00F000F80
0380070003C0
0380070001C0
0700038000E0
0700038000E0
0E0001C000E0
0E0001C000E0
1C0000E000E0
1C0000E000E0
3C0000F001C0
3800007003C0
780000780F80
7000003FFF80
F000003FFE00
E000001FF000
ENDCHAR
STARTCHAR 040A
ENCODING 1034
SWIDTH 1035 0
DWIDTH 46 0
BBX 39 32 4 0
BITMAP
E0001C0000
E0001C0000
E0001C0000
E0001C0000
E0001C0000
E0001C0000
E0001C0000
E0001C0000
E0001C0000
E0001C0000
E0001C0000
E0001C0000
E0001C0000
E0001C0000
FFFFFFFF00
FFFFFFFFE0
FFFFFFFFF8
E0001C00F8
E0001C003C
E0001C001C
E0001C000E
E0001C000E
E0001C000E
E0001C000E
E0001C000E
E0001C000E
E0001C001C
E0001C003C
E0001C00F8
E0001FFFF8
E0001FFFE0
E0001FFF80
ENDCHAR
STARTCHAR 040B
ENCODING 1035
SWIDTH 675 0
DWIDTH 30 0
BBX 26 32 1 0
BITMAP
FFFF8000
FFFF8000
FFFF8000
01C00000
01C00000
01C00000
01C00000
01C00000
01C00000
01C00000
01C00000
01C00000
01C00000
01C00000
01FFF800
01FFFE00
01FFFF00
01C00F80
01C00380
01C003C0
01C001C0
01C001C0
01C001C0
01C001C0
01C001C0
01C001C0
01C001C0
01C001C0
01C001C0
01C001C0
01C001C0
01C001C0
ENDCHAR
STARTCHAR 040C
ENCODING 1036
SWIDTH 585 0
DWIDTH 26 0
BBX 21 43 4 0
BITMAP
000F80
000F00
001E00
003C00
003800
007000
00E000
000000
000000
000000
000000
E000F0
E001E0
E007C0
E00F80
E01E00
E03C00
E07800
E0F000
E1E000
E3C000
EF8000
FF0000
FC0000
F80000
F80000
FC0000
FE0000
EF0000
E78000
E3C000
E1E000
E0F000
E07800
E03C00
E01E00
E00F00
E00780
E007C0
E003C0
E001E0
E000F0
E00078
ENDCHAR
STARTCHAR 040E
ENCODING 1038
SWIDTH 630 0
DWIDTH 28 0
BBX 26 43 1 -1
BITMAP
03803800
03C07800
01E0F000
00FFE000
007FC000
001F8000
00000000
00000000
00000000
00000000
E00001C0
F00001C0
F0000380
78000380
78000700
3C000700
3C000F00
1E000E00
1E001E00
0F001C00
0F001C00
07803800
07803800
03807800
03C07000
01C0F000
01E0E000
00E0E000
00F1C000
0071C000
007B8000
003B8000
003F8000
001F0000
001F0000
000E0000
000E0000
201C0000
703C0000
F8780000
7FF80000
1FF00000
07C00000
ENDCHAR
STARTCHAR 040F
ENCODING 1039
SWIDTH 652 0
DWIDTH 29 0
BBX 21 37 4 -5
BITMAP
E00038
E00038
E00038
E00038
E00038
E00038
E00038
E00038
E00038
E00038
E00038
E00038
E00038
E00038
E00038
E00038
E00038
E00038
E00038
E00038
E00038
E00038
E00038
E00038
E00038
E00038
E00038
E00038
E00038
FFFFF8
FFFFF8
FFFFF8
007000
007000
007000
007000
007000
ENDCHAR
STARTCHAR 0410
ENCODING 1040
SWIDTH 697 0
DWIDTH 31 0
BBX 29 32 1 0
BITMAP
00020000
00070000
00070000
000F8000
000F8000
000F8000
001DC000
001DC000
0038E000
0038E000
0078F000
00707000
00707000
00E03800
00E03800
01C01C00
01C01C00
03C01E00
03FFFE00
07FFFF00
07FFFF00
07000700
0E000380
0E000380
1C0001C0
1C0001C0
3C0001E0
380000E0
380000E0
70000070
70000070
E0000038
ENDCHAR
STARTCHAR 0411
ENCODING 1041
SWIDTH 562 0
DWIDTH 25 0
BBX 18 32 4 0
BITMAP
FFFE00
FFFE00
FFFE00
E00000
E00000
E00000
E00000
E00000
E00000
E00000
E00000
E00000
E00000
E00000
FFE000
FFF800
FFFE00
E03F00
E00780
E00380
E003C0
E001C0
E001C0
E001C0
E001C0
E003C0
E00380
E00780
E01F00
FFFE00
FFFC00
FFF000
ENDCHAR
STARTCHAR 0412
ENCODING 1042
SWIDTH 562 0
DWIDTH 25 0
BBX 18 32 4 0
BITMAP
FFC000
FFF000
FFF800
E07C00
E01C00
E00E00
E00E00
E00E00
E00E00
E00E00
E01C00
E03C00
E07800
FFF000
FFF000
FFFC00
E03F00
E00F00
E00780
E00380
E001C0
E001C0
E001C0
E001C0
E001C0
E003C0
E00380
E00780
E01F00
FFFE00
FFFC00
FFF000
ENDCHAR
STARTCHAR 0413
ENCODING 1043
SWIDTH 450 0
DWIDTH 20 0
BBX 15 32 4 0
BITMAP
FFFE
FFFE
FFFE
E000
E000
E000
E000
E000
E000
E000
E000
E000
E000
E000
E000
E000
E000
E000
E000
E000
E000
E000
E000
E000
E000
E000
E000
E000
E000
E000
E000
E000
ENDCHAR
STARTCHAR 0414
ENCODING 1044
SWIDTH 742 0
DWIDTH 33 0
BBX 31 38 1 -5
BITMAP
00030000
00030000
00078000
00078000
000FC000
000FC000
000FE000
001DE000
001CF000
0038F000
00387800
00787800
00703800
00703C00
00E01C00
00E01E00
01C00E00
01C00F00
03C00700
03800780
03800380
070003C0
070001C0
0F0001E0
0E0000E0
1E0000F0
1C000070
1C000078
38000038
3800003C
FFFFFFFE
FFFFFFFE
FFFFFFFE
E000000E
E000000E
E000000E
E000000E
E000000E
ENDCHAR
STARTCHAR 0415
ENCODING 1045
SWIDTH 540 0
DWIDTH 24 0
BBX 18 32 4 0
BITMAP
FFFFC0
FFFFC0
FFFFC0
E00000
E00000
E00000
E00000
E00000
E00000
E00000
E00000
E00000
E00000
FFFFC0
FFFFC0
FFFFC0
E00000
E00000
E00000
E00000
E00000
E00000
E00000
E00000
E00000
E00000
E00000
E00000
E00000
FFFFC0
FFFFC0
FFFFC0
ENDCHAR
STARTCHAR 0416
ENCODING 1046
SWIDTH 922 0
DWIDTH 41 0
BBX 37 32 2 0
BITMAP
78007000F0
3C007001E0
1E007001C0
0F00700380
0780700700
03C0700E00
01E0701C00
00F0703800
00F8707000
007C70E000
003E71C000
001F738000
000FF78000
0007FF0000
0003FE0000
0007FF0000
000FFF8000
000E73C000
001C71C000
003871E000
007870F000
00F0707800
01E0703C00
01C0701E00
0380700E00
0700700F00
0F00700780
1E007003C0
3C007001E0
38007000F0
7000700078
E000700078
ENDCHAR
STARTCHAR 0417
ENCODING 1047
SWIDTH 585 0
DWIDTH 26 0
BBX 20 34 3 -1
BITMAP
03F800
0FFE00
1FFF00
3E0F80
380780
1003C0
0001C0
0001C0
0001C0
0001C0
0001C0
0001C0
000380
000780
000F00
00FE00
00FE00
00FF80
0007C0
0001E0
0000E0
0000F0
000070
000070
000070
000070
600070
E000F0
F000E0
7801E0
3E07C0
1FFF80
0FFF00
03FC00
ENDCHAR
STARTCHAR 0418
ENCODING 1048
SWIDTH 742 0
DWIDTH 33 0
BBX 25 32 4 0
BITMAP
E0000080
E0000180
E0000380
E0000780
E0000F80
E0000F80
E0001F80
E0003B80
E0007B80
E000F380
E001E380
E001C380
E0038380
E0070380
E00F0380
E01E0380
E03C0380
E0780380
E0700380
E0E00380
E1C00380
E3C00380
E7800380
EF000380
EE000380
FC000380
F8000380
F8000380
F0000380
E0000380
C0000380
80000380
ENDCHAR
STARTCHAR 0419
ENCODING 1049
SWIDTH 742 0
DWIDTH 33 0
BBX 25 42 4 0
BITMAP
07007000
0780F000
03C1E000
01FFC000
00FF8000
003F0000
00000000
00000000
00000000
00000000
E0000080
E0000180
E0000380
E0000780
E0000F80
E0000F80
E0001F80
E0003B80
E0007B80
E000F380
E001E380
E001C380
E0038380
E0070380
E00F0380
E01E0380
E03C0380
E0780380
E0700380
E0E00380
E1C00380
E3C00380
E7800380
EF000380
EE000380
FC000380
F8000380
F8000380
F0000380
E0000380
C0000380
80000380
ENDCHAR
STARTCHAR 041A
ENCODING 1050
SWIDTH 585 0
DWIDTH 26 0
BBX 21 32 4 0
BITMAP
E000F0
E001E0
E007C0
E00F80
E01E00
E03C00
E07800
E0F000
E1E000
E3C000
EF8000
FF0000
FC0000
F80000
F80000
FC0000
FE0000
EF0000
E78000
E3C000
E1E000
E0F000
E07800
E03C00
E01E00
E00F00
E00780
E007C0
E003C0
E001E0
E000F0
E00078
ENDCHAR
STARTCHAR 041B
ENCODING 1051
SWIDTH 697 0
DWIDTH 31 0
BBX 29 32 1 0
BITMAP
00020000
00070000
00070000
000F8000
000F8000
000F8000
001FC000
001DC000
0039E000
0038E000
0078F000
00707000
00707000
00E07800
00E03800
01C03C00
01C01C00
03801E00
03800E00
07000F00
07000700
07000700
0E000380
0E000380
1C0003C0
1C0001C0
380001E0
380000E0
300000E0
70000070
70000070
E0000038
ENDCHAR
STARTCHAR 041C
ENCODING 1052
SWIDTH 967 0
DWIDTH 43 0
BBX 37 32 3 0
BITMAP
0C00000180
0C00000180
0E00000380
0E00000380
0F00000780
0F00000780
0F80000FC0
1F80000FC0
1FC0001DC0
1DC0001DC0
1DE00039C0
1CE00039C0
1CF00071C0
1C700071E0
3C7800E1E0
383800E0E0
383C01C0E0
381C01C0E0
381E0380E0
380E0380F0
380F0700F0
78070700F0
70078E0070
70038E0070
7003DC0070
7001DC0070
7001F80078
7000F80078
F000F00078
E000700038
E000600038
E000200038
ENDCHAR
STARTCHAR 041D
ENCODING 1053
SWIDTH 675 0
DWIDTH 30 0
BBX 22 32 4 0
BITMAP
E0001C
E0001C
E0001C
E0001C
E0001C
E0001C
E0001C
E0001C
E0001C
E0001C
E0001C
E0001C
E0001C
E0001C
FFFFFC
FFFFFC
FFFFFC
E0001C
E0001C
E0001C
E0001C
E0001C
E0001C
E0001C
E0001C
E0001C
E0001C
E0001C
E0001C
E0001C
E0001C
E0001C
ENDCHAR
STARTCHAR 041E
ENCODING 1054
SWIDTH 855 0
DWIDTH 38 0
BBX 32 34 3 -1
BITMAP
000FF000
007FFE00
00FFFF00
03F81FC0
07C003E0
0F8001F0
1E000078
1C000038
3C00003C
3800001C
7000000E
7000000E
7000000E
E0000007
E0000007
E0000007
E0000007
E0000007
E0000007
E0000007
E0000007
F000000E
7000000E
7000000E
3800001C
3C00003C
1C000038
1E000078
0F0000F0
07C003E0
03F00FC0
01FFFF80
007FFE00
000FF000
ENDCHAR
STARTCHAR 041F
ENCODING 1055
SWIDTH 675 0
DWIDTH 30 0
BBX 22 32 4 0
BITMAP
FFFFFC
FFFFFC
FFFFFC
E0001C
E0001C
E0001C
E0001C
E0001C
E0001C
E0001C
E0001C
E0001C
E0001C
E0001C
E0001C
E0001C
E0001C
E0001C
E0001C
E0001C
E0001C
E0001C
E0001C
E0001C
E0001C
E0001C
E0001C
E0001C
E0001C
E0001C
E0001C
E0001C
ENDCHAR
STARTCHAR 0420
ENCODING 1056
SWIDTH 585 0
DWIDTH 26 0
BBX 19 32 4 0
BITMAP
FFF800
FFFE00
FFFF80
E007C0
E003C0
E001E0
E000E0
E000E0
E000E0
E000E0
E000E0
E001E0
E003C0
E007C0
FFFF80
FFFE00
FFF800
E00000
E00000
E00000
E00000
E00000
E00000
E00000
E00000
E00000
E00000
E00000
E00000
E00000
E00000
E00000
ENDCHAR
STARTCHAR 0421
ENCODING 1057
SWIDTH 810 0
DWIDTH 36 0
BBX 30 34 3 -1
BITMAP
000FF800
007FFF00
00FFFFC0
03F80FE0
07C001F8
0F80007C
1E000038
1C000010
3C000000
78000000
70000000
70000000
F0000000
E0000000
E0000000
E0000000
E0000000
E0000000
E0000000
E0000000
E0000000
70000000
70000000
70000000
78000000
3C000000
1C000010
1E00003C
0F80007C
07C001F8
03F80FE0
01FFFFC0
007FFF00
000FF800
ENDCHAR
STARTCHAR 0422
ENCODING 1058
SWIDTH 405 0
DWIDTH 18 0
BBX 17 32 0 0
BITMAP
FFFF80
FFFF80
FFFF80
01C000
01C000
01C000
01C000
01C000
01C000
01C000
01C000
01C000
01C000
01C000
01C000
01C000
01C000
01C000
01C000
01C000
01C000
01C000
01C000
01C000
01C000
01C000
01C000
01C000
01C000
01C000
01C000
01C000
ENDCHAR
STARTCHAR 0423
ENCODING 1059
SWIDTH 630 0
DWIDTH 28 0
BBX 26 33 1 -1
BITMAP
E00001C0
F00001C0
F0000380
78000380
78000700
3C000700
3C000F00
1E000E00
1E001E00
0F001C00
0F001C00
07803800
07803800
03807800
03C07000
01C0F000
01E0E000
00E0E000
00F1C000
0071C000
007B8000
003B8000
003F8000
001F0000
001F0000
000E0000
000E0000
201C0000
703C0000
F8780000
7FF80000
1FF00000
07C00000
ENDCHAR
STARTCHAR 0424
ENCODING 1060
SWIDTH 855 0
DWIDTH 38 0
BBX 32 32 3 0
BITMAP
00038000
00038000
00038000
00038000
01FFFF00
0FFFFFE0
1FFFFFF8
3E0380FC
7803803E
7003800E
F003800E
E0038007
E0038007
E0038007
E0038007
E0038007
F003800F
7003800E
7803801E
3C03807C
1FFFFFF8
0FFFFFF0
03FFFF80
00038000
00038000
00038000
00038000
00038000
00038000
00038000
00038000
00038000
ENDCHAR
STARTCHAR 0425
ENCODING 1061
SWIDTH 607 0
DWIDTH 27 0
BBX 22 32 2 0
BITMAP
E0001C
F0003C
700038
380070
3C00F0
1C00E0
1E01E0
0E01C0
070380
078780
038700
01CE00
01FE00
00FC00
00FC00
007800
007800
00FC00
00FC00
01FE00
01CE00
038700
078780
070380
0E01C0
1E01E0
1C00E0
3C00F0
380070
700038
F0003C
E0001C
ENDCHAR
STARTCHAR 0426
ENCODING 1062
SWIDTH 697 0
DWIDTH 31 0
BBX 26 37 4 -5
BITMAP
E0003800
E0003800
E0003800
E0003800
E0003800
E0003800
E0003800
E0003800
E0003800
E0003800
E0003800
E0003800
E0003800
E0003800
E0003800
E0003800
E0003800
E0003800
E0003800
E0003800
E0003800
E0003800
E0003800
E0003800
E0003800
E0003800
E0003800
E0003800
E0003800
FFFFFFC0
FFFFFFC0
FFFFFFC0
000001C0
000001C0
000001C0
000001C0
000001C0
ENDCHAR
STARTCHAR 0427
ENCODING 1063
SWIDTH 540 0
DWIDTH 24 0
BBX 19 32 1 0
BITMAP
E000E0
E000E0
E000E0
E000E0
E000E0
E000E0
E000E0
E000E0
E000E0
E000E0
E000E0
7000E0
7800E0
3C00E0
3FFFE0
0FFFE0
03FFE0
0000E0
0000E0
0000E0
0000E0
0000E0
0000E0
0000E0
0000E0
0000E0
0000E0
0000E0
0000E0
0000E0
0000E0
0000E0
ENDCHAR
STARTCHAR 0428
ENCODING 1064
SWIDTH 990 0
DWIDTH 44 0
BBX 36 32 4 0
BITMAP
E000E00070
E000E00070
E000E00070
E000E00070
E000E00070
E000E00070
E000E00070
E000E00070
E000E00070
E000E00070
E000E00070
E000E00070
E000E00070
E000E00070
E000E00070
E000E00070
E000E00070
E000E00070
E000E00070
E000E00070
E000E00070
E000E00070
E000E00070
E000E00070
E000E00070
E000E00070
E000E00070
E000E00070
E000E00070
FFFFFFFFF0
FFFFFFFFF0
FFFFFFFFF0
ENDCHAR
STARTCHAR 0429
ENCODING 1065
SWIDTH 1057 0
DWIDTH 47 0
BBX 42 37 4 -5
BITMAP
E000E0007000
E000E0007000
E000E0007000
E000E0007000
E000E0007000
E000E0007000
E000E0007000
E000E0007000
E000E0007000
E000E0007000
E000E0007000
E000E0007000
E000E0007000
E000E0007000
E000E0007000
E000E0007000
E000E0007000
E000E0007000
E000E0007000
E000E0007000
E000E0007000
E000E0007000
E000E0007000
E000E0007000
E000E0007000
E000E0007000
E000E0007000
E000E0007000
E000E0007000
FFFFFFFFFFC0
FFFFFFFFFFC0
FFFFFFFFFFC0
0000000001C0
0000000001C0
0000000001C0
0000000001C0
0000000001C0
ENDCHAR
STARTCHAR 042A
ENCODING 1066
SWIDTH 675 0
DWIDTH 30 0
BBX 26 32 1 0
BITMAP
FF800000
FF800000
FF800000
03800000
03800000
03800000
03800000
03800000
03800000
03800000
03800000
03800000
03800000
03800000
03FFE000
03FFFC00
03FFFF00
03801F00
03800780
03800380
038001C0
038001C0
038001C0
038001C0
038001C0
038001C0
03800380
03800780
03801F00
03FFFF00
03FFFC00
03FFF000
ENDCHAR
STARTCHAR 042B
ENCODING 1067
SWIDTH 787 0
DWIDTH 35 0
BBX 27 32 4 0
BITMAP
E00000E0
E00000E0
E00000E0
E00000E0
E00000E0
E00000E0
E00000E0
E00000E0
E00000E0
E00000E0
E00000E0
E00000E0
E00000E0
E00000E0
FFF800E0
FFFF00E0
FFFFC0E0
E007C0E0
E001E0E0
E000E0E0
E00070E0
E00070E0
E00070E0
E00070E0
E00070E0
E00070E0
E000E0E0
E001E0E0
E007C0E0
FFFFC0E0
FFFF00E0
FFFC00E0
ENDCHAR
STARTCHAR 042C
ENCODING 1068
SWIDTH 607 0
DWIDTH 27 0
BBX 20 32 4 0
BITMAP
E00000
E00000
E00000
E00000
E00000
E00000
E00000
E00000
E00000
E00000
E00000
E00000
E00000
E00000
FFF800
FFFF00
FFFFC0
E007C0
E001E0
E000E0
E00070
E00070
E00070
E00070
E00070
E00070
E000E0
E001E0
E007C0
FFFFC0
FFFF00
FFFC00
ENDCHAR
STARTCHAR 042D
ENCODING 1069
SWIDTH 810 0
DWIDTH 36 0
BBX 30 34 3 -1
BITMAP
007F8000
03FFF000
0FFFFC00
1FC07F00
3E000F80
780007C0
F00001E0
600000E0
00000070
00000070
00000038
00000038
00000038
0000001C
0000001C
000FFFFC
000FFFFC
000FFFFC
0000001C
0000001C
0000001C
00000038
00000038
00000078
00000070
000000F0
600000E0
F00001E0
F80007C0
7E000F80
3F807F00
0FFFFE00
03FFF800
007FC000
ENDCHAR
STARTCHAR 042E
ENCODING 1070
SWIDTH 1080 0
DWIDTH 48 0
BBX 41 34 4 -1
BITMAP
00000FF00000
E0003FFE0000
E000FFFF8000
E003F80FE000
E007C001F000
E00F8000F800
E01F00007C00
E01E00003C00
E03C00001E00
E03800000E00
E07000000F00
E07000000700
E0F000000700
E0E000000380
E0E000000380
FFE000000380
FFE000000380
FFE000000380
E0E000000380
E0E000000380
E0E000000380
E07000000700
E07000000700
E07000000700
E03800000E00
E03C00001E00
E01C00003C00
E01E00003C00
E00F8000F800
E007C001F000
E003F80FE000
E000FFFF8000
E0007FFF0000
00000FF80000
ENDCHAR
STARTCHAR 042F
ENCODING 1071
SWIDTH 585 0
DWIDTH 26 0
BBX 20 32 2 0
BITMAP
03FFF0
0FFFF0
3FFFF0
3E0070
780070
F00070
E00070
E00070
E00070
E00070
E00070
F00070
780070
3E0070
3FFFF0
0FFFF0
03FFF0
001C70
003C70
007870
007070
00E070
01E070
03C070
038070
070070
0F0070
1E0070
1C0070
380070
780070
F00070
ENDCHAR
STARTCHAR 0430
ENCODING 1072
SWIDTH 675 0
DWIDTH 30 0
BBX 24 23 2 0
BITMAP
00FF07
03FFC7
0FFFE7
1F81F7
3E007F
3C003F
78001F
70000F
F0000F
E00007
E00007
E00007
E00007
E00007
F0000F
70000F
78001F
3C001F
3E007F
1F81FF
0FFFF7
03FFC7
00FF07
ENDCHAR
STARTCHAR 0431
ENCODING 1073
SWIDTH 652 0
DWIDTH 29 0
BBX 25 33 2 0
BITMAP
000FFF00
00FFFF00
07FFFF00
0FE00000
1F000000
3E000000
3C000000
78000000
78000000
70000000
F03F8000
F0FFE000
F3FFF800
E7C0FC00
EF003E00
EE001E00
FC000F00
F8000700
F8000780
F0000380
F0000380
F0000380
70000380
70000380
70000780
78000700
38000F00
3C001E00
1F003E00
0FC0FC00
07FFF800
01FFE000
007F8000
ENDCHAR
STARTCHAR 0432
ENCODING 1074
SWIDTH 472 0
DWIDTH 21 0
BBX 15 23 4 0
BITMAP
FFC0
FFF0
FFF8
E07C
E01C
E01C
E01C
E01C
E078
FFF0
FFF0
FFF8
E03C
E01E
E00E
E00E
E00E
E00E
E01E
E03C
FFFC
FFF8
FFE0
ENDCHAR
STARTCHAR 0433
ENCODING 1075
SWIDTH 360 0
DWIDTH 16 0
BBX 11 23 4 0
BITMAP
FFE0
FFE0
FFE0
E000
E000
E000
E000
E000
E000
E000
E000
E000
E000
E000
E000
E000
E000
E000
E000
E000
E000
E000
E000
ENDCHAR
STARTCHAR 0434
ENCODING 1076
SWIDTH 607 0
DWIDTH 27 0
BBX 25 26 1 -3
BITMAP
000C0000
001C0000
001C0000
003E0000
003E0000
00770000
00770000
00738000
00E38000
00E3C000
01C1C000
01C1E000
0380E000
0380F000
07007000
07007000
0F007800
0E003800
1E003C00
1C001C00
FFFFFF80
FFFFFF80
FFFFFF80
E0000380
E0000380
E0000380
ENDCHAR
STARTCHAR 0435
ENCODING 1077
SWIDTH 652 0
DWIDTH 29 0
BBX 25 23 2 0
BITMAP
007F0000
03FFE000
07FFF000
1F80FC00
1E003C00
3C000E00
78000700
70000700
F0000300
FFFFFF80
FFFFFF80
FFFFFF80
E0000000
E0000000
E0000000
70000000
70000400
38000F00
3E001E00
1F80FC00
0FFFF800
03FFE000
00FF8000
ENDCHAR
STARTCHAR 0436
ENCODING 1078
SWIDTH 765 0
DWIDTH 34 0
BBX 33 23 0 0
BITMAP
7801C00F00
3C01C01E00
1E01C03C00
0F01C07800
0781C0F000
03C1C1E000
01E1C3C000
00F1C78000
0079CF0000
001FFC0000
001FFC0000
003FFE0000
007BEF0000
00F1C78000
01E1C3C000
03C1C1E000
0381C0F000
0701C07800
0E01C07800
1E01C03C00
3C01C01E00
7801C00F00
F001C00780
ENDCHAR
STARTCHAR 0437
ENCODING 1079
SWIDTH 427 0
DWIDTH 19 0
BBX 16 23 1 0
BITMAP
07E0
1FF8
7FFC
383E
201E
000E
000E
001E
003C
03F8
03F8
03FC
003E
000F
0007
0007
0007
0007
600F
F83E
7FFC
3FF8
0FE0
ENDCHAR
STARTCHAR 0438
ENCODING 1080
SWIDTH 607 0
DWIDTH 27 0
BBX 19 23 4 0
BITMAP
E00020
E00060
E000E0
E001E0
E003E0
E007E0
E00EE0
E00CE0
E01CE0
E038E0
E070E0
E0E0E0
E1C0E0
E380E0
E700E0
E600E0
EC00E0
FC00E0
F800E0
F000E0
E000E0
C000E0
8000E0
ENDCHAR
STARTCHAR 0439
ENCODING 1081
SWIDTH 607 0
DWIDTH 27 0
BBX 19 32 4 0
BITMAP
380380
3C0780
1E0F00
0FFE00
07FC00
01F800
000000
000000
000000
E00020
E00060
E000E0
E001E0
E003E0
E007E0
E00EE0
E00CE0
E01CE0
E038E0
E070E0
E0E0E0
E1C0E0
E380E0
E700E0
E600E0
EC00E0
FC00E0
F800E0
F000E0
E000E0
C000E0
8000E0
ENDCHAR
STARTCHAR 043A
ENCODING 1082
SWIDTH 495 0
DWIDTH 22 0
BBX 19 23 4 0
BITMAP
E003C0
E00780
E00F00
E01E00
E07C00
E0F000
E1E000
E3C000
E78000
FE0000
FC0000
FE0000
FF0000
E78000
E3C000
E1E000
E0F000
E03C00
E01E00
E00F00
E00780
E003C0
E001E0
ENDCHAR
STARTCHAR 043B
ENCODING 1083
SWIDTH 540 0
DWIDTH 24 0
BBX 22 23 1 0
BITMAP
003000
003000
007800
007800
00FC00
00FC00
01FC00
01CE00
01CE00
038700
038700
070380
070380
0E03C0
0E01C0
1C01E0
1C00E0
3800F0
380070
700078
700038
E0003C
E0001C
ENDCHAR
STARTCHAR 043C
ENCODING 1084
SWIDTH 877 0
DWIDTH 39 0
BBX 37 23 1 0
BITMAP
0180000C00
0180000C00
01C0001C00
03C0001E00
03E0003E00
03F0007E00
07F0007700
077800F700
073800E700
0E3C01E380
0E1C01C380
0E1E038380
1C0F0381C0
1C070701C0
1C078F01C0
38038E00E0
3803DE00E0
3801DC00E0
7001FC0070
7000F80070
7000700070
E000700038
E000200038
ENDCHAR
STARTCHAR 043D
ENCODING 1085
SWIDTH 585 0
DWIDTH 26 0
BBX 18 23 4 0
BITMAP
E001C0
E001C0
E001C0
E001C0
E001C0
E001C0
E001C0
E001C0
E001C0
FFFFC0
FFFFC0
FFFFC0
E001C0
E001C0
E001C0
E001C0
E001C0
E001C0
E001C0
E001C0
E001C0
E001C0
E001C0
ENDCHAR
STARTCHAR 043E
ENCODING 1086
SWIDTH 652 0
DWIDTH 29 0
BBX 25 23 2 0
BITMAP
007F0000
03FFE000
07FFF000
1F80FC00
1E003C00
3C001E00
78000F00
70000700
F0000780
E0000380
E0000380
E0000380
E0000380
E0000380
F0000780
70000700
78000F00
3C001E00
3E003E00
1F80FC00
07FFF000
03FFE000
007F0000
ENDCHAR
STARTCHAR 043F
ENCODING 1087
SWIDTH 585 0
DWIDTH 26 0
BBX 18 23 4 0
BITMAP
FFFFC0
FFFFC0
FFFFC0
E001C0
E001C0
E001C0
E001C0
E001C0
E001C0
E001C0
E001C0
E001C0
E001C0
E001C0
E001C0
E001C0
E001C0
E001C0
E001C0
E001C0
E001C0
E001C0
E001C0
ENDCHAR
STARTCHAR 0440
ENCODING 1088
SWIDTH 675 0
DWIDTH 30 0
BBX 24 32 4 -9
BITMAP
E0FF00
E3FFC0
E7FFE0
EF81F8
FE007C
FC003C
F8001E
F0000E
F0000F
E00007
E00007
E00007
E00007
E00007
E0000F
F0000E
F8001E
F8003C
FE007C
EF81F8
E7FFF0
E1FFC0
E07F00
E00000
E00000
E00000
E00000
E00000
E00000
E00000
E00000
E00000
ENDCHAR
STARTCHAR 0441
ENCODING 1089
SWIDTH 630 0
DWIDTH 28 0
BBX 24 23 2 0
BITMAP
007F80
01FFF0
07FFF8
0FC07C
1E001E
3C000F
780004
700000
F00000
E00000
E00000
E00000
E00000
E00000
F00000
700000
780004
3C000F
3E001E
1F80FC
07FFF8
03FFF0
007F80
ENDCHAR
STARTCHAR 0442
ENCODING 1090
SWIDTH 382 0
DWIDTH 17 0
BBX 15 23 1 0
BITMAP
FFFE
FFFE
FFFE
0380
0380
0380
0380
0380
0380
0380
0380
0380
0380
0380
0380
0380
0380
0380
0380
0380
0380
0380
0380
ENDCHAR
STARTCHAR 0443
ENCODING 1091
SWIDTH 517 0
DWIDTH 23 0
BBX 22 32 0 -9
BITMAP
E0001C
F00038
700038
780070
380070
3C00F0
1C00E0
1E01E0
1E01C0
0E01C0
0F0380
070380
078780
038700
03CF00
01CE00
01EE00
00FC00
00FC00
00F800
007800
007800
007000
007000
00E000
00E000
01C000
01C000
03C000
038000
078000
070000
ENDCHAR
STARTCHAR 0444
ENCODING 1092
SWIDTH 1080 0
DWIDTH 48 0
BBX 44 42 2 -9
BITMAP
00000E000000
00000E000000
00000E000000
00000E000000
00000E000000
00000E000000
00000E000000
00000E000000
00000E000000
00000E000000
00FE0E0FE000
03FF8E3FFC00
0FFFEEFFFE00
1F81EEF81F80
3E007FE007C0
3C003F8003C0
78001F8001E0
70001F0000E0
F0000F0000F0
E0000E000070
E0000E000070
E0000E000070
E0000E000070
E0000E000070
F0000E0000F0
70001F0000E0
78001F0001E0
3C003F8003C0
3E007FE007C0
1F81EEF01F80
0FFFCE7FFE00
03FF8E3FFC00
00FE0E0FE000
00000E000000
00000E000000
00000E000000
00000E000000
00000E000000
00000E000000
00000E000000
00000E000000
00000E000000
ENDCHAR
STARTCHAR 0445
ENCODING 1093
SWIDTH 472 0
DWIDTH 21 0
BBX 21 23 0 0
BITMAP
7800F0
3C01E0
1C01C0
0E0380
0F0780
070700
038E00
03DE00
01FC00
00F800
007000
00F800
00F800
01DC00
03DE00
078F00
070700
0E0380
1E03C0
1C01E0
3800E0
7800F0
F00078
ENDCHAR
STARTCHAR 0446
ENCODING 1094
SWIDTH 652 0
DWIDTH 29 0
BBX 24 27 4 -4
BITMAP
E000E0
E000E0
E000E0
E000E0
E000E0
E000E0
E000E0
E000E0
E000E0
E000E0
E000E0
E000E0
E000E0
E000E0
E000E0
E000E0
E000E0
E000E0
E000E0
E000E0
FFFFFF
FFFFFF
FFFFFF
000007
000007
000007
000007
ENDCHAR
STARTCHAR 0447
ENCODING 1095
SWIDTH 450 0
DWIDTH 20 0
BBX 15 23 1 0
BITMAP
E00E
E00E
E00E
E00E
E00E
E00E
E00E
E00E
F00E
780E
7FFE
3FFE
0FFE
000E
000E
000E
000E
000E
000E
000E
000E
000E
000E
ENDCHAR
STARTCHAR 0448
ENCODING 1096
SWIDTH 945 0
DWIDTH 42 0
BBX 34 23 4 0
BITMAP
E001C001C0
E001C001C0
E001C001C0
E001C001C0
E001C001C0
E001C001C0
E001C001C0
E001C001C0
E001C001C0
E001C001C0
E001C001C0
E001C001C0
E001C001C0
E001C001C0
E001C001C0
E001C001C0
E001C001C0
E001C001C0
E001C001C0
E001C001C0
FFFFFFFFC0
FFFFFFFFC0
FFFFFFFFC0
ENDCHAR
STARTCHAR 0449
ENCODING 1097
SWIDTH 990 0
DWIDTH 44 0
BBX 39 27 4 -4
BITMAP
E001C001C0
E001C001C0
E001C001C0
E001C001C0
E001C001C0
E001C001C0
E001C001C0
E001C001C0
E001C001C0
E001C001C0
E001C001C0
E001C001C0
E001C001C0
E001C001C0
E001C001C0
E001C001C0
E001C001C0
E001C001C0
E001C001C0
E001C001C0
FFFFFFFFFE
FFFFFFFFFE
FFFFFFFFFE
000000000E
000000000E
000000000E
000000000E
ENDCHAR
STARTCHAR 044A
ENCODING 1098
SWIDTH 517 0
DWIDTH 23 0
BBX 21 23 1 0
BITMAP
FE0000
FE0000
FE0000
0E0000
0E0000
0E0000
0E0000
0E0000
0E0000
0FFF00
0FFFC0
0FFFE0
0E01F0
0E0070
0E0038
0E0038
0E0038
0E0038
0E0078
0E01F0
0FFFE0
0FFFC0
0FFF00
ENDCHAR
STARTCHAR 044B
ENCODING 1099
SWIDTH 675 0
DWIDTH 30 0
BBX 22 23 4 0
BITMAP
E0001C
E0001C
E0001C
E0001C
E0001C
E0001C
E0001C
E0001C
E0001C
FFC01C
FFF01C
FFF81C
E03C1C
E01E1C
E00E1C
E00E1C
E00E1C
E00E1C
E01E1C
E03C1C
FFFC1C
FFF81C
FFE01C
ENDCHAR
STARTCHAR 044C
ENCODING 1100
SWIDTH 472 0
DWIDTH 21 0
BBX 16 23 4 0
BITMAP
E000
E000
E000
E000
E000
E000
E000
E000
E000
FFE0
FFF8
FFFC
E03E
E00E
E007
E007
E007
E007
E00F
E03E
FFFC
FFF8
FFE0
ENDCHAR
STARTCHAR 044D
ENCODING 1101
SWIDTH 630 0
DWIDTH 28 0
BBX 24 23 2 0
BITMAP
01FE00
0FFF80
1FFFE0
7E01F0
780078
F0003C
60001E
00000E
000007
003FFF
003FFF
003FFF
000007
000007
00000F
00000E
60001E
F0003C
F80078
7E03F0
1FFFE0
0FFFC0
01FE00
ENDCHAR
STARTCHAR 044E
ENCODING 1102
SWIDTH 832 0
DWIDTH 37 0
BBX 31 23 4 0
BITMAP
E001FE00
E007FF80
E01FFFC0
E03F03F0
E07C00F0
E0780078
E0F0003C
E0E0001C
E1E0001E
E1C0000E
FFC0000E
FFC0000E
FFC0000E
E1C0000E
E1C0001E
E1E0001C
E0F0003C
E0F00078
E07C00F8
E03F03F0
E01FFFE0
E007FF80
E001FE00
ENDCHAR
STARTCHAR 044F
ENCODING 1103
SWIDTH 450 0
DWIDTH 20 0
BBX 15 23 1 0
BITMAP
07FE
1FFE
3FFE
3C0E
780E
700E
700E
700E
780E
3C0E
3FFE
0FFE
03FE
01CE
038E
070E
0F0E
0E0E
1C0E
3C0E
380E
700E
E00E
ENDCHAR
STARTCHAR 0451
ENCODING 1105
SWIDTH 652 0
DWIDTH 29 0
BBX 25 31 2 0
BITMAP
01C0E000
03E1F000
03E1F000
03E1F000
01C0E000
00000000
00000000
00000000
007F0000
03FFE000
07FFF000
1F80FC00
1E003C00
3C000E00
78000700
70000700
F0000300
FFFFFF80
FFFFFF80
FFFFFF80
E0000000
E0000000
E0000000
70000000
70000400
38000F00
3E001E00
1F80FC00
0FFFF800
03FFE000
00FF8000
ENDCHAR
STARTCHAR 0452
ENCODING 1106
SWIDTH 630 0
DWIDTH 28 0
BBX 23 42 1 -9
BITMAP
1C0000
1C0000
1C0000
1C0000
FFFF00
FFFF00
FFFF00
1C0000
1C0000
1C0000
1C0FC0
1C3FE0
1CFFF8
1DE078
1FC03C
1F001C
1F001E
1E000E
1E000E
1C000E
1C000E
1C000E
1C000E
1C000E
1C000E
1C000E
1C000E
1C000E
1C000E
1C000E
1C000E
1C000E
1C000E
00000E
00000E
00000E
00000E
00000E
00001E
0000FE
0000FC
000078
ENDCHAR
STARTCHAR 0453
ENCODING 1107
SWIDTH 360 0
DWIDTH 16 0
BBX 12 33 4 0
BITMAP
01F0
01E0
03C0
0780
0700
0E00
1C00
0000
0000
0000
FFE0
FFE0
FFE0
E000
E000
E000
E000
E000
E000
E000
E000
E000
E000
E000
E000
E000
E000
E000
E000
E000
E000
E000
E000
ENDCHAR
STARTCHAR 0454
ENCODING 1108
SWIDTH 630 0
DWIDTH 28 0
BBX 24 23 2 0
BITMAP
007F80
01FFF0
07FFF8
0F807E
1E001E
3C000F
700006
700000
E00000
FFFC00
FFFC00
FFFC00
E00000
E00000
F00000
700000
780006
3C000F
1E001E
1FC07E
07FFF8
03FFF0
007F80
ENDCHAR
STARTCHAR 0455
ENCODING 1109
SWIDTH 382 0
DWIDTH 17 0
BBX 14 23 1 0
BITMAP
07C0
1FE0
3FF8
7C7C
701C
7008
7000
7800
3C00
3E00
1F80
07E0
01F0
0078
003C
001C
001C
401C
603C
F878
7FF8
3FF0
0FC0
ENDCHAR
STARTCHAR 0456
ENCODING 1110
SWIDTH 202 0
DWIDTH 9 0
BBX 5 33 2 0
BITMAP
70
F8
F8
F8
70
00
00
00
00
00
70
70
70
70
70
70
70
70
70
70
70
70
70
70
70
70
70
70
70
70
70
70
70
ENDCHAR
STARTCHAR 0457
ENCODING 1111
SWIDTH 247 0
DWIDTH 11 0
BBX 14 31 -2 0
BITMAP
7038
F87C
F87C
F87C
7038
0000
0000
0000
0380
0380
0380
0380
0380
0380
0380
0380
0380
0380
0380
0380
0380
0380
0380
0380
0380
0380
0380
0380
0380
0380
0380
ENDCHAR
STARTCHAR 0458
ENCODING 1112
SWIDTH 202 0
DWIDTH 9 0
BBX 8 42 -1 -9
BITMAP
0E
1F
1F
1F
0E
00
00
00
00
00
0E
0E
0E
0E
0E
0E
0E
0E
0E
0E
0E
0E
0E
0E
0E
0E
0E
0E
0E
0E
0E
0E
0E
0E
0E
0E
0E
0E
1E
FE
FC
78
ENDCHAR
STARTCHAR 0459
ENCODING 1113
SWIDTH 787 0
DWIDTH 35 0
BBX 33 23 1 0
BITMAP
0030000000
0030000000
0078000000
0078000000
00FC000000
00FC000000
00FE000000
01CE000000
01CF000000
038FFFF000
0387FFFC00
0707FFFE00
0703801F00
0E03C00700
0E01C00380
1C01E00380
1C00E00380
3800F00380
3800700780
7000781F00
70003FFE00
E0003FFC00
E0001FF000
ENDCHAR
STARTCHAR 045A
ENCODING 1114
SWIDTH 832 0
DWIDTH 37 0
BBX 32 23 4 0
BITMAP
E000E000
E000E000
E000E000
E000E000
E000E000
E000E000
E000E000
E000E000
E000E000
FFFFFFE0
FFFFFFF8
FFFFFFFC
E000E03E
E000E00E
E000E007
E000E007
E000E007
E000E007
E000E00F
E000E03E
E000FFFC
E000FFF8
E000FFE0
ENDCHAR
STARTCHAR 045B
ENCODING 1115
SWIDTH 630 0
DWIDTH 28 0
BBX 23 33 1 0
BITMAP
1C0000
1C0000
1C0000
1C0000
FFFF00
FFFF00
FFFF00
1C0000
1C0000
1C0000
1C0FC0
1C3FE0
1CFFF8
1DE078
1FC03C
1F001C
1F001E
1E000E
1E000E
1C000E
1C000E
1C000E
1C000E
1C000E
1C000E
1C000E
1C000E
1C000E
1C000E
1C000E
1C000E
1C000E
1C000E
ENDCHAR
STARTCHAR 045C
ENCODING 1116
SWIDTH 495 0
DWIDTH 22 0
BBX 19 33 4 0
BITMAP
007C00
007800
00F000
01E000
01C000
038000
070000
000000
000000
000000
E003C0
E00780
E00F00
E01E00
E07C00
E0F000
E1E000
E3C000
E78000
FE0000
FC0000
FE0000
FF0000
E78000
E3C000
E1E000
E0F000
E03C00
E01E00
E00F00
E00780
E003C0
E001E0
ENDCHAR
STARTCHAR 045E
ENCODING 1118
SWIDTH 517 0
DWIDTH 23 0
BBX 22 41 0 -9
BITMAP
1C01C0
1E03C0
0F0780
07FF00
03FE00
00FC00
000000
000000
000000
E0001C
F00038
700038
780070
380070
3C00F0
1C00E0
1E01E0
1E01C0
0E01C0
0F0380
070380
078780
038700
03CF00
01CE00
01EE00
00FC00
00FC00
00F800
007800
007800
007000
007000
00E000
00E000
01C000
01C000
03C000
038000
078000
070000
ENDCHAR
STARTCHAR 045F
ENCODING 1119
SWIDTH 585 0
DWIDTH 26 0
BBX 18 27 4 -4
BITMAP
E001C0
E001C0
E001C0
E001C0
E001C0
E001C0
E001C0
E001C0
E001C0
E001C0
E001C0
E001C0
E001C0
E001C0
E001C0
E001C0
E001C0
E001C0
E001C0
E001C0
FFFFC0
FFFFC0
FFFFC0
00E000
00E000
00E000
00E000
ENDCHAR
STARTCHAR 0490
ENCODING 1168
SWIDTH 405 0
DWIDTH 18 0
BBX 13 37 4 0
BITMAP
0038
0038
0038
0038
0038
FFF8
FFF8
FFF8
E000
E000
E000
E000
E000
E000
E000
E000
E000
E000
E000
E000
E000
E000
E000
E000
E000
E000
E000
E000
E000
E000
E000
E000
E000
E000
E000
E000
E000
ENDCHAR
STARTCHAR 0491
ENCODING 1169
SWIDTH 360 0
DWIDTH 16 0
BBX 11 26 4 0
BITMAP
00E0
00E0
00E0
FFE0
FFE0
FFE0
E000
E000
E000
E000
E000
E000
E000
E000
E000
E000
E000
E000
E000
E000
E000
E000
E000
E000
E000
E000
ENDCHAR
STARTCHAR 1E80
ENCODING 7808
SWIDTH 922 0
DWIDTH 41 0
BBX 37 43 2 0
BITMAP
0007C00000
0003C00000
0001E00000
0000F00000
0000700000
0000380000
00001C0000
0000000000
0000000000
0000000000
0000000000
E000200038
F000300038
7000700070
7000700070
7000780070
7800F800F0
3800F800E0
3800FC00E0
3801DC00E0
1C01DE01C0
1C039E01C0
1C038E01C0
1C038F01C0
0E070F0380
0E07070380
0E07078380
0F0E038780
070E03C700
071C03C700
071C01C700
079C01EE00
03B801EE00
03B800EE00
03B800FE00
01F0007C00
01F0007C00
01F0007C00
01E0003C00
00E0003800
00E0003800
00C0001800
00C0001800
ENDCHAR
STARTCHAR 1E81
ENCODING 7809
SWIDTH 855 0
DWIDTH 38 0
BBX 37 33 0 0
BITMAP
000F800000
0007800000
0003C00000
0001E00000
0000E00000
0000700000
0000380000
0000000000
0000000000
0000000000
E000200038
F000700070
7000700070
7800F800E0
3800F800E0
3C00F801E0
1C01DC01C0
1C01DC01C0
1E038E0380
0E038E0380
0F07070700
0707070700
078F070E00
038E038E00
038E038E00
01DC01DC00
01DC01DC00
01F800F800
00F800F800
00F0007000
0070007000
0070006000
0020002000
ENDCHAR
STARTCHAR 1E82
ENCODING 7810
SWIDTH 922 0
DWIDTH 41 0
BBX 37 43 2 0
BITMAP
000007C000
0000078000
00000F0000
00001E0000
00001C0000
0000380000
0000700000
0000000000
0000000000
0000000000
0000000000
E000200038
F000300038
7000700070
7000700070
7000780070
7800F800F0
3800F800E0
3800FC00E0
3801DC00E0
1C01DE01C0
1C039E01C0
1C038E01C0
1C038F01C0
0E070F0380
0E07070380
0E07078380
0F0E038780
070E03C700
071C03C700
071C01C700
079C01EE00
03B801EE00
03B800EE00
03B800FE00
01F0007C00
01F0007C00
01F0007C00
01E0003C00
00E0003800
00E0003800
00C0001800
00C0001800
ENDCHAR
STARTCHAR 1E83
ENCODING 7811
SWIDTH 855 0
DWIDTH 38 0
BBX 37 33 0 0
BITMAP
00000F8000
00000F0000
00001E0000
00003C0000
0000380000
0000700000
0000E00000
0000000000
0000000000
0000000000
E000200038
F000700070
7000700070
7800F800E0
3800F800E0
3C00F801E0
1C01DC01C0
1C01DC01C0
1E038E0380
0E038E0380
0F07070700
0707070700
078F070E00
038E038E00
038E038E00
01DC01DC00
01DC01DC00
01F800F800
00F800F800
00F0007000
0070007000
0070006000
0020002000
ENDCHAR
STARTCHAR 1E84
ENCODING 7812
SWIDTH 945 0
DWIDTH 42 0
BBX 37 41 2 0
BITMAP
000E070000
001F0F8000
001F0F8000
001F0F8000
000E070000
0000000000
0000000000
0000000000
0000000000
E000200038
F000300038
7000700070
7000700070
7000780070
7800F800F0
3800F800E0
3800FC00E0
3801DC00E0
1C01DE01C0
1C039E01C0
1C038E01C0
1C038F01C0
0E070F0380
0E07070380
0E07078380
0F0E038780
070E03C700
071C03C700
071C01C700
079C01EE00
03B801EE00
03B800EE00
03B800FE00
01F0007C00
01F0007C00
01F0007C00
01E0003C00
00E0003800
00E0003800
00C0001800
00C0001800
ENDCHAR
STARTCHAR 1E85
ENCODING 7813
SWIDTH 855 0
DWIDTH 38 0
BBX 37 31 0 0
BITMAP
0007038000
000F87C000
000F87C000
000F87C000
0007038000
0000000000
0000000000
0000000000
E000200038
F000700070
7000700070
7800F800E0
3800F800E0
3C00F801E0
1C01DC01C0
1C01DC01C0
1E038E0380
0E038E0380
0F07070700
0707070700
078F070E00
038E038E00
038E038E00
01DC01DC00
01DC01DC00
01F800F800
00F800F800
00F0007000
0070007000
0070006000
0020002000
ENDCHAR
STARTCHAR 1EF2
ENCODING 7922
SWIDTH 562 0
DWIDTH 25 0
BBX 23 43 1 0
BITMAP
07C000
03C000
01E000
00F000
007000
003800
001C00
000000
000000
000000
000000
F0000E
70001C
78003C
380038
3C0070
1E00F0
0E00E0
0F01C0
0781C0
038380
03C780
01C700
01EE00
00FE00
007C00
007C00
003800
003800
003800
003800
003800
003800
003800
003800
003800
003800
003800
003800
003800
003800
003800
003800
ENDCHAR
STARTCHAR 1EF3
ENCODING 7923
SWIDTH 517 0
DWIDTH 23 0
BBX 22 42 0 -9
BITMAP
07C000
03C000
01E000
00F000
007000
003800
001C00
000000
000000
000000
E0001C
F00038
700038
780070
380070
3C00F0
1C00E0
1E01E0
1E01C0
0E01C0
0F0380
070380
078780
038700
03CF00
01CE00
01EE00
00FC00
00FC00
00F800
007800
007800
007000
007000
00E000
00E000
01C000
01C000
03C000
038000
078000
070000
ENDCHAR
STARTCHAR 2013
ENCODING 8211
SWIDTH 495 0
DWIDTH 22 0
BBX 23 3 -1 11
BITMAP
FFFFFE
FFFFFE
FFFFFE
ENDCHAR
STARTCHAR 2014
ENCODING 8212
SWIDTH 990 0
DWIDTH 44 0
BBX 45 3 -1 11
BITMAP
FFFFFFFFFFF8
FFFFFFFFFFF8
FFFFFFFFFFF8
ENDCHAR
STARTCHAR 2015
ENCODING 8213
SWIDTH 742 0
DWIDTH 33 0
BBX 34 3 -1 11
BITMAP
FFFFFFFFC0
FFFFFFFFC0
FFFFFFFFC0
ENDCHAR
STARTCHAR 2017
ENCODING 8215
SWIDTH 495 0
DWIDTH 22 0
BBX 24 6 -1 -9
BITMAP
FFFFFF
FFFFFF
000000
000000
FFFFFF
FFFFFF
ENDCHAR
STARTCHAR 2018
ENCODING 8216
SWIDTH 337 0
DWIDTH 15 0
BBX 3 12 6 21
BITMAP
40
60
40
C0
C0
C0
E0
E0
E0
E0
E0
E0
ENDCHAR
STARTCHAR 2019
ENCODING 8217
SWIDTH 337 0
DWIDTH 15 0
BBX 3 12 5 21
BITMAP
E0
E0
E0
E0
E0
E0
60
60
60
40
C0
40
ENDCHAR
STARTCHAR 201A
ENCODING 8218
SWIDTH 360 0
DWIDTH 16 0
BBX 3 12 5 -6
BITMAP
E0
E0
E0
E0
E0
E0
60
60
60
40
C0
40
ENDCHAR
STARTCHAR 201B
ENCODING 8219
SWIDTH 337 0
DWIDTH 15 0
BBX 3 12 5 21
BITMAP
E0
E0
E0
E0
E0
E0
C0
C0
C0
40
60
40
ENDCHAR
STARTCHAR 201C
ENCODING 8220
SWIDTH 495 0
DWIDTH 22 0
BBX 12 12 5 21
BITMAP
4020
6030
4020
C060
C060
C060
E070
E070
E070
E070
E070
E070
ENDCHAR
STARTCHAR 201D
ENCODING 8221
SWIDTH 472 0
DWIDTH 21 0
BBX 12 12 4 21
BITMAP
E070
E070
E070
E070
E070
E070
6030
6030
6030
4020
C060
4020
ENDCHAR
STARTCHAR 201E
ENCODING 8222
SWIDTH 495 0
DWIDTH 22 0
BBX 12 12 4 -6
BITMAP
E070
E070
E070
E070
E070
E070
6030
6030
6030
4020
C060
4020
ENDCHAR
STARTCHAR 2020
ENCODING 8224
SWIDTH 540 0
DWIDTH 24 0
BBX 17 40 3 -7
BITMAP
01C000
01C000
01C000
01C000
01C000
01C000
01C000
01C000
01C000
F1C780
FFFF80
F1C780
01C000
01C000
01C000
01C000
01C000
01C000
01C000
01C000
01C000
01C000
01C000
01C000
01C000
01C000
01C000
01C000
01C000
01C000
01C000
01C000
01C000
01C000
01C000
01C000
01C000
01C000
01C000
01C000
ENDCHAR
STARTCHAR 2021
ENCODING 8225
SWIDTH 540 0
DWIDTH 24 0
BBX 17 40 3 -7
BITMAP
01C000
01C000
01C000
01C000
01C000
01C000
01C000
F1C780
FFFF80
F1C780
01C000
01C000
01C000
01C000
01C000
01C000
01C000
01C000
01C000
01C000
01C000
01C000
01C000
01C000
01C000
01C000
01C000
01C000
01C000
01C000
F1C780
FFFF80
F1C780
01C000
01C000
01C000
01C000
01C000
01C000
01C000
ENDCHAR
STARTCHAR 2022
ENCODING 8226
SWIDTH 585 0
DWIDTH 26 0
BBX 13 13 6 10
BITMAP
0F80
3FE0
7FF0
7FF0
FFF8
FFF8
FFF8
FFF8
FFF8
7FF0
7FF0
3FE0
0F80
ENDCHAR
STARTCHAR 2026
ENCODING 8230
SWIDTH 967 0
DWIDTH 43 0
BBX 33 5 5 0
BITMAP
7001C00700
F803E00F80
F803E00F80
F803E00F80
7001C00700
ENDCHAR
STARTCHAR 2030
ENCODING 8240
SWIDTH 1147 0
DWIDTH 51 0
BBX 49 36 1 -2
BITMAP
000000F0000000
07C007E0000000
1FFFFFC0000000
3FFFFFC0000000
787FFB80000000
701C0380000000
E00E0700000000
E00E0E00000000
E00E0E00000000
E00E1C00000000
E00E1C00000000
701C3800000000
783C7000000000
3FF87000000000
1FF0E000000000
07C0E000000000
0001C000000000
00038000000000
00038000000000
00070000000000
000E03E001F000
000E0FF807FC00
001C1FFC0FFE00
001C3C1E1E0F00
0038380E1C0700
00707007380380
00707007380380
00E07007380380
00E07007380380
01C07007380380
0380380E1C0700
03803C1E1E0F00
07001FFC0FFE00
07000FF807FC00
0E0003E001F000
1C000000000000
ENDCHAR
STARTCHAR 2032
ENCODING 8242
SWIDTH 202 0
DWIDTH 9 0
BBX 4 10 3 23
BITMAP
70
70
70
60
60
E0
E0
E0
C0
C0
ENDCHAR
STARTCHAR 2033
ENCODING 8243
SWIDTH 315 0
DWIDTH 14 0
BBX 12 10 1 23
BITMAP
7070
7070
7070
6060
6060
E0E0
E0E0
E0E0
E0E0
C0C0
ENDCHAR
STARTCHAR 2039
ENCODING 8249
SWIDTH 247 0
DWIDTH 11 0
BBX 8 23 2 0
BITMAP
07
0E
0E
1E
1C
1C
38
38
70
70
E0
E0
F0
70
78
38
38
3C
1C
1E
0E
0F
07
ENDCHAR
STARTCHAR 203A
ENCODING 8250
SWIDTH 247 0
DWIDTH 11 0
BBX 8 23 2 0
BITMAP
E0
F0
70
78
38
3C
1C
1C
1E
0E
0F
07
07
0E
0E
1C
1C
38
38
78
70
70
E0
ENDCHAR
STARTCHAR 203C
ENCODING 8252
SWIDTH 517 0
DWIDTH 23 0
BBX 15 33 4 0
BITMAP
701C
701C
701C
701C
701C
701C
701C
701C
701C
701C
701C
701C
701C
701C
701C
701C
701C
701C
701C
701C
701C
701C
701C
701C
701C
0000
0000
0000
701C
F83E
F83E
F83E
701C
ENDCHAR
STARTCHAR 203E
ENCODING 8254
SWIDTH 540 0
DWIDTH 24 0
BBX 26 2 -1 23
BITMAP
FFFFFFC0
FFFFFFC0
ENDCHAR
STARTCHAR 2044
ENCODING 8260
SWIDTH 157 0
DWIDTH 7 0
BBX 23 33 -8 0
BITMAP
00000E
00000C
000018
000038
000030
000070
0000E0
0000C0
0001C0
000180
000380
000700
000600
000E00
001C00
001800
003800
003000
007000
00E000
00C000
01C000
038000
030000
070000
060000
0E0000
1C0000
180000
380000
300000
600000
E00000
ENDCHAR
STARTCHAR 207F
ENCODING 8319
SWIDTH 360 0
DWIDTH 16 0
BBX 12 15 2 12
BITMAP
E780
EFE0
FFE0
F8F0
F070
E070
E070
E070
E070
E070
E070
E070
E070
E070
E070
ENDCHAR
STARTCHAR 20A3
ENCODING 8355
SWIDTH 472 0
DWIDTH 21 0
BBX 19 32 0 0
BITMAP
0FFFE0
0FFFE0
0FFFE0
0E0000
0E0000
0E0000
0E0000
0E0000
0E0000
0E0000
0E0000
0E0000
0E0000
0FFFE0
0FFFE0
0FFFE0
0E0000
0E0000
0E0000
0E0000
0E0000
0E0000
0E0000
FFF800
FFF800
FFF800
0E0000
0E0000
0E0000
0E0000
0E0000
0E0000
ENDCHAR
STARTCHAR 20A4
ENCODING 8356
SWIDTH 540 0
DWIDTH 24 0
BBX 22 34 1 -1
BITMAP
003E00
00FF80
01FFC0
03C1E0
0380E0
070070
070070
070070
070000
070000
070000
070000
7FFF80
7FFF80
7FFF80
038000
038000
7FFF80
7FFF80
7FFF80
01C000
01C000
01C000
01C000
01C000
3DC000
7FC01C
7FC01C
E3E01C
E3F03C
E7FC38
FF3FF8
7E1FF0
3C03E0
ENDCHAR
STARTCHAR 20A7
ENCODING 8359
SWIDTH 1080 0
DWIDTH 48 0
BBX 42 33 4 0
BITMAP
000007000000
FFF807000000
FFFE07000000
FFFF07000000
E00787000000
E003C7000000
E001C7000000
E000E7000000
E000E7000000
E000E7000000
E000FFFFFC00
E000FFFFFE00
E001FFFFFF80
E003E703C7C0
E007C70701C0
FFFF87070080
FFFF07070000
FFF807078000
E0000703C000
E0000703F000
E0000700F800
E00007007E00
E00007001F00
E00007000F80
E000070003C0
E000070001C0
E000070001C0
E000070401C0
E000070603C0
E000070F8780
E0000707FF80
E0000703FF00
E0000700FC00
ENDCHAR
STARTCHAR 20AC
ENCODING 8364
SWIDTH 540 0
DWIDTH 24 0
BBX 22 34 1 -1
BITMAP
0001FC
000FFC
003FF8
007F00
00F800
01E000
03C000
078000
078000
0F0000
0E0000
0E0000
7FFFF0
FFFFF0
FFFFE0
1C0000
1C0000
1C0000
1C0000
7FFFC0
FFFFC0
FFFF80
0E0000
0E0000
0F0000
070000
078000
03C000
01E000
00F800
007F00
003FFC
000FFC
0001FC
ENDCHAR
STARTCHAR 2105
ENCODING 8453
SWIDTH 855 0
DWIDTH 38 0
BBX 36 33 1 0
BITMAP
07C0003800
1FF0007000
3FF800E000
7C3C00E000
700801C000
E00001C000
E000038000
E000038000
E000070000
E0000E0000
70080E0000
7C3C1C0000
3FF81C0000
1FF0380000
07C0380000
0000700000
0000F00000
0000E00000
0001C03F00
0001C07F80
000380FFC0
000381E1E0
000701C0E0
000F038070
000E038070
001C038070
001C038070
0038038070
003801C0E0
007001E1E0
007000FFC0
00E0007F80
01C0003F00
ENDCHAR
STARTCHAR 2113
ENCODING 8467
SWIDTH 360 0
DWIDTH 16 0
BBX 13 33 1 0
BITMAP
01E0
07F0
07F0
0F78
0E38
0E38
0E38
0E38
0E70
0E70
0E70
0EE0
0EE0
0FC0
0F80
0F80
0F00
0E00
0E00
1E00
3E00
7E00
7E00
EE00
6E00
0E00
0E00
0E00
0E10
0E70
0FF0
07F0
03C0
ENDCHAR
STARTCHAR 2116
ENCODING 8470
SWIDTH 1080 0
DWIDTH 48 0
BBX 43 32 4 0
BITMAP
800007000000
C00007000000
E00007000000
F00007000000
F00007000000
F80007000000
FC0007000000
FE0007000000
EF0007000000
E70007000000
E38007007C00
E1C00701FF00
E1E00703FF80
E0F0070783C0
E078070701C0
E038070E00E0
E01C070E00E0
E01E070E00E0
E00F070E00E0
E007870E00E0
E003870701C0
E001C70783C0
E000E703FF80
E000F701FF00
E0007F007C00
E0003F000000
E0001F000000
E0000F000000
E0000F000000
E000070FFFE0
E000030FFFE0
E000010FFFE0
ENDCHAR
STARTCHAR 2122
ENCODING 8482
SWIDTH 990 0
DWIDTH 44 0
BBX 42 19 0 14
BITMAP
FFFF87C007C0
FFFF87C007C0
FFFF87E00FC0
01C007E00FC0
01C007F01DC0
01C007701DC0
01C007783DC0
01C0073839C0
01C0073C39C0
01C0071C71C0
01C0071E71C0
01C0071EE1C0
01C0070EE1C0
01C0070FC1C0
01C00707C1C0
01C00707C1C0
01C0070381C0
01C0070381C0
01C0070101C0
ENDCHAR
STARTCHAR 2126
ENCODING 8486
SWIDTH 765 0
DWIDTH 34 0
BBX 29 33 3 0
BITMAP
003FE000
00FFF800
03FFFE00
07FFFF00
0FE03F80
1F800FC0
3F0007E0
3E0003E0
7C0001F0
780000F0
780000F0
F80000F8
F0000078
F0000078
F0000078
F0000078
F0000078
F0000078
F0000078
F0000078
780000F0
780000F0
780001E0
3C0001E0
1E0003C0
1E0003C0
0F000780
07C01F00
01E03C00
FFF07FF8
FFF07FF8
FFF07FF8
FFF07FF8
ENDCHAR
STARTCHAR 212E
ENCODING 8494
SWIDTH 585 0
DWIDTH 26 0
BBX 22 25 2 -1
BITMAP
00FC00
07FF80
0F03C0
1C00E0
380070
380070
780078
780078
F8007C
F8007C
FFFFFC
FFFFFC
F80000
F80000
F80000
F80000
F80000
780000
780018
380038
380030
1C00E0
0F03C0
03FF80
00FE00
ENDCHAR
STARTCHAR 215B
ENCODING 8539
SWIDTH 832 0
DWIDTH 37 0
BBX 34 33 2 0
BITMAP
000000E000
3E0000C000
7E0001C000
FE00018000
0E00030000
0E00070000
0E00060000
0E000C0000
0E001C0000
0E00180000
0E00380000
0E00700000
0E00600000
0E00E00000
0E00C00000
0E01800000
0E03800000
0003007C00
000601FF00
000E03FF80
000C038380
001C038380
003801FF00
0030007C00
007001FF00
006003C380
00C00701C0
01C00701C0
01800701C0
03000783C0
070003FF80
060001FF00
0E0000FC00
ENDCHAR
STARTCHAR 215C
ENCODING 8540
SWIDTH 832 0
DWIDTH 37 0
BBX 35 33 1 0
BITMAP
0000003800
1F80007000
3FC0007000
7FE000E000
F0F001E000
E07001C000
0070038000
00F0038000
07E0070000
07C00E0000
07F00E0000
00781C0000
E0381C0000
F078380000
7FF0700000
3FE0700000
1FC0E00000
0001E03E00
0001C0FF80
000381FFC0
000381C1C0
000701C1C0
000E00FF80
000E003E00
001C00FF80
001C01E1C0
00380380E0
00700380E0
00700380E0
00E003C1E0
00E001FFC0
01C000FF80
0380007E00
ENDCHAR
STARTCHAR 215D
ENCODING 8541
SWIDTH 832 0
DWIDTH 37 0
BBX 35 33 1 0
BITMAP
0000007000
0FF0006000
0FF000E000
0FF000C000
1C0001C000
1C00038000
1C00030000
1F80070000
1FE0060000
3FE00E0000
20F01C0000
0070180000
0070380000
E0F0300000
FFE0600000
7FC0E00000
1F00C00000
0001C03E00
000180FF80
000301FFC0
000701C1C0
000601C1C0
000E00FF80
001C003E00
001800FF80
003801E1C0
00300380E0
00700380E0
00E00380E0
00C003C1E0
01C001FFC0
018000FF80
0380007E00
ENDCHAR
STARTCHAR 215E
ENCODING 8542
SWIDTH 832 0
DWIDTH 37 0
BBX 34 33 2 0
BITMAP
000001C000
FFF0018000
FFE0038000
FFE0030000
01C0070000
03800E0000
03800C0000
07001C0000
0700180000
0E00380000
1C00700000
1C00600000
3800E00000
7000C00000
7001800000
E003800000
C003000000
0007007C00
000601FF00
000C03FF80
001C038380
0018038380
003801FF00
0070007C00
006001FF00
00E003C380
00C00701C0
01C00701C0
03800701C0
03000783C0
070003FF80
060001FF00
0E0000FC00
ENDCHAR
STARTCHAR 2190
ENCODING 8592
SWIDTH 990 0
DWIDTH 44 0
BBX 41 16 2 3
BITMAP
006000000000
00C000000000
01C000000000
038000000000
078000000000
1F0000000000
3E0000000000
FFFFFFFFFF80
FFFFFFFFFF80
3E0000000000
1F0000000000
078000000000
038000000000
01C000000000
00C000000000
006000000000
ENDCHAR
STARTCHAR 2191
ENCODING 8593
SWIDTH 495 0
DWIDTH 22 0
BBX 16 41 3 -10
BITMAP
0180
0180
03C0
07C0
07E0
0FF0
1FF8
3DBC
799E
E187
8181
0180
0180
0180
0180
0180
0180
0180
0180
0180
0180
0180
0180
0180
0180
0180
0180
0180
0180
0180
0180
0180
0180
0180
0180
0180
0180
0180
0180
0180
0180
ENDCHAR
STARTCHAR 2192
ENCODING 8594
SWIDTH 990 0
DWIDTH 44 0
BBX 41 16 2 3
BITMAP
000000030000
000000018000
00000001C000
00000000E000
00000000F000
000000007C00
000000003E00
FFFFFFFFFF80
FFFFFFFFFF80
000000003E00
000000007C00
00000000F000
00000000E000
00000001C000
000000018000
000000030000
ENDCHAR
STARTCHAR 2193
ENCODING 8595
SWIDTH 495 0
DWIDTH 22 0
BBX 16 41 3 -10
BITMAP
0180
0180
0180
0180
0180
0180
0180
0180
0180
0180
0180
0180
0180
0180
0180
0180
0180
0180
0180
0180
0180
0180
0180
0180
0180
0180
0180
0180
0180
0180
8181
E187
799E
3DBC
1FF8
0FF0
07E0
07E0
03C0
0180
0180
ENDCHAR
STARTCHAR 2194
ENCODING 8596
SWIDTH 990 0
DWIDTH 44 0
BBX 41 16 2 3
BITMAP
006000030000
00C000018000
01C00001C000
03800000E000
07800000F000
1F0000007800
3E0000003E00
FFFFFFFFFF80
FFFFFFFFFF80
3E0000003E00
1F0000007C00
07800000F000
03800000E000
01C00001C000
00C000018000
006000030000
ENDCHAR
STARTCHAR 2195
ENCODING 8597
SWIDTH 495 0
DWIDTH 22 0
BBX 16 41 3 -10
BITMAP
0180
0180
03C0
07E0
07E0
0FF0
1FF8
3DBC
799E
E187
8181
0180
0180
0180
0180
0180
0180
0180
0180
0180
0180
0180
0180
0180
0180
0180
0180
0180
0180
0180
8181
E187
799E
3DBC
1FF8
0FF0
07E0
07E0
03C0
0180
0180
ENDCHAR
STARTCHAR 21A8
ENCODING 8616
SWIDTH 495 0
DWIDTH 22 0
BBX 16 45 3 -14
BITMAP
0180
0180
03C0
07E0
07E0
0FF0
1FF8
3DBC
799E
E187
8181
0180
0180
0180
0180
0180
0180
0180
0180
0180
0180
0180
0180
0180
0180
0180
0180
0180
0180
0180
8181
E187
799E
3DBC
1FF8
0FF0
07E0
07E0
03C0
0180
0180
0000
0000
FFFF
FFFF
ENDCHAR
STARTCHAR 2202
ENCODING 8706
SWIDTH 495 0
DWIDTH 22 0
BBX 20 33 1 0
BITMAP
001E00
007F80
00FFC0
01E3C0
03C1E0
0380E0
0780E0
010070
000070
000070
000070
000070
000FF0
00FFF0
03FFF0
07F070
1F8070
1E0070
3C00E0
7800E0
7800E0
7000E0
F001C0
E001C0
E003C0
E00380
E00780
E00F00
F01E00
787C00
7FF800
3FF000
0FC000
ENDCHAR
STARTCHAR 2206
ENCODING 8710
SWIDTH 607 0
DWIDTH 27 0
BBX 26 29 0 1
BITMAP
00040000
00060000
000E0000
000E0000
001F0000
001F0000
003F8000
00378000
0027C000
0067C000
0043C000
00C3E000
0081E000
0181F000
0100F000
0300F800
0300F800
06007800
06007C00
0C003C00
0C003E00
18001E00
18001F00
10001F00
30000F80
20000F80
60000780
7FFFFFC0
FFFFFFC0
ENDCHAR
STARTCHAR 220F
ENCODING 8719
SWIDTH 810 0
DWIDTH 36 0
BBX 29 42 3 -9
BITMAP
FFFFFFF8
FFFFFFF8
FFFFFFF8
FFFFFFF8
F0000078
F0000078
F0000078
F0000078
F0000078
F0000078
F0000078
F0000078
F0000078
F0000078
F0000078
F0000078
F0000078
F0000078
F0000078
F0000078
F0000078
F0000078
F0000078
F0000078
F0000078
F0000078
F0000078
F0000078
F0000078
F0000078
F0000078
F0000078
F0000078
F0000078
F0000078
F0000078
F0000078
F0000078
F0000078
F0000078
F0000078
F0000078
ENDCHAR
STARTCHAR 2211
ENCODING 8721
SWIDTH 697 0
DWIDTH 31 0
BBX 26 42 3 -9
BITMAP
FFFFFFC0
FFFFFFC0
FFFFFFC0
FFFFFFC0
F8000000
7C000000
3E000000
1F000000
0F800000
07800000
07C00000
03E00000
01F00000
00F80000
007C0000
003E0000
001F0000
001F0000
000F8000
0007C000
0003E000
0007C000
00078000
000F0000
001F0000
003E0000
007C0000
00F80000
01F00000
01E00000
03C00000
07C00000
0F800000
1F000000
3E000000
3C000000
78000000
F8000000
FFFFFFC0
FFFFFFC0
FFFFFFC0
FFFFFFC0
ENDCHAR
STARTCHAR 2212
ENCODING 8722
SWIDTH 607 0
DWIDTH 27 0
BBX 22 3 2 14
BITMAP
FFFFFC
FFFFFC
FFFFFC
ENDCHAR
STARTCHAR 2215
ENCODING 8725
SWIDTH 157 0
DWIDTH 7 0
BBX 23 33 -8 0
BITMAP
00000E
00000C
000018
000038
000030
000070
0000E0
0000C0
0001C0
000180
000380
000700
000600
000E00
001C00
001800
003800
003000
007000
00E000
00C000
01C000
038000
030000
070000
060000
0E0000
1C0000
180000
380000
300000
600000
E00000
ENDCHAR
STARTCHAR 2219
ENCODING 8729
SWIDTH 270 0
DWIDTH 12 0
BBX 5 5 3 13
BITMAP
70
F8
F8
F8
70
ENDCHAR
STARTCHAR 221A
ENCODING 8730
SWIDTH 540 0
DWIDTH 24 0
BBX 23 41 1 -2
BITMAP
000006
000006
000006
00000C
00000C
00000C
00000C
00000C
00000C
00001C
000018
000018
000018
000018
000018
000018
000030
030030
0F0030
3F8030
F38030
43C030
01C060
01E060
00E060
00F060
007060
007860
0038E0
003CC0
001CC0
001EC0
000EC0
000FC0
0007C0
000780
000380
000380
000180
000180
000080
ENDCHAR
STARTCHAR 221E
ENCODING 8734
SWIDTH 697 0
DWIDTH 31 0
BBX 24 15 3 7
BITMAP
0000F0
1E01FC
3F83FE
7FC71E
71EE0F
E0FC07
E07C07
E03807
E07C07
E0FC07
71EE0F
7FC71E
3F83FE
1E01FC
0000F0
ENDCHAR
STARTCHAR 221F
ENCODING 8735
SWIDTH 967 0
DWIDTH 43 0
BBX 27 27 8 0
BITMAP
C0000000
C0000000
C0000000
C0000000
C0000000
C0000000
C0000000
C0000000
C0000000
C0000000
C0000000
C0000000
C0000000
C0000000
C0000000
C0000000
C0000000
C0000000
C0000000
C0000000
C0000000
C0000000
C0000000
C0000000
C0000000
FFFFFFE0
FFFFFFE0
ENDCHAR
STARTCHAR 2229
ENCODING 8745
SWIDTH 585 0
DWIDTH 26 0
BBX 20 33 3 0
BITMAP
01F800
07FE00
0FFF00
1F0F80
3C03C0
3801C0
7000E0
600060
600060
E00070
C00030
C00030
C00030
C00030
C00030
C00030
C00030
C00030
C00030
C00030
C00030
C00030
C00030
C00030
C00030
C00030
C00030
C00030
C00030
C00030
C00030
C00030
C00030
ENDCHAR
STARTCHAR 222B
ENCODING 8747
SWIDTH 247 0
DWIDTH 11 0
BBX 11 44 0 -4
BITMAP
01C0
03E0
07E0
04C0
0400
0400
0C00
0C00
0C00
0C00
0C00
0E00
0E00
0E00
0E00
0E00
0E00
0E00
0E00
0E00
0E00
0E00
0E00
0E00
0E00
0E00
0E00
0E00
0E00
0E00
0E00
0E00
0E00
0E00
0E00
0600
0600
0400
0400
0400
6400
FC00
F800
7000
ENDCHAR
STARTCHAR 2248
ENCODING 8776
SWIDTH 540 0
DWIDTH 24 0
BBX 22 13 1 10
BITMAP
1F0000
7FE004
FFFC1C
E0FFFC
801FF8
0003E0
000000
1F0000
7FE004
FFFC1C
E0FFFC
801FF8
0003E0
ENDCHAR
STARTCHAR 2260
ENCODING 8800
SWIDTH 540 0
DWIDTH 24 0
BBX 22 33 1 0
BITMAP
0000E0
0001C0
0001C0
0001C0
000380
000380
000700
000700
000700
000E00
FFFFFC
FFFFFC
FFFFFC
001C00
003800
003800
007800
007000
007000
00E000
FFFFFC
FFFFFC
FFFFFC
01C000
038000
038000
038000
070000
070000
0E0000
0E0000
0E0000
1C0000
ENDCHAR
STARTCHAR 2261
ENCODING 8801
SWIDTH 607 0
DWIDTH 27 0
BBX 22 23 2 4
BITMAP
FFFFFC
FFFFFC
FFFFFC
000000
000000
000000
000000
000000
000000
000000
FFFFFC
FFFFFC
FFFFFC
000000
000000
000000
000000
000000
000000
000000
FFFFFC
FFFFFC
FFFFFC
ENDCHAR
STARTCHAR 2264
ENCODING 8804
SWIDTH 540 0
DWIDTH 24 0
BBX 22 28 1 2
BITMAP
000004
00001C
00007C
0003F8
000FE0
003F80
00FE00
03F800
0FE000
3F0000
FC0000
F00000
FC0000
3F0000
0FE000
03F800
00FE00
003F80
000FE0
0003F8
00007C
00001C
000004
000000
000000
FFFFFC
FFFFFC
FFFFFC
ENDCHAR
STARTCHAR 2265
ENCODING 8805
SWIDTH 540 0
DWIDTH 24 0
BBX 22 28 1 2
BITMAP
800000
E00000
F80000
FF0000
1FC000
07F000
01FC00
007F00
001FC0
0007F8
0000FC
00003C
0000FC
0003F0
001FC0
007F00
01FC00
07F000
1FC000
7E0000
F80000
E00000
800000
000000
000000
FFFFFC
FFFFFC
FFFFFC
ENDCHAR
STARTCHAR 2302
ENCODING 8962
SWIDTH 585 0
DWIDTH 26 0
BBX 20 24 3 1
BITMAP
006000
00F000
01D800
038C00
030E00
060700
0C0380
1801C0
3000C0
600060
C00030
C00030
C00030
C00030
C00030
C00030
C00030
C00030
C00030
C00030
C00030
C00030
FFFFF0
FFFFF0
ENDCHAR
STARTCHAR 2310
ENCODING 8976
SWIDTH 607 0
DWIDTH 27 0
BBX 22 12 2 10
BITMAP
FFFFFC
FFFFFC
FFFFFC
E00000
E00000
E00000
E00000
E00000
E00000
E00000
E00000
E00000
ENDCHAR
STARTCHAR 2320
ENCODING 8992
SWIDTH 585 0
DWIDTH 26 0
BBX 9 48 12 -11
BITMAP
1F00
3F80
6780
6300
E000
E000
E000
E000
E000
E000
E000
E000
E000
E000
E000
E000
E000
E000
E000
E000
E000
E000
E000
E000
E000
E000
E000
E000
E000
E000
E000
E000
E000
E000
E000
E000
E000
E000
E000
E000
E000
E000
E000
E000
E000
E000
E000
E000
ENDCHAR
STARTCHAR 2321
ENCODING 8993
SWIDTH 585 0
DWIDTH 26 0
BBX 9 48 6 -11
BITMAP
0380
0380
0380
0380
0380
0380
0380
0380
0380
0380
0380
0380
0380
0380
0380
0380
0380
0380
0380
0380
0380
0380
0380
0380
0380
0380
0380
0380
0380
0380
0380
0380
0380
0380
0380
0380
0380
0380
0380
0380
0380
0380
0300
0300
E300
F600
FC00
F800
ENDCHAR
STARTCHAR 2500
ENCODING 9472
SWIDTH 697 0
DWIDTH 31 0
BBX 32 4 0 11
BITMAP
FFFFFFFF
FFFFFFFF
FFFFFFFF
FFFFFFFF
ENDCHAR
STARTCHAR 2502
ENCODING 9474
SWIDTH 697 0
DWIDTH 31 0
BBX 4 53 14 -13
BITMAP
F0
F0
F0
F0
F0
F0
F0
F0
F0
F0
F0
F0
F0
F0
F0
F0
F0
F0
F0
F0
F0
F0
F0
F0
F0
F0
F0
F0
F0
F0
F0
F0
F0
F0
F0
F0
F0
F0
F0
F0
F0
F0
F0
F0
F0
F0
F0
F0
F0
F0
F0
F0
F0
ENDCHAR
STARTCHAR 250C
ENCODING 9484
SWIDTH 697 0
DWIDTH 31 0
BBX 18 28 14 -13
BITMAP
FFFFC0
FFFFC0
FFFFC0
FFFFC0
F00000
F00000
F00000
F00000
F00000
F00000
F00000
F00000
F00000
F00000
F00000
F00000
F00000
F00000
F00000
F00000
F00000
F00000
F00000
F00000
F00000
F00000
F00000
F00000
ENDCHAR
STARTCHAR 2510
ENCODING 9488
SWIDTH 697 0
DWIDTH 31 0
BBX 18 28 0 -13
BITMAP
FFFFC0
FFFFC0
FFFFC0
FFFFC0
0003C0
0003C0
0003C0
0003C0
0003C0
0003C0
0003C0
0003C0
0003C0
0003C0
0003C0
0003C0
0003C0
0003C0
0003C0
0003C0
0003C0
0003C0
0003C0
0003C0
0003C0
0003C0
0003C0
0003C0
ENDCHAR
STARTCHAR 2514
ENCODING 9492
SWIDTH 697 0
DWIDTH 31 0
BBX 18 29 14 11
BITMAP
F00000
F00000
F00000
F00000
F00000
F00000
F00000
F00000
F00000
F00000
F00000
F00000
F00000
F00000
F00000
F00000
F00000
F00000
F00000
F00000
F00000
F00000
F00000
F00000
F00000
FFFFC0
FFFFC0
FFFFC0
FFFFC0
ENDCHAR
STARTCHAR 2518
ENCODING 9496
SWIDTH 697 0
DWIDTH 31 0
BBX 18 29 0 11
BITMAP
0003C0
0003C0
0003C0
0003C0
0003C0
0003C0
0003C0
0003C0
0003C0
0003C0
0003C0
0003C0
0003C0
0003C0
0003C0
0003C0
0003C0
0003C0
0003C0
0003C0
0003C0
0003C0
0003C0
0003C0
0003C0
FFFFC0
FFFFC0
FFFFC0
FFFFC0
ENDCHAR
STARTCHAR 251C
ENCODING 9500
SWIDTH 697 0
DWIDTH 31 0
BBX 18 53 14 -13
BITMAP
F00000
F00000
F00000
F00000
F00000
F00000
F00000
F00000
F00000
F00000
F00000
F00000
F00000
F00000
F00000
F00000
F00000
F00000
F00000
F00000
F00000
F00000
F00000
F00000
F00000
FFFFC0
FFFFC0
FFFFC0
FFFFC0
F00000
F00000
F00000
F00000
F00000
F00000
F00000
F00000
F00000
F00000
F00000
F00000
F00000
F00000
F00000
F00000
F00000
F00000
F00000
F00000
F00000
F00000
F00000
F00000
ENDCHAR
STARTCHAR 2524
ENCODING 9508
SWIDTH 697 0
DWIDTH 31 0
BBX 18 53 0 -13
BITMAP
0003C0
0003C0
0003C0
0003C0
0003C0
0003C0
0003C0
0003C0
0003C0
0003C0
0003C0
0003C0
0003C0
0003C0
0003C0
0003C0
0003C0
0003C0
0003C0
0003C0
0003C0
0003C0
0003C0
0003C0
0003C0
FFFFC0
FFFFC0
FFFFC0
FFFFC0
0003C0
0003C0
0003C0
0003C0
0003C0
0003C0
0003C0
0003C0
0003C0
0003C0
0003C0
0003C0
0003C0
0003C0
0003C0
0003C0
0003C0
0003C0
0003C0
0003C0
0003C0
0003C0
0003C0
0003C0
ENDCHAR
STARTCHAR 252C
ENCODING 9516
SWIDTH 697 0
DWIDTH 31 0
BBX 32 28 0 -13
BITMAP
FFFFFFFF
FFFFFFFF
FFFFFFFF
FFFFFFFF
0003C000
0003C000
0003C000
0003C000
0003C000
0003C000
0003C000
0003C000
0003C000
0003C000
0003C000
0003C000
0003C000
0003C000
0003C000
0003C000
0003C000
0003C000
0003C000
0003C000
0003C000
0003C000
0003C000
0003C000
ENDCHAR
STARTCHAR 2534
ENCODING 9524
SWIDTH 697 0
DWIDTH 31 0
BBX 32 29 0 11
BITMAP
0003C000
0003C000
0003C000
0003C000
0003C000
0003C000
0003C000
0003C000
0003C000
0003C000
0003C000
0003C000
0003C000
0003C000
0003C000
0003C000
0003C000
0003C000
0003C000
0003C000
0003C000
0003C000
0003C000
0003C000
0003C000
FFFFFFFF
FFFFFFFF
FFFFFFFF
FFFFFFFF
ENDCHAR
STARTCHAR 253C
ENCODING 9532
SWIDTH 697 0
DWIDTH 31 0
BBX 32 53 0 -13
BITMAP
0003C000
0003C000
0003C000
0003C000
0003C000
0003C000
0003C000
0003C000
0003C000
0003C000
0003C000
0003C000
0003C000
0003C000
0003C000
0003C000
0003C000
0003C000
0003C000
0003C000
0003C000
0003C000
0003C000
0003C000
0003C000
FFFFFFFF
FFFFFFFF
FFFFFFFF
FFFFFFFF
0003C000
0003C000
0003C000
0003C000
0003C000
0003C000
0003C000
0003C000
0003C000
0003C000
0003C000
0003C000
0003C000
0003C000
0003C000
0003C000
0003C000
0003C000
0003C000
0003C000
0003C000
0003C000
0003C000
0003C000
ENDCHAR
STARTCHAR 2550
ENCODING 9552
SWIDTH 697 0
DWIDTH 31 0
BBX 32 12 0 7
BITMAP
FFFFFFFF
FFFFFFFF
FFFFFFFF
00000000
00000000
00000000
00000000
00000000
FFFFFFFF
FFFFFFFF
FFFFFFFF
FFFFFFFF
ENDCHAR
STARTCHAR 2551
ENCODING 9553
SWIDTH 697 0
DWIDTH 31 0
BBX 12 53 10 -13
BITMAP
F0F0
F0F0
F0F0
F0F0
F0F0
F0F0
F0F0
F0F0
F0F0
F0F0
F0F0
F0F0
F0F0
F0F0
F0F0
F0F0
F0F0
F0F0
F0F0
F0F0
F0F0
F0F0
F0F0
F0F0
F0F0
F0F0
F0F0
F0F0
F0F0
F0F0
F0F0
F0F0
F0F0
F0F0
F0F0
F0F0
F0F0
F0F0
F0F0
F0F0
F0F0
F0F0
F0F0
F0F0
F0F0
F0F0
F0F0
F0F0
F0F0
F0F0
F0F0
F0F0
F0F0
ENDCHAR
STARTCHAR 2552
ENCODING 9554
SWIDTH 697 0
DWIDTH 31 0
BBX 18 32 14 -13
BITMAP
FFFFC0
FFFFC0
FFFFC0
F00000
F00000
F00000
F00000
F00000
FFFFC0
FFFFC0
FFFFC0
FFFFC0
F00000
F00000
F00000
F00000
F00000
F00000
F00000
F00000
F00000
F00000
F00000
F00000
F00000
F00000
F00000
F00000
F00000
F00000
F00000
F00000
ENDCHAR
STARTCHAR 2553
ENCODING 9555
SWIDTH 697 0
DWIDTH 31 0
BBX 22 28 10 -13
BITMAP
FFFFFC
FFFFFC
FFFFFC
FFFFFC
F0F000
F0F000
F0F000
F0F000
F0F000
F0F000
F0F000
F0F000
F0F000
F0F000
F0F000
F0F000
F0F000
F0F000
F0F000
F0F000
F0F000
F0F000
F0F000
F0F000
F0F000
F0F000
F0F000
F0F000
ENDCHAR
STARTCHAR 2554
ENCODING 9556
SWIDTH 697 0
DWIDTH 31 0
BBX 22 32 10 -13
BITMAP
FFFFFC
FFFFFC
FFFFFC
F00000
F00000
F00000
F00000
F00000
F0FFFC
F0FFFC
F0FFFC
F0FFFC
F0F000
F0F000
F0F000
F0F000
F0F000
F0F000
F0F000
F0F000
F0F000
F0F000
F0F000
F0F000
F0F000
F0F000
F0F000
F0F000
F0F000
F0F000
F0F000
F0F000
ENDCHAR
STARTCHAR 2555
ENCODING 9557
SWIDTH 697 0
DWIDTH 31 0
BBX 18 32 0 -13
BITMAP
FFFFC0
FFFFC0
FFFFC0
0003C0
0003C0
0003C0
0003C0
0003C0
FFFFC0
FFFFC0
FFFFC0
FFFFC0
0003C0
0003C0
0003C0
0003C0
0003C0
0003C0
0003C0
0003C0
0003C0
0003C0
0003C0
0003C0
0003C0
0003C0
0003C0
0003C0
0003C0
0003C0
0003C0
0003C0
ENDCHAR
STARTCHAR 2556
ENCODING 9558
SWIDTH 697 0
DWIDTH 31 0
BBX 22 28 0 -13
BITMAP
FFFFFC
FFFFFC
FFFFFC
FFFFFC
00383C
00383C
00383C
00383C
00383C
00383C
00383C
00383C
00383C
00383C
00383C
00383C
00383C
00383C
00383C
00383C
00383C
00383C
00383C
00383C
00383C
00383C
00383C
00383C
ENDCHAR
STARTCHAR 2557
ENCODING 9559
SWIDTH 697 0
DWIDTH 31 0
BBX 22 32 0 -13
BITMAP
FFFFFC
FFFFFC
FFFFFC
00003C
00003C
00003C
00003C
00003C
FFF83C
FFF83C
FFF83C
FFF83C
00383C
00383C
00383C
00383C
00383C
00383C
00383C
00383C
00383C
00383C
00383C
00383C
00383C
00383C
00383C
00383C
00383C
00383C
00383C
00383C
ENDCHAR
STARTCHAR 2558
ENCODING 9560
SWIDTH 697 0
DWIDTH 31 0
BBX 18 33 14 7
BITMAP
F00000
F00000
F00000
F00000
F00000
F00000
F00000
F00000
F00000
F00000
F00000
F00000
F00000
F00000
F00000
F00000
F00000
F00000
F00000
F00000
F00000
FFFFC0
FFFFC0
FFFFC0
F00000
F00000
F00000
F00000
F00000
FFFFC0
FFFFC0
FFFFC0
FFFFC0
ENDCHAR
STARTCHAR 2559
ENCODING 9561
SWIDTH 697 0
DWIDTH 31 0
BBX 22 29 10 11
BITMAP
F0F000
F0F000
F0F000
F0F000
F0F000
F0F000
F0F000
F0F000
F0F000
F0F000
F0F000
F0F000
F0F000
F0F000
F0F000
F0F000
F0F000
F0F000
F0F000
F0F000
F0F000
F0F000
F0F000
F0F000
F0F000
FFFFFC
FFFFFC
FFFFFC
FFFFFC
ENDCHAR
STARTCHAR 255A
ENCODING 9562
SWIDTH 697 0
DWIDTH 31 0
BBX 22 33 10 7
BITMAP
F0F000
F0F000
F0F000
F0F000
F0F000
F0F000
F0F000
F0F000
F0F000
F0F000
F0F000
F0F000
F0F000
F0F000
F0F000
F0F000
F0F000
F0F000
F0F000
F0F000
F0F000
F0FFFC
F0FFFC
F0FFFC
F00000
F00000
F00000
F00000
F00000
FFFFFC
FFFFFC
FFFFFC
FFFFFC
ENDCHAR
STARTCHAR 255B
ENCODING 9563
SWIDTH 697 0
DWIDTH 31 0
BBX 18 33 0 7
BITMAP
0003C0
0003C0
0003C0
0003C0
0003C0
0003C0
0003C0
0003C0
0003C0
0003C0
0003C0
0003C0
0003C0
0003C0
0003C0
0003C0
0003C0
0003C0
0003C0
0003C0
0003C0
FFFFC0
FFFFC0
FFFFC0
0003C0
0003C0
0003C0
0003C0
0003C0
FFFFC0
FFFFC0
FFFFC0
FFFFC0
ENDCHAR
STARTCHAR 255C
ENCODING 9564
SWIDTH 697 0
DWIDTH 31 0
BBX 22 29 0 11
BITMAP
00383C
00383C
00383C
00383C
00383C
00383C
00383C
00383C
00383C
00383C
00383C
00383C
00383C
00383C
00383C
00383C
00383C
00383C
00383C
00383C
00383C
00383C
00383C
00383C
00383C
FFFFFC
FFFFFC
FFFFFC
FFFFFC
ENDCHAR
STARTCHAR 255D
ENCODING 9565
SWIDTH 697 0
DWIDTH 31 0
BBX 22 33 0 7
BITMAP
00383C
00383C
00383C
00383C
00383C
00383C
00383C
00383C
00383C
00383C
00383C
00383C
00383C
00383C
00383C
00383C
00383C
00383C
00383C
00383C
00383C
FFF83C
FFF83C
FFF83C
00003C
00003C
00003C
00003C
00003C
FFFFFC
FFFFFC
FFFFFC
FFFFFC
ENDCHAR
STARTCHAR 255E
ENCODING 9566
SWIDTH 697 0
DWIDTH 31 0
BBX 18 53 14 -13
BITMAP
F00000
F00000
F00000
F00000
F00000
F00000
F00000
F00000
F00000
F00000
F00000
F00000
F00000
F00000
F00000
F00000
F00000
F00000
F00000
F00000
F00000
FFFFC0
FFFFC0
FFFFC0
F00000
F00000
F00000
F00000
F00000
FFFFC0
FFFFC0
FFFFC0
FFFFC0
F00000
F00000
F00000
F00000
F00000
F00000
F00000
F00000
F00000
F00000
F00000
F00000
F00000
F00000
F00000
F00000
F00000
F00000
F00000
F00000
ENDCHAR
STARTCHAR 255F
ENCODING 9567
SWIDTH 697 0
DWIDTH 31 0
BBX 22 53 10 -13
BITMAP
F0F000
F0F000
F0F000
F0F000
F0F000
F0F000
F0F000
F0F000
F0F000
F0F000
F0F000
F0F000
F0F000
F0F000
F0F000
F0F000
F0F000
F0F000
F0F000
F0F000
F0F000
F0F000
F0F000
F0F000
F0F000
F0FFFC
F0FFFC
F0FFFC
F0FFFC
F0F000
F0F000
F0F000
F0F000
F0F000
F0F000
F0F000
F0F000
F0F000
F0F000
F0F000
F0F000
F0F000
F0F000
F0F000
F0F000
F0F000
F0F000
F0F000
F0F000
F0F000
F0F000
F0F000
F0F000
ENDCHAR
STARTCHAR 2560
ENCODING 9568
SWIDTH 697 0
DWIDTH 31 0
BBX 22 53 10 -13
BITMAP
F0F000
F0F000
F0F000
F0F000
F0F000
F0F000
F0F000
F0F000
F0F000
F0F000
F0F000
F0F000
F0F000
F0F000
F0F000
F0F000
F0F000
F0F000
F0F000
F0F000
F0F000
F0FFFC
F0FFFC
F0FFFC
F00000
F00000
F00000
F00000
F00000
F0FFFC
F0FFFC
F0FFFC
F0FFFC
F0F000
F0F000
F0F000
F0F000
F0F000
F0F000
F0F000
F0F000
F0F000
F0F000
F0F000
F0F000
F0F000
F0F000
F0F000
F0F000
F0F000
F0F000
F0F000
F0F000
ENDCHAR
STARTCHAR 2561
ENCODING 9569
SWIDTH 697 0
DWIDTH 31 0
BBX 18 53 0 -13
BITMAP
0003C0
0003C0
0003C0
0003C0
0003C0
0003C0
0003C0
0003C0
0003C0
0003C0
0003C0
0003C0
0003C0
0003C0
0003C0
0003C0
0003C0
0003C0
0003C0
0003C0
0003C0
FFFFC0
FFFFC0
FFFFC0
0003C0
0003C0
0003C0
0003C0
0003C0
FFFFC0
FFFFC0
FFFFC0
FFFFC0
0003C0
0003C0
0003C0
0003C0
0003C0
0003C0
0003C0
0003C0
0003C0
0003C0
0003C0
0003C0
0003C0
0003C0
0003C0
0003C0
0003C0
0003C0
0003C0
0003C0
ENDCHAR
STARTCHAR 2562
ENCODING 9570
SWIDTH 697 0
DWIDTH 31 0
BBX 22 53 0 -13
BITMAP
00383C
00383C
00383C
00383C
00383C
00383C
00383C
00383C
00383C
00383C
00383C
00383C
00383C
00383C
00383C
00383C
00383C
00383C
00383C
00383C
00383C
00383C
00383C
00383C
00383C
FFF83C
FFF83C
FFF83C
FFF83C
00383C
00383C
00383C
00383C
00383C
00383C
00383C
00383C
00383C
00383C
00383C
00383C
00383C
00383C
00383C
00383C
00383C
00383C
00383C
00383C
00383C
00383C
00383C
00383C
ENDCHAR
STARTCHAR 2563
ENCODING 9571
SWIDTH 697 0
DWIDTH 31 0
BBX 22 53 0 -13
BITMAP
00383C
00383C
00383C
00383C
00383C
00383C
00383C
00383C
00383C
00383C
00383C
00383C
00383C
00383C
00383C
00383C
00383C
00383C
00383C
00383C
00383C
FFF83C
FFF83C
FFF83C
00003C
00003C
00003C
00003C
00003C
FFF83C
FFF83C
FFF83C
FFF83C
00383C
00383C
00383C
00383C
00383C
00383C
00383C
00383C
00383C
00383C
00383C
00383C
00383C
00383C
00383C
00383C
00383C
00383C
00383C
00383C
ENDCHAR
STARTCHAR 2564
ENCODING 9572
SWIDTH 697 0
DWIDTH 31 0
BBX 32 32 0 -13
BITMAP
FFFFFFFF
FFFFFFFF
FFFFFFFF
00000000
00000000
00000000
00000000
00000000
FFFFFFFF
FFFFFFFF
FFFFFFFF
FFFFFFFF
0003C000
0003C000
0003C000
0003C000
0003C000
0003C000
0003C000
0003C000
0003C000
0003C000
0003C000
0003C000
0003C000
0003C000
0003C000
0003C000
0003C000
0003C000
0003C000
0003C000
ENDCHAR
STARTCHAR 2565
ENCODING 9573
SWIDTH 697 0
DWIDTH 31 0
BBX 32 28 0 -13
BITMAP
FFFFFFFF
FFFFFFFF
FFFFFFFF
FFFFFFFF
00383C00
00383C00
00383C00
00383C00
00383C00
00383C00
00383C00
00383C00
00383C00
00383C00
00383C00
00383C00
00383C00
00383C00
00383C00
00383C00
00383C00
00383C00
00383C00
00383C00
00383C00
00383C00
00383C00
00383C00
ENDCHAR
STARTCHAR 2566
ENCODING 9574
SWIDTH 697 0
DWIDTH 31 0
BBX 32 32 0 -13
BITMAP
FFFFFFFF
FFFFFFFF
FFFFFFFF
00000000
00000000
00000000
00000000
00000000
FFF83FFF
FFF83FFF
FFF83FFF
FFF83FFF
00383C00
00383C00
00383C00
00383C00
00383C00
00383C00
00383C00
00383C00
00383C00
00383C00
00383C00
00383C00
00383C00
00383C00
00383C00
00383C00
00383C00
00383C00
00383C00
00383C00
ENDCHAR
STARTCHAR 2567
ENCODING 9575
SWIDTH 697 0
DWIDTH 31 0
BBX 32 33 0 7
BITMAP
0003C000
0003C000
0003C000
0003C000
0003C000
0003C000
0003C000
0003C000
0003C000
0003C000
0003C000
0003C000
0003C000
0003C000
0003C000
0003C000
0003C000
0003C000
0003C000
0003C000
0003C000
FFFFFFFF
FFFFFFFF
FFFFFFFF
00000000
00000000
00000000
00000000
00000000
FFFFFFFF
FFFFFFFF
FFFFFFFF
FFFFFFFF
ENDCHAR
STARTCHAR 2568
ENCODING 9576
SWIDTH 697 0
DWIDTH 31 0
BBX 32 29 0 11
BITMAP
00383C00
00383C00
00383C00
00383C00
00383C00
00383C00
00383C00
00383C00
00383C00
00383C00
00383C00
00383C00
00383C00
00383C00
00383C00
00383C00
00383C00
00383C00
00383C00
00383C00
00383C00
00383C00
00383C00
00383C00
00383C00
FFFFFFFF
FFFFFFFF
FFFFFFFF
FFFFFFFF
ENDCHAR
STARTCHAR 2569
ENCODING 9577
SWIDTH 697 0
DWIDTH 31 0
BBX 32 33 0 7
BITMAP
00383C00
00383C00
00383C00
00383C00
00383C00
00383C00
00383C00
00383C00
00383C00
00383C00
00383C00
00383C00
00383C00
00383C00
00383C00
00383C00
00383C00
00383C00
00383C00
00383C00
00383C00
FFF83FFF
FFF83FFF
FFF83FFF
00000000
00000000
00000000
00000000
00000000
FFFFFFFF
FFFFFFFF
FFFFFFFF
FFFFFFFF
ENDCHAR
STARTCHAR 256A
ENCODING 9578
SWIDTH 697 0
DWIDTH 31 0
BBX 32 53 0 -13
BITMAP
0003C000
0003C000
0003C000
0003C000
0003C000
0003C000
0003C000
0003C000
0003C000
0003C000
0003C000
0003C000
0003C000
0003C000
0003C000
0003C000
0003C000
0003C000
0003C000
0003C000
0003C000
FFFFFFFF
FFFFFFFF
FFFFFFFF
0003C000
0003C000
0003C000
0003C000
0003C000
FFFFFFFF
FFFFFFFF
FFFFFFFF
FFFFFFFF
0003C000
0003C000
0003C000
0003C000
0003C000
0003C000
0003C000
0003C000
0003C000
0003C000
0003C000
0003C000
0003C000
0003C000
0003C000
0003C000
0003C000
0003C000
0003C000
0003C000
ENDCHAR
STARTCHAR 256B
ENCODING 9579
SWIDTH 697 0
DWIDTH 31 0
BBX 32 53 0 -13
BITMAP
00383C00
00383C00
00383C00
00383C00
00383C00
00383C00
00383C00
00383C00
00383C00
00383C00
00383C00
00383C00
00383C00
00383C00
00383C00
00383C00
00383C00
00383C00
00383C00
00383C00
00383C00
00383C00
00383C00
00383C00
00383C00
FFFFFFFF
FFFFFFFF
FFFFFFFF
FFFFFFFF
00383C00
00383C00
00383C00
00383C00
00383C00
00383C00
00383C00
00383C00
00383C00
00383C00
00383C00
00383C00
00383C00
00383C00
00383C00
00383C00
00383C00
00383C00
00383C00
00383C00
00383C00
00383C00
00383C00
00383C00
ENDCHAR
STARTCHAR 256C
ENCODING 9580
SWIDTH 697 0
DWIDTH 31 0
BBX 32 53 0 -13
BITMAP
00383C00
00383C00
00383C00
00383C00
00383C00
00383C00
00383C00
00383C00
00383C00
00383C00
00383C00
00383C00
00383C00
00383C00
00383C00
00383C00
00383C00
00383C00
00383C00
00383C00
00383C00
FFF83FFF
FFF83FFF
FFF83FFF
00000000
00000000
00000000
00000000
00000000
FFF83FFF
FFF83FFF
FFF83FFF
FFF83FFF
00383C00
00383C00
00383C00
00383C00
00383C00
00383C00
00383C00
00383C00
00383C00
00383C00
00383C00
00383C00
00383C00
00383C00
00383C00
00383C00
00383C00
00383C00
00383C00
00383C00
ENDCHAR
STARTCHAR 2580
ENCODING 9600
SWIDTH 697 0
DWIDTH 31 0
BBX 32 27 0 13
BITMAP
FFFFFFFF
FFFFFFFF
FFFFFFFF
FFFFFFFF
FFFFFFFF
FFFFFFFF
FFFFFFFF
FFFFFFFF
FFFFFFFF
FFFFFFFF
FFFFFFFF
FFFFFFFF
FFFFFFFF
FFFFFFFF
FFFFFFFF
FFFFFFFF
FFFFFFFF
FFFFFFFF
FFFFFFFF
FFFFFFFF
FFFFFFFF
FFFFFFFF
FFFFFFFF
FFFFFFFF
FFFFFFFF
FFFFFFFF
FFFFFFFF
ENDCHAR
STARTCHAR 2584
ENCODING 9604
SWIDTH 697 0
DWIDTH 31 0
BBX 32 26 0 -13
BITMAP
FFFFFFFF
FFFFFFFF
FFFFFFFF
FFFFFFFF
FFFFFFFF
FFFFFFFF
FFFFFFFF
FFFFFFFF
FFFFFFFF
FFFFFFFF
FFFFFFFF
FFFFFFFF
FFFFFFFF
FFFFFFFF
FFFFFFFF
FFFFFFFF
FFFFFFFF
FFFFFFFF
FFFFFFFF
FFFFFFFF
FFFFFFFF
FFFFFFFF
FFFFFFFF
FFFFFFFF
FFFFFFFF
FFFFFFFF
ENDCHAR
STARTCHAR 2588
ENCODING 9608
SWIDTH 697 0
DWIDTH 31 0
BBX 32 53 0 -13
BITMAP
FFFFFFFF
FFFFFFFF
FFFFFFFF
FFFFFFFF
FFFFFFFF
FFFFFFFF
FFFFFFFF
FFFFFFFF
FFFFFFFF
FFFFFFFF
FFFFFFFF
FFFFFFFF
FFFFFFFF
FFFFFFFF
FFFFFFFF
FFFFFFFF
FFFFFFFF
FFFFFFFF
FFFFFFFF
FFFFFFFF
FFFFFFFF
FFFFFFFF
FFFFFFFF
FFFFFFFF
FFFFFFFF
FFFFFFFF
FFFFFFFF
FFFFFFFF
FFFFFFFF
FFFFFFFF
FFFFFFFF
FFFFFFFF
FFFFFFFF
FFFFFFFF
FFFFFFFF
FFFFFFFF
FFFFFFFF
FFFFFFFF
FFFFFFFF
FFFFFFFF
FFFFFFFF
FFFFFFFF
FFFFFFFF
FFFFFFFF
FFFFFFFF
FFFFFFFF
FFFFFFFF
FFFFFFFF
FFFFFFFF
FFFFFFFF
FFFFFFFF
FFFFFFFF
FFFFFFFF
ENDCHAR
STARTCHAR 258C
ENCODING 9612
SWIDTH 697 0
DWIDTH 31 0
BBX 16 53 0 -13
BITMAP
FFFF
FFFF
FFFF
FFFF
FFFF
FFFF
FFFF
FFFF
FFFF
FFFF
FFFF
FFFF
FFFF
FFFF
FFFF
FFFF
FFFF
FFFF
FFFF
FFFF
FFFF
FFFF
FFFF
FFFF
FFFF
FFFF
FFFF
FFFF
FFFF
FFFF
FFFF
FFFF
FFFF
FFFF
FFFF
FFFF
FFFF
FFFF
FFFF
FFFF
FFFF
FFFF
FFFF
FFFF
FFFF
FFFF
FFFF
FFFF
FFFF
FFFF
FFFF
FFFF
FFFF
ENDCHAR
STARTCHAR 2590
ENCODING 9616
SWIDTH 697 0
DWIDTH 31 0
BBX 16 53 16 -13
BITMAP
FFFF
FFFF
FFFF
FFFF
FFFF
FFFF
FFFF
FFFF
FFFF
FFFF
FFFF
FFFF
FFFF
FFFF
FFFF
FFFF
FFFF
FFFF
FFFF
FFFF
FFFF
FFFF
FFFF
FFFF
FFFF
FFFF
FFFF
FFFF
FFFF
FFFF
FFFF
FFFF
FFFF
FFFF
FFFF
FFFF
FFFF
FFFF
FFFF
FFFF
FFFF
FFFF
FFFF
FFFF
FFFF
FFFF
FFFF
FFFF
FFFF
FFFF
FFFF
FFFF
FFFF
ENDCHAR
STARTCHAR 2591
ENCODING 9617
SWIDTH 697 0
DWIDTH 31 0
BBX 30 51 2 -11
BITMAP
E01C0300
E01C0300
E01C0300
00000000
00000000
0300E01C
0300E01C
0300E01C
00000000
00000000
00000000
E01C0300
E01C0300
00000000
00000000
00000000
0300E01C
0300E01C
0300E01C
00000000
00000000
E01C0300
E01C0300
E01C0300
00000000
00000000
00000000
0300E01C
0300E01C
00000000
00000000
00000000
E01C0300
E01C0300
E01C0300
00000000
00000000
0300E01C
0300E01C
0300E01C
00000000
00000000
00000000
E01C0300
E01C0300
00000000
00000000
00000000
0300E01C
0300E01C
0300E01C
ENDCHAR
STARTCHAR 2592
ENCODING 9618
SWIDTH 697 0
DWIDTH 31 0
BBX 32 51 0 -11
BITMAP
38C738C7
38C738C7
38C738C7
00000000
00000000
C738C738
C738C738
C738C738
00000000
00000000
00000000
38C738C7
38C738C7
00000000
00000000
00000000
C738C738
C738C738
C738C738
00000000
00000000
38C738C7
38C738C7
38C738C7
00000000
00000000
00000000
C738C738
C738C738
00000000
00000000
00000000
38C738C7
38C738C7
38C738C7
00000000
00000000
C738C738
C738C738
C738C738
00000000
00000000
00000000
38C738C7
38C738C7
00000000
00000000
00000000
C738C738
C738C738
C738C738
ENDCHAR
STARTCHAR 2593
ENCODING 9619
SWIDTH 720 0
DWIDTH 32 0
BBX 32 53 0 -13
BITMAP
18E718E7
18E718E7
18E718E7
FFFFFFFF
FFFFFFFF
E718E718
E718E718
E718E718
FFFFFFFF
FFFFFFFF
FFFFFFFF
18E718E7
18E718E7
FFFFFFFF
FFFFFFFF
FFFFFFFF
E718E718
E718E718
E718E718
FFFFFFFF
FFFFFFFF
18E718E7
18E718E7
18E718E7
FFFFFFFF
FFFFFFFF
FFFFFFFF
E718E718
E718E718
FFFFFFFF
FFFFFFFF
FFFFFFFF
18E718E7
18E718E7
18E718E7
FFFFFFFF
FFFFFFFF
E718E718
E718E718
E718E718
FFFFFFFF
FFFFFFFF
FFFFFFFF
18E718E7
18E718E7
FFFFFFFF
FFFFFFFF
FFFFFFFF
E718E718
E718E718
E718E718
FFFFFFFF
FFFFFFFF
ENDCHAR
STARTCHAR 25A0
ENCODING 9632
SWIDTH 607 0
DWIDTH 27 0
BBX 20 20 3 0
BITMAP
FFFFF0
FFFFF0
FFFFF0
FFFFF0
FFFFF0
FFFFF0
FFFFF0
FFFFF0
FFFFF0
FFFFF0
FFFFF0
FFFFF0
FFFFF0
FFFFF0
FFFFF0
FFFFF0
FFFFF0
FFFFF0
FFFFF0
FFFFF0
ENDCHAR
STARTCHAR 25A1
ENCODING 9633
SWIDTH 607 0
DWIDTH 27 0
BBX 21 20 3 0
BITMAP
FFFFF8
FFFFF8
C00018
C00018
C00018
C00018
C00018
C00018
C00018
C00018
C00018
C00018
C00018
C00018
C00018
C00018
C00018
C00018
FFFFF8
FFFFF8
ENDCHAR
STARTCHAR 25AA
ENCODING 9642
SWIDTH 360 0
DWIDTH 16 0
BBX 10 10 3 10
BITMAP
FFC0
FFC0
FFC0
FFC0
FFC0
FFC0
FFC0
FFC0
FFC0
FFC0
ENDCHAR
STARTCHAR 25AB
ENCODING 9643
SWIDTH 360 0
DWIDTH 16 0
BBX 10 10 3 10
BITMAP
FFC0
FFC0
C0C0
C0C0
C0C0
C0C0
C0C0
C0C0
FFC0
FFC0
ENDCHAR
STARTCHAR 25AC
ENCODING 9644
SWIDTH 990 0
DWIDTH 44 0
BBX 44 8 0 7
BITMAP
FFFFFFFFFFF0
FFFFFFFFFFF0
FFFFFFFFFFF0
FFFFFFFFFFF0
FFFFFFFFFFF0
FFFFFFFFFFF0
FFFFFFFFFFF0
FFFFFFFFFFF0
ENDCHAR
STARTCHAR 25B2
ENCODING 9650
SWIDTH 990 0
DWIDTH 44 0
BBX 30 30 7 0
BITMAP
00020000
00030000
00070000
00078000
000F8000
000FC000
001FC000
001FE000
003FE000
003FF000
007FF000
007FF800
00FFF800
00FFFC00
01FFFC00
01FFFE00
03FFFE00
03FFFF00
07FFFF00
07FFFF80
0FFFFF80
0FFFFFC0
1FFFFFC0
1FFFFFE0
3FFFFFE0
3FFFFFF0
7FFFFFF0
7FFFFFF8
FFFFFFF8
FFFFFFFC
ENDCHAR
STARTCHAR 25BA
ENCODING 9658
SWIDTH 990 0
DWIDTH 44 0
BBX 31 31 6 -1
BITMAP
C0000000
F0000000
FC000000
FF000000
FFC00000
FFF00000
FFFC0000
FFFF0000
FFFFC000
FFFFF000
FFFFFC00
FFFFFF00
FFFFFFC0
FFFFFFF0
FFFFFFFC
FFFFFFFE
FFFFFFF8
FFFFFFE0
FFFFFF80
FFFFFE00
FFFFF800
FFFFE000
FFFF8000
FFFE0000
FFF80000
FFE00000
FF800000
FE000000
F8000000
E0000000
80000000
ENDCHAR
STARTCHAR 25BC
ENCODING 9660
SWIDTH 990 0
DWIDTH 44 0
BBX 30 30 7 -1
BITMAP
FFFFFFFC
FFFFFFF8
7FFFFFF8
7FFFFFF0
3FFFFFF0
3FFFFFE0
1FFFFFE0
1FFFFFC0
0FFFFFC0
0FFFFF80
07FFFF80
07FFFF00
03FFFF00
03FFFE00
01FFFE00
01FFFC00
00FFFC00
00FFF800
007FF800
007FF000
003FF000
003FE000
001FE000
001FC000
000FC000
000F8000
00078000
00070000
00030000
00020000
ENDCHAR
STARTCHAR 25C4
ENCODING 9668
SWIDTH 990 0
DWIDTH 44 0
BBX 30 30 7 -1
BITMAP
0000000C
0000003C
000000FC
000003FC
00000FFC
00003FFC
0000FFFC
0003FFFC
000FFFFC
003FFFFC
00FFFFFC
03FFFFFC
0FFFFFFC
3FFFFFFC
FFFFFFFC
FFFFFFFC
3FFFFFFC
0FFFFFFC
03FFFFFC
00FFFFFC
003FFFFC
000FFFFC
0003FFFC
0000FFFC
00003FFC
00000FFC
000003FC
000000FC
0000003C
0000000C
ENDCHAR
ENDFONT
